<svg width="55" height="55" viewBox="0 0 55 55" fill="none" xmlns="http://www.w3.org/2000/svg">
<path d="M49.0788 22.6001H47.2658V22.5066H27.0083V31.51H39.7289C37.8731 36.751 32.8864 40.5133 27.0083 40.5133C19.5502 40.5133 13.5033 34.4664 13.5033 27.0083C13.5033 19.5502 19.5502 13.5033 27.0083 13.5033C30.451 13.5033 33.583 14.8021 35.9677 16.9235L42.3342 10.557C38.3142 6.81048 32.937 4.5 27.0083 4.5C14.5781 4.5 4.5 14.5781 4.5 27.0083C4.5 39.4385 14.5781 49.5166 27.0083 49.5166C39.4385 49.5166 49.5166 39.4385 49.5166 27.0083C49.5166 25.4991 49.3613 24.026 49.0788 22.6001Z" fill="#FFC107"/>
<path d="M7.09375 16.5318L14.4889 21.9552C16.4898 17.0011 21.3359 13.5033 27.0069 13.5033C30.4495 13.5033 33.5815 14.8021 35.9663 16.9235L42.3328 10.557C38.3128 6.81048 32.9355 4.5 27.0069 4.5C18.3614 4.5 10.8639 9.38093 7.09375 16.5318Z" fill="#FF3D00"/>
<path d="M27.0068 49.5201C32.8207 49.5201 38.1034 47.2951 42.0975 43.6769L35.1312 37.782C32.7958 39.5591 29.9414 40.5199 27.0068 40.5168C21.1524 40.5168 16.1814 36.7838 14.3087 31.5742L6.96875 37.2294C10.6939 44.5187 18.2589 49.5201 27.0068 49.5201Z" fill="#4CAF50"/>
<path d="M49.0783 22.6012H47.2653V22.5078H27.0078V31.5111H39.7284C38.8407 34.0055 37.2416 36.1852 35.1288 37.7808L35.1322 37.7786L42.0985 43.6735C41.6056 44.1214 49.5161 38.2636 49.5161 27.0095C49.5161 25.5003 49.3608 24.0271 49.0783 22.6012Z" fill="#1976D2"/>
</svg>
