<svg width="290" height="78" viewBox="0 0 290 78" fill="none" xmlns="http://www.w3.org/2000/svg">
<rect width="12.3769" height="36.5322" fill="#159C2A"/>
<rect width="38.506" height="12.1774" fill="#159C2A"/>
<rect x="41.2578" width="16.5025" height="59.5339" fill="#159C2A"/>
<rect y="39.2383" width="38.506" height="20.2956" fill="#161618"/>
<path d="M83.8818 34.2698V29.3547H76.2859V16.6203C76.2859 14.9819 76.2859 13.2691 76.9562 12.1521C77.7753 10.8116 79.1903 10.5137 80.3818 10.5137C81.4988 10.5137 82.7648 10.7371 83.8818 11.1839V5.97102C83.2861 5.7476 82.0201 5.30078 80.0839 5.30078C77.6264 5.30078 75.3923 6.04549 73.9029 7.31148C71.1475 9.62007 70.9241 13.1947 70.9241 16.0245V29.3547H67.9453V34.2698H70.9241V60.26H76.2859V34.2698H83.8818Z" fill="#161618"/>
<path d="M91.0484 29.3547H85.6866V47.9724C85.6866 51.7704 86.0589 54.6002 88.5164 57.2812C91.2718 60.1855 94.9208 61.1536 97.9741 61.1536C101.027 61.1536 104.676 60.1855 107.432 57.2812C109.889 54.6002 110.262 51.7704 110.262 47.9724V29.3547H104.9V47.3766C104.9 49.5362 104.9 52.0682 103.41 54.0045C102.591 55.0471 100.953 56.3875 97.9741 56.3875C94.9953 56.3875 93.357 55.0471 92.5378 54.0045C91.0484 52.0682 91.0484 49.5362 91.0484 47.3766V29.3547Z" fill="#161618"/>
<path d="M112.929 60.26H118.291V44.0999C118.291 41.8658 118.44 38.2167 120.525 35.7592C122.089 33.8974 124.1 33.3762 125.961 33.3762C128.344 33.3762 129.983 34.2698 131.025 35.6103C132.291 37.2486 132.44 39.4083 132.44 41.27V60.26H137.802V41.1211C137.802 37.6954 137.579 35.1634 136.015 32.8549C134.153 30.0994 130.802 28.61 127.153 28.61C122.014 28.61 119.259 31.6633 118.291 32.9293V29.3547H112.929V60.26Z" fill="#161618"/>
<path d="M166.378 33.7485C164.963 31.8867 161.761 28.61 155.803 28.61C147.91 28.61 140.76 34.1209 140.76 44.7701C140.76 55.6428 147.984 61.1536 155.803 61.1536C161.24 61.1536 164.591 58.2493 166.378 55.9407V60.26H171.74V5.97102H166.378V33.7485ZM156.399 33.3762C161.165 33.3762 166.676 36.8763 166.676 44.8446C166.676 50.9512 162.952 56.3875 156.399 56.3875C149.995 56.3875 146.271 51.398 146.271 44.7701C146.271 37.2486 151.112 33.3762 156.399 33.3762Z" fill="#161618"/>
<path d="M193.066 34.1953C190.608 28.9079 186.214 28.61 184.576 28.61C179.363 28.61 175.565 31.8123 175.565 37.2486C175.565 38.8125 175.789 40.3019 176.98 41.7913C178.395 43.5041 180.778 44.6957 184.502 46.334C187.406 47.6 189.491 48.5681 189.491 51.4725C189.491 53.7811 187.927 56.3875 184.427 56.3875C180.555 56.3875 178.767 52.9619 178.172 51.3235L173.555 53.2598C176.161 61.0047 183.087 61.1536 184.353 61.1536C190.31 61.1536 195.002 57.5046 195.002 51.0257C195.002 49.3128 194.704 47.6745 193.364 46.0361C192.172 44.5467 190.087 43.1318 185.619 41.27C182.119 39.7806 180.629 39.1104 180.629 36.8763C180.629 34.4932 182.416 33.3762 184.353 33.3762C186.363 33.3762 187.927 34.7166 188.672 36.5039L193.066 34.1953Z" fill="#161618"/>
<path d="M196.905 60.26H202.267V44.0999C202.267 41.8658 202.416 38.2167 204.501 35.7592C206.065 33.8974 208.076 33.3762 209.938 33.3762C212.321 33.3762 213.959 34.2698 215.002 35.6103C216.268 37.2486 216.417 39.4083 216.417 41.27V60.26H221.778V41.1211C221.778 37.6954 221.555 35.1634 219.991 32.8549C218.129 30.0994 214.778 28.61 211.129 28.61C205.991 28.61 203.235 31.6633 202.267 32.9293V5.97102H196.905V60.26Z" fill="#161618"/>
<path d="M240.375 61.1536C249.759 61.1536 256.759 54.3024 256.759 44.9191C256.759 35.5358 249.833 28.61 240.375 28.61C230.918 28.61 223.992 35.5358 223.992 44.9191C223.992 54.3024 230.992 61.1536 240.375 61.1536ZM240.375 33.3762C246.035 33.3762 251.248 37.3231 251.248 44.9191C251.248 52.4406 245.961 56.3875 240.375 56.3875C234.865 56.3875 229.503 52.5151 229.503 44.9191C229.503 37.3976 234.716 33.3762 240.375 33.3762Z" fill="#161618"/>
<path d="M264.386 55.9407C266.694 58.9195 270.194 61.1536 275.184 61.1536C284.567 61.1536 290.003 53.4832 290.003 44.9935C290.003 36.6529 284.641 28.61 274.96 28.61C272.726 28.61 268.035 29.1313 264.386 33.674V29.3547H259.024V77.6861H264.386V55.9407ZM274.439 56.3875C268.109 56.3875 264.088 51.2491 264.088 44.9191C264.088 37.472 269.375 33.3762 274.365 33.3762C279.354 33.3762 284.492 37.3976 284.492 44.9935C284.492 51.1746 280.694 56.3875 274.439 56.3875Z" fill="#161618"/>
<path d="M4.58478 71.2587C4.42947 70.9585 4.19133 70.6789 3.91177 70.4925C3.57008 70.2647 3.2284 70.1819 2.80388 70.1819C1.68564 70.1819 0.867664 70.8963 0.867664 71.9628C0.867664 72.4805 1.04368 72.8015 1.34395 73.0914C1.65458 73.3917 1.99626 73.5367 2.26547 73.6609L2.88671 73.9508C3.24911 74.1165 3.51831 74.2407 3.71504 74.4271C3.96354 74.6549 4.05672 74.9241 4.05672 75.2347C4.05672 75.9285 3.6115 76.6015 2.66928 76.6015C2.31724 76.6015 1.97555 76.5187 1.67528 76.2184C1.47856 76.0113 1.31289 75.7007 1.26112 75.3383L0.515625 75.5454C0.608812 75.9595 0.815894 76.4358 1.15758 76.7672C1.63387 77.2331 2.20334 77.3263 2.65892 77.3263C3.90141 77.3263 4.84364 76.4772 4.84364 75.2037C4.84364 74.7067 4.69868 74.3029 4.34664 73.9508C4.05672 73.6609 3.68398 73.4745 3.28017 73.2985L2.61751 73.0086C2.35865 72.8947 2.0998 72.7808 1.89272 72.5737C1.70635 72.3977 1.63387 72.2424 1.63387 71.9732C1.63387 71.3312 2.11016 70.9067 2.79353 70.9067C3.18698 70.9067 3.43548 71.0413 3.57008 71.1448C3.72539 71.2691 3.88071 71.4762 3.97389 71.6626L4.58478 71.2587Z" fill="#161618"/>
<path d="M9.28117 77.202L9.96454 72.3977L12.2839 77.492L14.6342 72.3977L15.2865 77.202H16.0735L14.9966 69.9023L12.2942 75.7421L9.64357 69.9127L8.49426 77.202H9.28117Z" fill="#161618"/>
<path d="M24.7738 77.202H25.6228L22.527 69.9645L19.3483 77.202H20.1973L21.0256 75.2555H23.9662L24.7738 77.202ZM21.3259 74.5307L22.5063 71.7661L23.6659 74.5307H21.3259Z" fill="#161618"/>
<path d="M29.0818 70.2958V77.202H31.7532V76.4772H29.848V70.2958H29.0818Z" fill="#161618"/>
<path d="M35.2777 70.2958V77.202H37.9491V76.4772H36.0439V70.2958H35.2777Z" fill="#161618"/>
<path d="M46.3752 70.2958V77.202H48.094C48.5703 77.202 49.2019 77.1813 49.7506 76.7465C50.1234 76.4565 50.4547 75.9181 50.4547 75.2555C50.4547 74.5928 50.1027 73.7541 49.1397 73.516C49.7506 73.1018 49.8231 72.5012 49.8231 72.1596C49.8231 71.3209 49.4193 70.8963 49.2019 70.7307C48.6945 70.3269 48.0008 70.2958 47.6177 70.2958H46.3752ZM47.1414 71.0206H47.7419C47.9594 71.0206 49.0776 71.0413 49.0776 72.1803C49.0776 73.2467 48.125 73.3296 47.7212 73.3296H47.1414V71.0206ZM47.1414 74.013H47.9283C48.4771 74.013 48.8395 74.0751 49.0983 74.22C49.3675 74.365 49.6885 74.686 49.6885 75.2347C49.6885 75.6489 49.5021 75.9906 49.2329 76.1873C48.9016 76.4462 48.4667 76.4772 48.0215 76.4772H47.1414V74.013Z" fill="#161618"/>
<path d="M55.1169 70.2958H54.3507V74.7377C54.3507 75.3176 54.4128 75.8767 54.7855 76.3944C55.1997 76.9639 55.9245 77.3263 56.8046 77.3263C57.6847 77.3263 58.4095 76.9639 58.8236 76.3944C59.1964 75.8767 59.2585 75.3176 59.2585 74.7377V70.2958H58.4923V74.5307C58.4923 75.1105 58.4923 75.7421 57.9435 76.208C57.664 76.4462 57.1877 76.6015 56.8046 76.6015C56.4215 76.6015 55.9452 76.4462 55.6656 76.208C55.1169 75.7421 55.1169 75.1105 55.1169 74.5307V70.2958Z" fill="#161618"/>
<path d="M67.2258 71.2587C67.0705 70.9585 66.8324 70.6789 66.5528 70.4925C66.2111 70.2647 65.8694 70.1819 65.4449 70.1819C64.3267 70.1819 63.5087 70.8963 63.5087 71.9628C63.5087 72.4805 63.6847 72.8015 63.985 73.0914C64.2956 73.3917 64.6373 73.5367 64.9065 73.6609L65.5278 73.9508C65.8901 74.1165 66.1594 74.2407 66.3561 74.4271C66.6046 74.6549 66.6978 74.9241 66.6978 75.2347C66.6978 75.9285 66.2525 76.6015 65.3103 76.6015C64.9583 76.6015 64.6166 76.5187 64.3163 76.2184C64.1196 76.0113 63.9539 75.7007 63.9022 75.3383L63.1567 75.5454C63.2499 75.9595 63.4569 76.4358 63.7986 76.7672C64.2749 77.2331 64.8444 77.3263 65.3 77.3263C66.5425 77.3263 67.4847 76.4772 67.4847 75.2037C67.4847 74.7067 67.3397 74.3029 66.9877 73.9508C66.6978 73.6609 66.325 73.4745 65.9212 73.2985L65.2585 73.0086C64.9997 72.8947 64.7408 72.7808 64.5338 72.5737C64.3474 72.3977 64.2749 72.2424 64.2749 71.9732C64.2749 71.3312 64.7512 70.9067 65.4346 70.9067C65.828 70.9067 66.0765 71.0413 66.2111 71.1448C66.3664 71.2691 66.5218 71.4762 66.6149 71.6626L67.2258 71.2587Z" fill="#161618"/>
<path d="M71.3735 70.2958V77.202H72.1397V70.2958H71.3735Z" fill="#161618"/>
<path d="M77.1727 77.202V71.8696L82.5568 77.5127V70.2958H81.7906V75.6489L76.4065 70.0059V77.202H77.1727Z" fill="#161618"/>
<path d="M90.4014 70.2958H86.8188V77.202H90.4014V76.4772H87.585V73.7955H90.3185V73.0707H87.585V71.0206H90.4014V70.2958Z" fill="#161618"/>
<path d="M97.9953 71.2587C97.84 70.9585 97.6018 70.6789 97.3223 70.4925C96.9806 70.2647 96.6389 70.1819 96.2144 70.1819C95.0961 70.1819 94.2782 70.8963 94.2782 71.9628C94.2782 72.4805 94.4542 72.8015 94.7544 73.0914C95.0651 73.3917 95.4068 73.5367 95.676 73.6609L96.2972 73.9508C96.6596 74.1165 96.9288 74.2407 97.1255 74.4271C97.374 74.6549 97.4672 74.9241 97.4672 75.2347C97.4672 75.9285 97.022 76.6015 96.0798 76.6015C95.7277 76.6015 95.386 76.5187 95.0858 76.2184C94.8891 76.0113 94.7234 75.7007 94.6716 75.3383L93.9261 75.5454C94.0193 75.9595 94.2264 76.4358 94.5681 76.7672C95.0444 77.2331 95.6138 77.3263 96.0694 77.3263C97.3119 77.3263 98.2541 76.4772 98.2541 75.2037C98.2541 74.7067 98.1092 74.3029 97.7571 73.9508C97.4672 73.6609 97.0945 73.4745 96.6907 73.2985L96.028 73.0086C95.7691 72.8947 95.5103 72.7808 95.3032 72.5737C95.1168 72.3977 95.0444 72.2424 95.0444 71.9732C95.0444 71.3312 95.5207 70.9067 96.204 70.9067C96.5975 70.9067 96.846 71.0413 96.9806 71.1448C97.1359 71.2691 97.2912 71.4762 97.3844 71.6626L97.9953 71.2587Z" fill="#161618"/>
<path d="M105.839 71.2587C105.684 70.9585 105.446 70.6789 105.166 70.4925C104.825 70.2647 104.483 70.1819 104.058 70.1819C102.94 70.1819 102.122 70.8963 102.122 71.9628C102.122 72.4805 102.298 72.8015 102.598 73.0914C102.909 73.3917 103.251 73.5367 103.52 73.6609L104.141 73.9508C104.504 74.1165 104.773 74.2407 104.97 74.4271C105.218 74.6549 105.311 74.9241 105.311 75.2347C105.311 75.9285 104.866 76.6015 103.924 76.6015C103.572 76.6015 103.23 76.5187 102.93 76.2184C102.733 76.0113 102.567 75.7007 102.516 75.3383L101.77 75.5454C101.863 75.9595 102.07 76.4358 102.412 76.7672C102.888 77.2331 103.458 77.3263 103.913 77.3263C105.156 77.3263 106.098 76.4772 106.098 75.2037C106.098 74.7067 105.953 74.3029 105.601 73.9508C105.311 73.6609 104.938 73.4745 104.535 73.2985L103.872 73.0086C103.613 72.8947 103.354 72.7808 103.147 72.5737C102.961 72.3977 102.888 72.2424 102.888 71.9732C102.888 71.3312 103.365 70.9067 104.048 70.9067C104.442 70.9067 104.69 71.0413 104.825 71.1448C104.98 71.2691 105.135 71.4762 105.228 71.6626L105.839 71.2587Z" fill="#161618"/>
<path d="M114.889 70.2958V77.202H117.56V76.4772H115.655V70.2958H114.889Z" fill="#161618"/>
<path d="M123.951 77.3263C125.949 77.3263 127.544 75.8042 127.544 73.7541C127.544 71.6936 125.939 70.1819 123.951 70.1819C121.963 70.1819 120.358 71.6936 120.358 73.7541C120.358 75.8042 121.952 77.3263 123.951 77.3263ZM123.951 70.9067C125.504 70.9067 126.757 72.1699 126.757 73.7541C126.757 75.3383 125.504 76.6015 123.951 76.6015C122.398 76.6015 121.145 75.3383 121.145 73.7541C121.145 72.1699 122.398 70.9067 123.951 70.9067Z" fill="#161618"/>
<path d="M135.639 77.202H136.488L133.393 69.9645L130.214 77.202H131.063L131.891 75.2555H134.832L135.639 77.202ZM132.192 74.5307L133.372 71.7661L134.532 74.5307H132.192Z" fill="#161618"/>
<path d="M140.714 77.202V71.8696L146.098 77.5127V70.2958H145.332V75.6489L139.947 70.0059V77.202H140.714Z" fill="#161618"/>
<path d="M154.056 71.2587C153.901 70.9585 153.663 70.6789 153.383 70.4925C153.042 70.2647 152.7 70.1819 152.275 70.1819C151.157 70.1819 150.339 70.8963 150.339 71.9628C150.339 72.4805 150.515 72.8015 150.815 73.0914C151.126 73.3917 151.468 73.5367 151.737 73.6609L152.358 73.9508C152.721 74.1165 152.99 74.2407 153.186 74.4271C153.435 74.6549 153.528 74.9241 153.528 75.2347C153.528 75.9285 153.083 76.6015 152.141 76.6015C151.789 76.6015 151.447 76.5187 151.147 76.2184C150.95 76.0113 150.784 75.7007 150.733 75.3383L149.987 75.5454C150.08 75.9595 150.287 76.4358 150.629 76.7672C151.105 77.2331 151.675 77.3263 152.13 77.3263C153.373 77.3263 154.315 76.4772 154.315 75.2037C154.315 74.7067 154.17 74.3029 153.818 73.9508C153.528 73.6609 153.155 73.4745 152.752 73.2985L152.089 73.0086C151.83 72.8947 151.571 72.7808 151.364 72.5737C151.178 72.3977 151.105 72.2424 151.105 71.9732C151.105 71.3312 151.582 70.9067 152.265 70.9067C152.658 70.9067 152.907 71.0413 153.042 71.1448C153.197 71.2691 153.352 71.4762 153.445 71.6626L154.056 71.2587Z" fill="#161618"/>
<path d="M163.872 70.2958H163.105V77.202H163.872V73.8266H167.413V77.202H168.179V70.2958H167.413V73.1018H163.872V70.2958Z" fill="#161618"/>
<path d="M177.064 77.202H177.913L174.817 69.9645L171.638 77.202H172.487L173.316 75.2555H176.256L177.064 77.202ZM173.616 74.5307L174.796 71.7661L175.956 74.5307H173.616Z" fill="#161618"/>
<path d="M185.068 71.2587C184.913 70.9585 184.675 70.6789 184.395 70.4925C184.054 70.2647 183.712 70.1819 183.287 70.1819C182.169 70.1819 181.351 70.8963 181.351 71.9628C181.351 72.4805 181.527 72.8015 181.827 73.0914C182.138 73.3917 182.48 73.5367 182.749 73.6609L183.37 73.9508C183.733 74.1165 184.002 74.2407 184.199 74.4271C184.447 74.6549 184.54 74.9241 184.54 75.2347C184.54 75.9285 184.095 76.6015 183.153 76.6015C182.801 76.6015 182.459 76.5187 182.159 76.2184C181.962 76.0113 181.796 75.7007 181.745 75.3383L180.999 75.5454C181.092 75.9595 181.299 76.4358 181.641 76.7672C182.117 77.2331 182.687 77.3263 183.142 77.3263C184.385 77.3263 185.327 76.4772 185.327 75.2037C185.327 74.7067 185.182 74.3029 184.83 73.9508C184.54 73.6609 184.168 73.4745 183.764 73.2985L183.101 73.0086C182.842 72.8947 182.583 72.7808 182.376 72.5737C182.19 72.3977 182.117 72.2424 182.117 71.9732C182.117 71.3312 182.594 70.9067 183.277 70.9067C183.671 70.9067 183.919 71.0413 184.054 71.1448C184.209 71.2691 184.364 71.4762 184.457 71.6626L185.068 71.2587Z" fill="#161618"/>
<path d="M192.912 71.2587C192.757 70.9585 192.519 70.6789 192.239 70.4925C191.898 70.2647 191.556 70.1819 191.131 70.1819C190.013 70.1819 189.195 70.8963 189.195 71.9628C189.195 72.4805 189.371 72.8015 189.672 73.0914C189.982 73.3917 190.324 73.5367 190.593 73.6609L191.214 73.9508C191.577 74.1165 191.846 74.2407 192.043 74.4271C192.291 74.6549 192.384 74.9241 192.384 75.2347C192.384 75.9285 191.939 76.6015 190.997 76.6015C190.645 76.6015 190.303 76.5187 190.003 76.2184C189.806 76.0113 189.64 75.7007 189.589 75.3383L188.843 75.5454C188.936 75.9595 189.143 76.4358 189.485 76.7672C189.961 77.2331 190.531 77.3263 190.987 77.3263C192.229 77.3263 193.171 76.4772 193.171 75.2037C193.171 74.7067 193.026 74.3029 192.674 73.9508C192.384 73.6609 192.012 73.4745 191.608 73.2985L190.945 73.0086C190.686 72.8947 190.427 72.7808 190.22 72.5737C190.034 72.3977 189.961 72.2424 189.961 71.9732C189.961 71.3312 190.438 70.9067 191.121 70.9067C191.515 70.9067 191.763 71.0413 191.898 71.1448C192.053 71.2691 192.208 71.4762 192.301 71.6626L192.912 71.2587Z" fill="#161618"/>
<path d="M197.06 70.2958V77.202H199.731V76.4772H197.826V70.2958H197.06Z" fill="#161618"/>
<path d="M206.838 70.2958H203.256V77.202H206.838V76.4772H204.022V73.7955H206.756V73.0707H204.022V71.0206H206.838V70.2958Z" fill="#161618"/>
<path d="M218.785 70.2958H215.637V77.202H216.404V73.7852H218.702V73.0604H216.404V71.0206H218.785V70.2958Z" fill="#161618"/>
<path d="M222.612 70.2958V77.202H223.378V74.1786H223.575L225.677 77.202H226.609L224.414 74.1165C225.459 74.044 226.153 73.2675 226.153 72.2113C226.153 71.4762 225.801 70.9481 225.397 70.6789C224.88 70.3269 224.186 70.2958 223.72 70.2958H222.612ZM223.378 71.0206H223.844C224.175 71.0206 224.527 71.0413 224.838 71.2173C225.273 71.4658 225.387 71.8489 225.387 72.232C225.387 73.0397 224.817 73.4952 223.865 73.4952H223.378V71.0206Z" fill="#161618"/>
<path d="M233.877 70.2958H230.294V77.202H233.877V76.4772H231.06V73.7955H233.794V73.0707H231.06V71.0206H233.877V70.2958Z" fill="#161618"/>
<path d="M241.357 70.2958H237.774V77.202H241.357V76.4772H238.54V73.7955H241.274V73.0707H238.54V71.0206H241.357V70.2958Z" fill="#161618"/>
<path d="M247.514 64.4048V63.7357H244.945V64.4048H245.841V67.7201H246.618V64.4048H247.514Z" fill="#161618"/>
<path d="M247.803 67.7201H248.591L248.998 65.265L250.043 67.7739H250.258L251.351 65.265L251.71 67.7201H252.498L251.829 63.6641H251.291L250.162 66.2685L249.081 63.6641H248.544L247.803 67.7201Z" fill="#161618"/>
</svg>
