<svg width="85" height="21" viewBox="0 0 85 21" fill="none" xmlns="http://www.w3.org/2000/svg">
<path fill-rule="evenodd" clip-rule="evenodd" d="M17.7041 20.7354L10.9551 15.8125L15.7148 14.6064L17.7041 20.7354ZM13.5312 7.88965H21.9102L15.1611 12.7803L10.9873 15.7803L4.20605 20.6699L6.78223 12.7803L0 7.88965H8.37988L10.9551 0L13.5312 7.88965ZM61.9844 9.8418C62.4432 9.84186 62.8507 9.93139 63.2061 10.1113C63.5614 10.2868 63.8606 10.5388 64.1035 10.8672C64.3465 11.1912 64.5289 11.583 64.6504 12.042C64.7718 12.4964 64.832 13.0027 64.832 13.5605V13.7021C64.832 14.2331 64.7696 14.7262 64.6436 15.1807C64.5221 15.6305 64.3396 16.0239 64.0967 16.3613C63.8582 16.6943 63.5629 16.9532 63.2119 17.1377C62.861 17.3221 62.456 17.415 61.9971 17.415C61.5428 17.415 61.1446 17.3315 60.8027 17.165C60.524 17.0238 60.2814 16.8341 60.0732 16.5977V20.0879H58.4473V9.97656H59.9453L60.0146 10.7373C60.2351 10.4654 60.4979 10.2521 60.8027 10.0977C61.1402 9.9267 61.5344 9.8418 61.9844 9.8418ZM40.6201 14.708C40.6201 14.9734 40.6519 15.196 40.7148 15.376C40.7778 15.5515 40.8637 15.6938 40.9717 15.8018C41.0796 15.9096 41.2057 15.9863 41.3496 16.0312C41.4936 16.0762 41.6466 16.0986 41.8086 16.0986C42.2721 16.0986 42.6369 16.0081 42.9023 15.8281C43.1336 15.67 43.3062 15.4654 43.4219 15.2148V9.97656H45.0557V17.2793H43.5166L43.4746 16.5322C43.2593 16.797 42.9932 17.009 42.6729 17.165C42.3219 17.3315 41.9006 17.415 41.4102 17.415C41.0548 17.415 40.7286 17.3632 40.4316 17.2598C40.1347 17.1563 39.8781 16.9962 39.6621 16.7803C39.4506 16.5643 39.2859 16.283 39.1689 15.9365C39.052 15.59 38.9941 15.1758 38.9941 14.6943V9.97656H40.6201V14.708ZM49.4355 9.8418C50.0475 9.8418 50.5723 9.94438 51.0088 10.1514C51.4498 10.3539 51.7875 10.6314 52.0215 10.9824C52.2552 11.3287 52.372 11.7201 52.3721 12.1562H50.7451C50.7451 11.9629 50.6956 11.7826 50.5967 11.6162C50.5022 11.4454 50.3583 11.3085 50.165 11.2051C49.9715 11.0971 49.728 11.043 49.4355 11.043C49.1567 11.043 48.9247 11.0878 48.7402 11.1777C48.5604 11.2632 48.4259 11.3762 48.3359 11.5156C48.2505 11.6551 48.207 11.8082 48.207 11.9746C48.2071 12.0959 48.2305 12.2058 48.2754 12.3047C48.3249 12.3991 48.4052 12.4874 48.5176 12.5684C48.63 12.6448 48.7832 12.7167 48.9766 12.7842C49.1746 12.8517 49.4227 12.9175 49.7197 12.9805C50.2775 13.0975 50.7568 13.2482 51.1572 13.4326C51.562 13.6126 51.8729 13.8459 52.0889 14.1338C52.3048 14.4172 52.412 14.7775 52.4121 15.2139C52.4121 15.5379 52.3426 15.8355 52.2031 16.1055C52.0681 16.3709 51.8703 16.6029 51.6094 16.8008C51.3484 16.9942 51.0353 17.1449 50.6709 17.2529C50.311 17.3609 49.9059 17.415 49.4561 17.415C48.7946 17.415 48.2344 17.2975 47.7754 17.0635C47.3165 16.825 46.968 16.5213 46.7295 16.1523C46.4955 15.7789 46.3779 15.3917 46.3779 14.9912H47.9512C47.9692 15.2926 48.0518 15.5339 48.2002 15.7139C48.3532 15.8894 48.5426 16.0176 48.7676 16.0986C48.9971 16.1751 49.2336 16.2129 49.4766 16.2129C49.7689 16.2129 50.014 16.1751 50.2119 16.0986C50.4099 16.0177 50.5606 15.9094 50.6641 15.7744C50.7676 15.6349 50.8193 15.4773 50.8193 15.3018C50.8193 15.1399 50.7792 14.9937 50.6982 14.8633C50.6173 14.7283 50.4618 14.607 50.2324 14.499C50.0074 14.391 49.6744 14.2921 49.2334 14.2021C48.8465 14.1167 48.4909 14.0154 48.167 13.8984C47.8475 13.777 47.5732 13.63 47.3438 13.459C47.1143 13.288 46.9365 13.0856 46.8105 12.8516C46.6846 12.6176 46.6211 12.3479 46.6211 12.042C46.6211 11.745 46.6869 11.4637 46.8174 11.1982C46.9479 10.9328 47.134 10.6986 47.377 10.4961C47.6199 10.2936 47.9152 10.1336 48.2617 10.0166C48.6125 9.89971 49.0038 9.84183 49.4355 9.8418ZM55.8818 9.97656H57.1846V11.1641H55.8818V15.2617C55.8819 15.4866 55.9136 15.6598 55.9766 15.7812C56.044 15.8981 56.1361 15.9771 56.2529 16.0176C56.3699 16.0581 56.5075 16.0781 56.665 16.0781C56.7775 16.0781 56.8858 16.0711 56.9893 16.0576C57.0924 16.0442 57.1754 16.031 57.2383 16.0176L57.2451 17.2598C57.1103 17.3002 56.953 17.3357 56.7734 17.3672C56.5979 17.3987 56.3945 17.415 56.165 17.415C55.7917 17.415 55.4607 17.3492 55.1729 17.2188C54.8851 17.0837 54.66 16.8658 54.498 16.5645C54.336 16.263 54.2549 15.8618 54.2549 15.3623V11.1641H53.0674V9.97656H54.2549V8.1875H55.8818V9.97656ZM76.3408 9.8418C76.8762 9.8418 77.3531 9.93608 77.7715 10.125C78.1945 10.3095 78.5522 10.5707 78.8447 10.9082C79.1372 11.2412 79.3607 11.6344 79.5137 12.0889C79.6667 12.5388 79.7432 13.0272 79.7432 13.5537V13.709C79.7432 14.2355 79.6667 14.7238 79.5137 15.1738C79.3607 15.6238 79.1372 16.018 78.8447 16.3555C78.5523 16.6882 78.1966 16.9488 77.7783 17.1377C77.3599 17.3221 76.8854 17.415 76.3545 17.415C75.8191 17.415 75.3399 17.3221 74.917 17.1377C74.4987 16.9488 74.143 16.6882 73.8506 16.3555C73.5581 16.018 73.3346 15.6238 73.1816 15.1738C73.0286 14.7238 72.9521 14.2355 72.9521 13.709V13.5537C72.9522 13.0272 73.0286 12.5388 73.1816 12.0889C73.3346 11.6344 73.5558 11.2412 73.8438 10.9082C74.1362 10.5707 74.4917 10.3095 74.9102 10.125C75.3331 9.93605 75.8099 9.84181 76.3408 9.8418ZM83.1514 9.97656H84.4541V11.1641H83.1514V15.2617C83.1514 15.4866 83.1831 15.6598 83.2461 15.7812C83.3135 15.8981 83.4056 15.9771 83.5225 16.0176C83.6395 16.0581 83.7771 16.0781 83.9346 16.0781C84.047 16.0781 84.1553 16.0711 84.2588 16.0576C84.3619 16.0442 84.4449 16.031 84.5078 16.0176L84.5146 17.2598C84.3799 17.3002 84.2226 17.3357 84.043 17.3672C83.8675 17.3987 83.6641 17.415 83.4346 17.415C83.0613 17.415 82.7303 17.3492 82.4424 17.2188C82.1546 17.0837 81.9295 16.8658 81.7676 16.5645C81.6056 16.263 81.5244 15.8618 81.5244 15.3623V11.1641H80.3369V9.97656H81.5244V8.1875H83.1514V9.97656ZM33.4932 8.80176H30.4082V17.2793H28.7275V8.80176H25.6699V7.45215H33.4932V8.80176ZM37.4277 9.8418C37.5267 9.8418 37.6326 9.85017 37.7451 9.86816C37.8621 9.88616 37.9503 9.90621 38.0088 9.92871L37.9951 11.4414C37.8961 11.4234 37.7879 11.4094 37.6709 11.4004C37.5584 11.3914 37.4455 11.3867 37.333 11.3867C37.0542 11.3868 36.8091 11.4278 36.5977 11.5088C36.3863 11.5852 36.2084 11.6973 36.0645 11.8457C35.9436 11.9705 35.848 12.1199 35.7744 12.292V17.2793H34.1475V9.97656H35.7002L35.7461 10.8369C35.7558 10.8202 35.7645 10.8026 35.7744 10.7861C35.9589 10.4893 36.1885 10.2573 36.4629 10.0908C36.7418 9.92447 37.0634 9.84182 37.4277 9.8418ZM67.958 17.2793H66.3242V9.97656H67.958V17.2793ZM71.4814 17.2793H69.8477V6.91211H71.4814V17.2793ZM61.5449 11.1504C61.257 11.1504 61.0097 11.2008 60.8027 11.2998C60.5959 11.3942 60.4226 11.5265 60.2832 11.6973C60.2023 11.7965 60.133 11.9065 60.0732 12.0254V15.2344C60.2037 15.5044 60.3885 15.7208 60.627 15.8828C60.8699 16.0403 61.1806 16.1191 61.5586 16.1191C61.851 16.1191 62.1007 16.0556 62.3076 15.9297C62.5146 15.8037 62.684 15.6307 62.8145 15.4102C62.9494 15.1852 63.0483 14.9263 63.1113 14.6338C63.1743 14.3413 63.2061 14.0306 63.2061 13.7021V13.5605C63.2061 13.2231 63.1743 12.9101 63.1113 12.6221C63.0483 12.3297 62.9494 12.073 62.8145 11.8525C62.6795 11.6321 62.5054 11.4613 62.2939 11.3398C62.087 11.214 61.8373 11.1504 61.5449 11.1504ZM76.3408 11.1377C76.0349 11.1377 75.7689 11.2025 75.5439 11.333C75.3237 11.4589 75.1419 11.6346 74.998 11.8594C74.8541 12.0843 74.7482 12.3433 74.6807 12.6357C74.6132 12.9237 74.5791 13.2297 74.5791 13.5537V13.709C74.5791 14.0375 74.6132 14.3481 74.6807 14.6406C74.7482 14.9331 74.8541 15.1897 74.998 15.4102C75.142 15.6304 75.326 15.8038 75.5508 15.9297C75.7758 16.0557 76.044 16.1191 76.3545 16.1191C76.6559 16.1191 76.9172 16.0557 77.1377 15.9297C77.3625 15.8038 77.5465 15.6304 77.6904 15.4102C77.8344 15.1897 77.9403 14.933 78.0078 14.6406C78.0798 14.3481 78.1162 14.0375 78.1162 13.709V13.5537C78.1162 13.2297 78.0798 12.9237 78.0078 12.6357C77.9403 12.3433 77.833 12.0843 77.6846 11.8594C77.5406 11.6344 77.3558 11.459 77.1309 11.333C76.9104 11.2025 76.6468 11.1377 76.3408 11.1377ZM67.1475 7.19531C67.4354 7.19531 67.6626 7.27883 67.8291 7.44531C67.9956 7.60731 68.0791 7.81207 68.0791 8.05957C68.0791 8.30248 67.9956 8.50504 67.8291 8.66699C67.6626 8.82889 67.4354 8.91016 67.1475 8.91016C66.855 8.91014 66.6255 8.82896 66.459 8.66699C66.297 8.50504 66.2159 8.30248 66.2158 8.05957C66.2158 7.81214 66.2971 7.60729 66.459 7.44531C66.6255 7.27883 66.855 7.19533 67.1475 7.19531Z" fill="#FAFAFA"/>
</svg>
