<svg width="246" height="67" viewBox="0 0 246 67" fill="none" xmlns="http://www.w3.org/2000/svg">
<path d="M90.6608 29.9733L83.0194 11.157H78.7612L71.1198 29.9733H74.9988L76.4279 26.3624H85.3526L86.7817 29.9733H90.6608ZM84.3901 23.4567H77.3904L80.8903 14.4858L84.3901 23.4567Z" fill="#FAFAFA"/>
<path d="M101.093 30.3118C105.031 30.3118 107.422 28.3371 108.91 26.0802L105.993 24.6415C105.06 26.2213 103.193 27.3779 101.093 27.3779C97.2433 27.3779 94.3851 24.5287 94.3851 20.5792C94.3851 16.6298 97.2433 13.7805 101.093 13.7805C103.193 13.7805 105.06 14.9654 105.993 16.5169L108.91 15.0782C107.451 12.8214 105.031 10.8466 101.093 10.8466C95.3475 10.8466 90.8852 14.7961 90.8852 20.5792C90.8852 26.3624 95.3475 30.3118 101.093 30.3118Z" fill="#FAFAFA"/>
<path d="M120.974 30.3118C124.911 30.3118 127.303 28.3371 128.79 26.0802L125.874 24.6415C124.94 26.2213 123.074 27.3779 120.974 27.3779C117.124 27.3779 114.266 24.5287 114.266 20.5792C114.266 16.6298 117.124 13.7805 120.974 13.7805C123.074 13.7805 124.94 14.9654 125.874 16.5169L128.79 15.0782C127.332 12.8214 124.911 10.8466 120.974 10.8466C115.228 10.8466 110.766 14.7961 110.766 20.5792C110.766 26.3624 115.228 30.3118 120.974 30.3118Z" fill="#FAFAFA"/>
<path d="M146.571 29.9733L141.817 22.5822C144.15 22.2154 146.425 20.41 146.425 17.0529C146.425 13.583 143.917 11.157 140.067 11.157H131.521V29.9733H134.934V22.9489H138.317L142.633 29.9733H146.571ZM139.6 20.0432H134.934V14.0626H139.6C141.525 14.0626 142.925 15.2475 142.925 17.0529C142.925 18.8584 141.525 20.0432 139.6 20.0432Z" fill="#FAFAFA"/>
<path d="M163.164 29.9733V27.0676H153.248V21.8487H162.96V18.943H153.248V14.0626H163.164V11.157H149.835V29.9733H163.164Z" fill="#FAFAFA"/>
<path d="M173.901 29.9733C179.968 29.9733 184.08 26.1085 184.08 20.5792C184.08 15.05 179.968 11.157 173.901 11.157H166.668V29.9733H173.901ZM173.901 27.0676H170.08V14.0626H173.901C178.247 14.0626 180.58 16.9401 180.58 20.5792C180.58 24.1337 178.13 27.0676 173.901 27.0676Z" fill="#FAFAFA"/>
<path d="M190.787 29.9733V11.157H187.375V29.9733H190.787Z" fill="#FAFAFA"/>
<path d="M202.972 29.9733V14.0626H208.863V11.157H193.668V14.0626H199.56V29.9733H202.972Z" fill="#FAFAFA"/>
<path d="M225.084 29.9733V27.0676H215.168V21.8487H224.88V18.943H215.168V14.0626H225.084V11.157H211.755V29.9733H225.084Z" fill="#FAFAFA"/>
<path d="M235.821 29.9733C241.888 29.9733 246 26.1085 246 20.5792C246 15.05 241.888 11.157 235.821 11.157H228.588V29.9733H235.821ZM235.821 27.0676H232V14.0626H235.821C240.167 14.0626 242.5 16.9401 242.5 20.5792C242.5 24.1337 240.05 27.0676 235.821 27.0676Z" fill="#FAFAFA"/>
<path d="M82.9902 63.4731C86.6359 63.4731 88.6483 61.3009 88.6483 58.3953C88.6483 56.082 86.9567 54.0791 84.886 53.7687C86.6942 53.402 88.2692 51.8222 88.2692 49.4526C88.2692 46.8008 86.2859 44.6568 82.7277 44.6568H73.1614V63.4731H82.9902ZM82.0277 52.4429H76.5738V47.5625H82.0277C83.7777 47.5625 84.7693 48.6062 84.7693 50.0168C84.7693 51.4273 83.7777 52.4429 82.0277 52.4429ZM82.1736 60.5675H76.5738V55.3485H82.1736C84.1277 55.3485 85.1485 56.5334 85.1485 57.9439C85.1485 59.5801 84.0402 60.5675 82.1736 60.5675Z" fill="#FAFAFA"/>
<path d="M100.502 63.8116C106.131 63.8116 108.902 60.7085 108.902 56.0256V44.6568H105.461V55.9409C105.461 58.9312 103.74 60.8778 100.502 60.8778C97.2358 60.8778 95.515 58.9312 95.515 55.9409V44.6568H92.0735V56.0538C92.0735 60.6803 94.8442 63.8116 100.502 63.8116Z" fill="#FAFAFA"/>
<path d="M119.686 63.8116C124.936 63.8116 127.211 61.1317 127.211 58.0003C127.211 50.9759 115.895 53.1481 115.895 49.65C115.895 48.2395 117.178 47.3086 119.19 47.3086C121.232 47.3086 123.303 47.9856 124.819 49.4526L126.773 46.9983C124.965 45.3056 122.515 44.3747 119.482 44.3747C115.224 44.3747 112.395 46.7726 112.395 49.8757C112.395 56.8155 123.74 54.3612 123.74 58.3106C123.74 59.5519 122.632 60.8778 119.832 60.8778C117.119 60.8778 115.02 59.6647 113.678 58.2824L111.782 60.8213C113.503 62.5986 116.099 63.8116 119.686 63.8116Z" fill="#FAFAFA"/>
<path d="M133.766 63.4731V44.6568H130.353V63.4731H133.766Z" fill="#FAFAFA"/>
<path d="M154.759 63.4731V44.6568H151.347V57.7182L141.401 44.6568H137.901V63.4731H141.314V50.045L151.463 63.4731H154.759Z" fill="#FAFAFA"/>
<path d="M172.221 63.4731V60.5675H162.305V55.3485H172.017V52.4429H162.305V47.5625H172.221V44.6568H158.892V63.4731H172.221Z" fill="#FAFAFA"/>
<path d="M182.375 63.8116C187.625 63.8116 189.9 61.1317 189.9 58.0003C189.9 50.9759 178.584 53.1481 178.584 49.65C178.584 48.2395 179.867 47.3086 181.879 47.3086C183.921 47.3086 185.992 47.9856 187.508 49.4526L189.462 46.9983C187.654 45.3056 185.204 44.3747 182.171 44.3747C177.913 44.3747 175.084 46.7726 175.084 49.8757C175.084 56.8155 186.429 54.3612 186.429 58.3106C186.429 59.5519 185.321 60.8778 182.521 60.8778C179.809 60.8778 177.709 59.6647 176.367 58.2824L174.471 60.8213C176.192 62.5986 178.788 63.8116 182.375 63.8116Z" fill="#FAFAFA"/>
<path d="M199.692 63.8116C204.942 63.8116 207.217 61.1317 207.217 58.0003C207.217 50.9759 195.901 53.1481 195.901 49.65C195.901 48.2395 197.184 47.3086 199.196 47.3086C201.238 47.3086 203.309 47.9856 204.825 49.4526L206.779 46.9983C204.971 45.3056 202.521 44.3747 199.488 44.3747C195.23 44.3747 192.401 46.7726 192.401 49.8757C192.401 56.8155 203.746 54.3612 203.746 58.3106C203.746 59.5519 202.638 60.8778 199.838 60.8778C197.126 60.8778 195.026 59.6647 193.684 58.2824L191.788 60.8213C193.509 62.5986 196.105 63.8116 199.692 63.8116Z" fill="#FAFAFA"/>
<path fill-rule="evenodd" clip-rule="evenodd" d="M15.1444 20.7222L11.7966 25.1622C10.1492 27.3822 10.6275 31.3576 12.9125 32.9581L19.13 37.2949C20.1928 38.0177 20.2991 38.7921 19.7677 39.5665L20.6711 40.2377L23.8064 36.0041C24.3004 35.4037 24.6644 34.7123 24.8763 33.9716C25.0882 33.231 25.1437 32.4563 25.0394 31.6943C24.9352 30.9322 24.6733 30.1985 24.2696 29.5374C23.866 28.8762 23.3288 28.3012 22.6904 27.8469L16.473 23.4585C16.1412 23.2222 15.9132 22.8731 15.8344 22.4809C15.7556 22.0886 15.8318 21.6819 16.0478 21.3417L15.1444 20.7222Z" fill="#FAFAFA"/>
<path fill-rule="evenodd" clip-rule="evenodd" d="M20.4589 0L15.2511 6.96982C12.8066 10.2224 13.7101 15.7983 17.0048 18.1732L25.5605 24.2653C27.3141 25.5044 27.5267 28.6537 26.2513 30.2542L26.9953 30.7705L32.894 22.7165C35.551 19.1025 35.3916 13.7848 31.2466 10.842L22.1064 4.44005C21.7744 4.25281 21.4864 4.0001 21.261 3.69819C21.0356 3.39628 20.8778 3.05185 20.7977 2.6871C20.7176 2.32234 20.717 1.94533 20.796 1.58033C20.8749 1.21534 21.0317 0.870457 21.2561 0.567885L20.4589 0Z" fill="#FAFAFA"/>
<path fill-rule="evenodd" clip-rule="evenodd" d="M6.80188 45.7284H13.657L14.8793 49.7554H26.092L27.3142 45.7284H34.1694L33.266 42.734H7.65214L6.80188 45.7284Z" fill="#FAFAFA"/>
<path fill-rule="evenodd" clip-rule="evenodd" d="M12.7006 62.3534C12.3818 60.4432 11.5847 59.9785 9.99046 59.3073C10.5838 59.0216 11.0827 58.5797 11.4303 58.0321C11.7779 57.4845 11.9603 56.853 11.9567 56.2096C11.9567 53.4217 9.61847 52.3375 7.06772 52.3375H0V67H7.06776C10.0436 67 13.232 65.7093 12.7006 62.3534ZM3.18844 55.1255H6.90825C7.1265 55.1059 7.34656 55.1294 7.55519 55.1947C7.76383 55.2599 7.95672 55.3654 8.12225 55.505C8.28777 55.6446 8.42252 55.8153 8.51836 56.0068C8.6142 56.1983 8.66916 56.4066 8.67992 56.6193C8.69069 56.832 8.65704 57.0446 8.581 57.2443C8.50497 57.444 8.38811 57.6267 8.23748 57.7813C8.08685 57.936 7.90555 58.0595 7.70451 58.1443C7.50347 58.2291 7.28684 58.2735 7.06768 58.2748H3.18844V55.1255ZM7.33343 64.2121H3.18844V60.8562H7.33343C10.3624 60.8562 10.1499 64.2121 7.33343 64.2121Z" fill="#FAFAFA"/>
<path fill-rule="evenodd" clip-rule="evenodd" d="M26.8364 62.3534C26.5175 60.4432 25.7204 59.9785 24.1262 59.3073C24.7196 59.0216 25.2184 58.5797 25.566 58.0321C25.9136 57.4845 26.096 56.853 26.0924 56.2096C26.0924 53.4217 23.7542 52.3375 21.2035 52.3375H14.0826V67H21.1503C24.1794 67 27.3678 65.7093 26.8364 62.3534ZM17.3242 55.1255H21.044C21.2623 55.1059 21.4824 55.1294 21.691 55.1947C21.8996 55.2599 22.0925 55.3654 22.258 55.505C22.4236 55.6446 22.5583 55.8153 22.6542 56.0068C22.75 56.1983 22.8049 56.4066 22.8157 56.6193C22.8265 56.832 22.7928 57.0446 22.7168 57.2443C22.6408 57.444 22.5239 57.6267 22.3733 57.7813C22.2226 57.936 22.0413 58.0595 21.8403 58.1443C21.6393 58.2291 21.4226 58.2735 21.2035 58.2748H17.3773V55.1255H17.3242ZM21.4692 64.2121H17.3242V60.8562H21.4692C24.4982 60.8562 24.2856 64.2121 21.4692 64.2121Z" fill="#FAFAFA"/>
<path fill-rule="evenodd" clip-rule="evenodd" d="M40.9706 62.3534C40.6518 60.4432 39.8547 59.9785 38.2604 59.3073C38.8538 59.0216 39.3527 58.5797 39.7003 58.0321C40.0479 57.4845 40.2302 56.853 40.2267 56.2096C40.2267 53.4217 37.8885 52.3375 35.3377 52.3375H28.2168V67H35.2846C38.2605 67 41.4489 65.7093 40.9706 62.3534ZM31.4584 55.1255H35.1783C35.3965 55.1059 35.6166 55.1294 35.8252 55.1947C36.0339 55.2599 36.2267 55.3654 36.3923 55.505C36.5578 55.6446 36.6925 55.8153 36.7884 56.0068C36.8842 56.1983 36.9392 56.4066 36.95 56.6193C36.9607 56.832 36.9271 57.0446 36.851 57.2443C36.775 57.444 36.6581 57.6267 36.5075 57.7813C36.3569 57.936 36.1756 58.0595 35.9745 58.1443C35.7735 58.2291 35.5569 58.2735 35.3377 58.2748H31.5116V55.1255H31.4584ZM35.5503 64.2121H31.4053V60.8562H35.5503C38.5793 60.8562 38.4199 64.2121 35.5503 64.2121Z" fill="#FAFAFA"/>
<path d="M39.1767 27.1841C43.3772 21.641 47.1567 15.8081 50.4854 9.73178L50.5265 9.68785C50.5265 9.68785 53.262 11.6083 54.078 12.3933C54.5685 12.8297 54.6087 12.9605 54.6087 13.3531C54.6087 15.1857 44.9742 41.3646 44.9742 41.3646C44.3619 40.9486 43.7882 40.4814 43.2598 39.9684C42.7729 39.4916 42.3225 38.9809 41.9121 38.4404L44.8104 28.6671C43.2598 28.755 40.8911 28.9298 39.8299 28.9298C34.1961 36.1284 28.1131 41.3646 27.7865 41.3646C26.6509 40.6552 25.6553 39.7537 24.8471 38.7031C25.0706 36.3159 25.4248 33.9419 25.9083 31.5913C25.9863 31.4262 26.0973 31.2779 26.2349 31.1549C26.6841 31.1549 29.909 34.0781 29.909 34.2958C29.909 34.5575 28.6025 38.2227 28.6025 38.2227C31.9849 35.3946 35.0754 32.2528 37.83 28.8419C36.4342 28.7034 35.0241 28.8069 33.6655 29.1475C32.3179 29.8016 32.1953 30.4568 31.9912 30.4568C31.746 30.4568 31.7058 28.4494 31.9912 28.0999C33.0123 26.6607 37.3808 27.4896 38.9314 27.4896L39.1767 27.1841ZM40.9735 27.4457L45.2596 27.1841L48.6895 15.7969C46.4499 19.8784 43.8692 23.7744 40.9735 27.4457Z" fill="#FAFAFA"/>
</svg>
