<svg width="138" height="35" viewBox="0 0 138 35" fill="none" xmlns="http://www.w3.org/2000/svg">
<path fill-rule="evenodd" clip-rule="evenodd" d="M6.87598 0.880841C11.7553 -0.275037 15.8175 -0.314357 20.6973 0.887676C22.0603 5.52708 23.2913 7.19392 27.5791 8.99607V18.4873C27.5791 25.1804 20.2755 34.041 13.7891 34.041C7.30084 34.0406 4.46921e-05 25.1834 0 18.4873V9.08982C4.20597 7.16521 5.57434 5.58564 6.87598 0.880841ZM20.0693 1.61424C15.6835 0.574168 11.8989 0.602858 7.51172 1.60838C6.28899 5.92256 4.66164 7.84601 0.805664 9.6533V18.4873C0.80571 24.7114 7.73597 33.1793 13.7891 33.1797C19.8403 33.1797 26.7734 24.7089 26.7734 18.4873V9.57908C22.8471 7.87903 21.3424 5.87589 20.0693 1.61424ZM8.43652 2.66209C12.089 1.87445 15.5023 1.85098 19.1543 2.66209C20.3481 6.42573 22.17 8.81656 25.6094 10.4287V18.5117C25.6091 24.0945 19.1644 31.9765 13.79 31.9765C8.41717 31.9764 1.97093 24.0975 1.9707 18.5117V10.4775C5.36697 8.78164 7.27564 6.47395 8.43652 2.66209ZM39.8613 19.3857C42.0133 19.3857 43.2581 20.6067 43.9463 21.873L42.1602 22.789C41.7502 21.9651 40.8716 21.3086 39.8613 21.3086C38.09 21.3087 36.8019 22.7279 36.8018 24.6504C36.8018 26.573 38.0899 27.992 39.8613 27.9922C40.8714 27.9922 41.7501 27.3518 42.1602 26.5127L43.9463 27.4131C43.2435 28.6795 42.0134 29.915 39.8613 29.915C36.9332 29.9149 34.6641 27.7785 34.6641 24.6504C34.6642 21.5225 36.9333 19.3858 39.8613 19.3857ZM49.8105 19.3857C52.768 19.3857 54.9198 21.5834 54.9199 24.6504C54.9199 27.7175 52.7681 29.915 49.8105 29.915C46.8677 29.915 44.7158 27.7175 44.7158 24.6504C44.716 21.5834 46.8678 19.3858 49.8105 19.3857ZM58.5166 19.5537L63.041 25.9482V19.5537H65.1201V29.7324H63.1143L58.458 23.0947V29.7324H56.3789V19.5537H58.5166ZM73.957 19.5537V21.4619H69.125V23.6133H73.8545V25.5205H69.125V29.7324H67.0449V19.5537H73.957ZM77.4883 19.5537V29.7324H75.4102V19.5537H77.4883ZM83.2783 19.5537C86.3381 19.5538 88.4608 21.5835 88.4609 24.6504C88.4609 27.7174 86.3382 29.7323 83.2783 29.7324H79.4277V19.5537H83.2783ZM96.8477 19.5537V21.4619H92.0156V23.6133H96.7451V25.5205H92.0156V27.8242H96.8477V29.7324H89.9365V19.5537H96.8477ZM100.61 19.5537L105.135 25.9482V19.5537H107.213V29.7324H105.207L100.552 23.0947V29.7324H98.4727V19.5537H100.61ZM116.328 19.5537V21.4619H113.487V29.7324H111.394V21.4619H108.539V19.5537H116.328ZM119.739 19.5537V29.7324H117.66V19.5537H119.739ZM127.022 19.5537L130.785 29.7324H128.413L127.812 28.0078H123.625L123.011 29.7324H120.639L124.416 19.5537H127.022ZM133.766 19.5537V27.8242H137.895V29.7324H131.687V19.5537H133.766ZM49.8105 21.3086C48.0098 21.3086 46.8536 22.7431 46.8535 24.6504C46.8535 26.5425 48.0097 27.9921 49.8105 27.9922C51.6114 27.9922 52.7832 26.5425 52.7832 24.6504C52.7831 22.7431 51.6113 21.3086 49.8105 21.3086ZM81.5068 21.4619V27.8242H83.2783C85.2108 27.8241 86.3379 26.3746 86.3379 24.6504C86.3378 22.85 85.2839 21.462 83.2783 21.4619H81.5068ZM124.196 26.1006H127.242L125.719 21.7207L124.196 26.1006ZM12.3428 20.3428L7.76953 16.4853L6.05859 18.7344L12.6348 24.334L21.9395 13.8232L19.8584 11.915L12.3428 20.3428ZM71.541 12.1689C72.2291 12.1689 72.8592 12.733 72.8594 13.7246C72.8594 14.869 72.2437 15.892 71.3506 16.5635L70.5459 15.8769C71.0143 15.6176 71.5556 14.9764 71.6729 14.4424C71.6286 14.4577 71.4968 14.4883 71.3945 14.4883C70.8385 14.488 70.3996 14.0454 70.3994 13.3896C70.3994 12.7184 70.9262 12.1691 71.541 12.1689ZM135.082 12.1689C135.77 12.1692 136.399 12.7332 136.399 13.7246C136.399 14.869 135.785 15.892 134.892 16.5635L134.086 15.8769C134.554 15.6176 135.096 14.9764 135.213 14.4424C135.169 14.4577 135.038 14.4882 134.936 14.4883C134.379 14.4883 133.94 14.0456 133.939 13.3896C133.939 12.7182 134.467 12.1689 135.082 12.1689ZM38.4854 4.14256C40.0373 4.14257 41.3257 4.63069 42.292 5.5615L41.1357 7.14842C40.3451 6.38545 39.2905 6.03416 38.2949 6.03416C37.4018 6.03418 36.9043 6.44626 36.9043 7.05662C36.9043 8.67411 42.5117 7.59102 42.5117 11.3906C42.5116 13.2521 41.2377 14.6562 38.6025 14.6562C36.7285 14.6562 35.3814 13.9994 34.4736 13.0381L35.6006 11.3906C36.2887 12.1383 37.3581 12.7637 38.7051 12.7637C39.8468 12.7636 40.4031 12.2145 40.4033 11.6347C40.4033 9.83421 34.7817 11.0697 34.7812 7.24022C34.7812 5.54642 36.1867 4.14256 38.4854 4.14256ZM81.5225 4.14256C83.0744 4.14257 84.3628 4.6307 85.3291 5.5615L84.1729 7.14842C83.3822 6.38545 82.3276 6.03416 81.332 6.03416C80.4389 6.03417 79.9414 6.44625 79.9414 7.05662C79.9414 8.67411 85.5488 7.59102 85.5488 11.3906C85.5487 13.2521 84.2748 14.6562 81.6396 14.6562C79.7656 14.6562 78.4185 13.9994 77.5107 13.0381L78.6377 11.3906C79.3258 12.1383 80.3952 12.7637 81.7422 12.7637C82.8839 12.7636 83.4402 12.2145 83.4404 11.6347C83.4404 9.83421 77.8188 11.0697 77.8184 7.24022C77.8184 5.54642 79.2238 4.14256 81.5225 4.14256ZM100.214 4.12693C102.366 4.12701 103.611 5.34775 104.299 6.61424L102.513 7.52928C102.103 6.7054 101.224 6.04987 100.214 6.04979C98.4423 6.04979 97.1533 7.4689 97.1533 9.39158C97.1534 11.3141 98.4424 12.7334 100.214 12.7334C101.224 12.7333 102.103 12.0921 102.513 11.2529L104.299 12.1533C103.596 13.4198 102.366 14.6562 100.214 14.6562C97.2857 14.6562 95.0158 12.5196 95.0156 9.39158C95.0156 6.26341 97.2856 4.12693 100.214 4.12693ZM107.645 4.2949V10.3379C107.645 11.7566 108.435 12.7332 109.942 12.7334C111.45 12.7334 112.226 11.7567 112.227 10.3379V4.2949H114.35V10.3984C114.35 12.9315 112.915 14.6562 109.942 14.6562C106.971 14.6561 105.536 12.9163 105.536 10.414V4.2949H107.645ZM49.1123 4.2949L52.875 14.4726H50.5039L49.9033 12.748H45.7158L45.1006 14.4726H42.7285L46.5068 4.2949H49.1123ZM60.6875 4.2949V6.20213H55.8564V8.3535H60.585V10.2607H55.8564V14.4726H53.7773V4.2949H60.6875ZM69.0518 4.2949V6.20213H64.2197V8.3535H68.9492V10.2607H64.2197V12.5654H69.0518V14.4726H62.1416V4.2949H69.0518ZM93.8594 4.2949V6.20213H89.0273V8.3535H93.7568V10.2607H89.0273V12.5654H93.8594V14.4726H86.9482V4.2949H93.8594ZM120.842 4.2949C122.877 4.2949 124.121 5.68314 124.121 7.57518C124.121 9.37578 123.038 10.3373 121.983 10.5967L124.18 14.4726H121.794L119.876 10.8564H118.353V14.4726H116.273V4.2949H120.842ZM132.593 4.2949V6.20213H127.761V8.3535H132.49V10.2607H127.761V12.5654H132.593V14.4726H125.682V4.2949H132.593ZM46.2871 10.8408H49.332L47.8096 6.46189L46.2871 10.8408ZM118.353 6.20213V8.9492H120.534C121.369 8.9492 121.998 8.4297 121.998 7.57518C121.998 6.7208 121.369 6.20213 120.534 6.20213H118.353Z" fill="#108823"/>
</svg>
