<svg width="55" height="68" viewBox="0 0 55 68" fill="none" xmlns="http://www.w3.org/2000/svg">
<path d="M41.4303 18.6055H6.49581C2.90827 18.6055 0 21.5055 0 25.0828V50.801C0 54.3783 2.90827 57.2783 6.49581 57.2783H41.4303C45.0178 57.2783 47.9261 54.3783 47.9261 50.801V25.0828C47.9261 21.5055 45.0178 18.6055 41.4303 18.6055Z" fill="url(#paint0_linear_1676_1489)"/>
<path d="M46.1949 30.5304C49.7806 30.5304 52.6907 33.429 52.6907 37.0077V60.8378C52.6907 64.4132 49.7806 67.3151 46.1949 67.3151H6.49581C2.91012 67.3151 0 64.4132 0 60.8378V26.1161C0 26.0708 0.0357269 26.0352 0.0811976 26.0352C0.120172 26.0352 0.152651 26.0611 0.162395 26.0999C0.162395 26.1129 0.168891 26.1258 0.172139 26.1388C0.20137 26.2521 0.233849 26.3655 0.269576 26.4789C1.00685 28.8269 3.20893 30.5337 5.81375 30.5337H46.1949V30.5304Z" fill="white" fill-opacity="0.22"/>
<path d="M46.1949 30.5304C49.7806 30.5304 52.6907 33.429 52.6907 37.0077V60.8378C52.6907 64.4132 49.7806 67.3151 46.1949 67.3151H6.49581C2.91012 67.3151 0 64.4132 0 60.8378V26.1161C0 26.0708 0.0357269 26.0352 0.0811976 26.0352C0.120172 26.0352 0.152651 26.0611 0.162395 26.0999C0.162395 26.1129 0.168891 26.1258 0.172139 26.1388C0.20137 26.2521 0.233849 26.3655 0.269576 26.4789C1.00685 28.8269 3.20893 30.5337 5.81375 30.5337H46.1949V30.5304Z" fill="#159C2A" fill-opacity="0.4"/>
<path d="M0.5 28.1357C1.62075 29.8777 3.58055 31.0331 5.81348 31.0332H46.3105C49.5682 31.0947 52.1904 33.7453 52.1904 37.0078V60.8379C52.1904 64.1357 49.506 66.8152 46.1953 66.8154H6.49609C3.18525 66.8154 0.500066 64.1358 0.5 60.8379V28.1357Z" stroke="white" stroke-opacity="0.54"/>
<path d="M35.9432 42.6719H51.7507C53.5436 42.6719 54.9986 44.1228 54.9986 45.9105V52.7732C54.9986 54.561 53.5436 56.0119 51.7507 56.0119H35.9919C32.4062 56.0119 29.4961 53.1101 29.4961 49.5346V49.1038C29.4961 45.5543 32.3867 42.6751 35.9432 42.6751V42.6719Z" fill="white" fill-opacity="0.34"/>
<g filter="url(#filter2_i_1676_1489)">
<path d="M37.268 52.6111C39.0815 52.6111 40.5516 51.1451 40.5516 49.3368C40.5516 47.5284 39.0815 46.0625 37.268 46.0625C35.4545 46.0625 33.9844 47.5284 33.9844 49.3368C33.9844 51.1451 35.4545 52.6111 37.268 52.6111Z" fill="url(#paint1_linear_1676_1489)" fill-opacity="0.44"/>
</g>
<path d="M43.7147 23.2422H5.17188V26.2639H43.7147V23.2422Z" fill="url(#paint2_linear_1676_1489)"/>
<path d="M24.4912 0.5C32.9037 0.5 39.7253 7.32774 39.7256 15.751C39.7256 19.5865 38.3122 23.0889 35.9766 25.7686H13.0068C10.6712 23.0889 9.25781 19.5865 9.25781 15.751C9.25808 7.32788 16.0789 0.500234 24.4912 0.5Z" fill="white" fill-opacity="0.22"/>
<path d="M24.4912 0.5C32.9037 0.5 39.7253 7.32774 39.7256 15.751C39.7256 19.5865 38.3122 23.0889 35.9766 25.7686H13.0068C10.6712 23.0889 9.25781 19.5865 9.25781 15.751C9.25808 7.32788 16.0789 0.500234 24.4912 0.5Z" fill="#159C2A" fill-opacity="0.4"/>
<path d="M24.4912 0.5C32.9037 0.5 39.7253 7.32774 39.7256 15.751C39.7256 19.5865 38.3122 23.0889 35.9766 25.7686H13.0068C10.6712 23.0889 9.25781 19.5865 9.25781 15.751C9.25808 7.32788 16.0789 0.500234 24.4912 0.5Z" stroke="url(#paint3_linear_1676_1489)"/>
<path d="M28.4588 18.3362C28.4588 18.9121 28.3221 19.4535 28.0489 19.9604C27.7866 20.4672 27.3931 20.8934 26.8684 21.239C26.3547 21.5846 25.7426 21.7919 25.0321 21.861V23.2606H23.9664V21.861C22.939 21.7574 22.1083 21.4175 21.4744 20.8416C20.8404 20.2656 20.5234 19.5054 20.5234 18.5608H22.5237C22.5565 19.0101 22.6931 19.3844 22.9335 19.6839C23.174 19.9719 23.5183 20.1562 23.9664 20.2368V16.4355C23.2341 16.2397 22.6384 16.0439 22.1794 15.8481C21.7203 15.6407 21.3268 15.3182 20.9989 14.8805C20.6819 14.4428 20.5234 13.8438 20.5234 13.0835C20.5234 12.1274 20.8404 11.3384 21.4744 10.7163C22.1083 10.0828 22.939 9.71418 23.9664 9.6105V8.21094H25.0321V9.6105C25.994 9.70266 26.7646 10.0252 27.3439 10.5781C27.9341 11.1195 28.2675 11.8682 28.344 12.8243H26.3438C26.311 12.4672 26.1798 12.1505 25.9503 11.874C25.7207 11.586 25.4147 11.3902 25.0321 11.2865V15.0187C25.7645 15.203 26.3602 15.3988 26.8192 15.6062C27.2783 15.802 27.6663 16.1188 27.9833 16.5565C28.3003 16.9827 28.4588 17.5759 28.4588 18.3362ZM22.4253 12.9798C22.4253 13.4521 22.5565 13.8207 22.8188 14.0857C23.092 14.3506 23.4746 14.5637 23.9664 14.725V11.2347C23.4965 11.2923 23.1194 11.4708 22.8352 11.7703C22.5619 12.0698 22.4253 12.473 22.4253 12.9798ZM25.0321 20.2368C25.5131 20.1562 25.8902 19.9546 26.1634 19.6321C26.4367 19.298 26.5733 18.9006 26.5733 18.4399C26.5733 17.9791 26.4367 17.622 26.1634 17.3686C25.9011 17.1037 25.524 16.8906 25.0321 16.7293V20.2368Z" fill="white"/>
<defs>
<filter id="filter2_i_1676_1489" x="32.9844" y="46.0625" width="7.56641" height="10.5469" filterUnits="userSpaceOnUse" color-interpolation-filters="sRGB">
<feFlood flood-opacity="0" result="BackgroundImageFix"/>
<feBlend mode="normal" in="SourceGraphic" in2="BackgroundImageFix" result="shape"/>
<feColorMatrix in="SourceAlpha" type="matrix" values="0 0 0 0 0 0 0 0 0 0 0 0 0 0 0 0 0 0 127 0" result="hardAlpha"/>
<feOffset dx="-1" dy="4"/>
<feGaussianBlur stdDeviation="2.5"/>
<feComposite in2="hardAlpha" operator="arithmetic" k2="-1" k3="1"/>
<feColorMatrix type="matrix" values="0 0 0 0 0.116494 0 0 0 0 0.504808 0 0 0 0 0.176898 0 0 0 0.5 0"/>
<feBlend mode="normal" in2="shape" result="effect1_innerShadow_1676_1489"/>
</filter>
<linearGradient id="paint0_linear_1676_1489" x1="23.963" y1="18.6055" x2="23.963" y2="57.2783" gradientUnits="userSpaceOnUse">
<stop stop-color="#159C2A"/>
<stop offset="1" stop-color="#106C1E"/>
</linearGradient>
<linearGradient id="paint1_linear_1676_1489" x1="40.4991" y1="45.9682" x2="35.8454" y2="52.6111" gradientUnits="userSpaceOnUse">
<stop stop-color="#106C1E" stop-opacity="0.5"/>
<stop offset="1" stop-color="#106C1E" stop-opacity="0.5"/>
</linearGradient>
<linearGradient id="paint2_linear_1676_1489" x1="24.4433" y1="26.2639" x2="24.4433" y2="23.2422" gradientUnits="userSpaceOnUse">
<stop stop-color="#0C4E16" stop-opacity="0.6"/>
<stop offset="1" stop-color="#159C2A" stop-opacity="0"/>
</linearGradient>
<linearGradient id="paint3_linear_1676_1489" x1="24.4916" y1="0" x2="24.4916" y2="26.2685" gradientUnits="userSpaceOnUse">
<stop stop-color="white"/>
<stop offset="1" stop-color="white" stop-opacity="0"/>
</linearGradient>
</defs>
</svg>
