<svg width="55" height="51" viewBox="0 0 55 51" fill="none" xmlns="http://www.w3.org/2000/svg">
<path d="M39.3318 21.5563C37.8362 21.5563 36.4019 20.9675 35.3444 19.9194C34.2869 18.8713 33.6927 17.4498 33.6927 15.9676C33.6927 14.4854 34.2869 13.0639 35.3444 12.0158C36.4019 10.9678 37.8362 10.379 39.3318 10.379C40.8274 10.379 42.2617 10.9678 43.3193 12.0158C44.3768 13.0639 44.9709 14.4854 44.9709 15.9676C44.9709 17.4498 44.3768 18.8713 43.3193 19.9194C42.2617 20.9675 40.8274 21.5563 39.3318 21.5563ZM51.3028 17.5165C51.3672 17.0055 51.4156 16.4946 51.4156 15.9676C51.4156 15.4407 51.3672 14.9138 51.3028 14.3709L54.7024 11.7681C55.0085 11.5286 55.089 11.0975 54.8957 10.7462L51.6734 5.22142C51.48 4.87013 51.045 4.72642 50.6906 4.87013L46.6787 6.46689C45.8409 5.84416 44.9709 5.30126 43.9559 4.90207L43.3597 0.670644C43.327 0.482572 43.2282 0.312054 43.0807 0.189302C42.9333 0.0665496 42.7467 -0.000510604 42.5542 2.92762e-06H36.1095C35.7067 2.92762e-06 35.3684 0.28742 35.3039 0.670644L34.7078 4.90207C33.6927 5.30126 32.8227 5.84416 31.9849 6.46689L27.9731 4.87013C27.6186 4.72642 27.1836 4.87013 26.9903 5.22142L23.768 10.7462C23.5585 11.0975 23.6552 11.5286 23.9613 11.7681L27.3609 14.3709C27.2964 14.9138 27.2481 15.4407 27.2481 15.9676C27.2481 16.4946 27.2964 17.0055 27.3609 17.5165L23.9613 20.1671C23.6552 20.4066 23.5585 20.8378 23.768 21.1891L26.9903 26.7139C27.1836 27.0651 27.6186 27.1929 27.9731 27.0651L31.9849 25.4524C32.8227 26.0911 33.6927 26.634 34.7078 27.0332L35.3039 31.2646C35.3684 31.6479 35.7067 31.9353 36.1095 31.9353H42.5542C42.957 31.9353 43.2953 31.6479 43.3597 31.2646L43.9559 27.0332C44.9709 26.618 45.8409 26.0911 46.6787 25.4524L50.6906 27.0651C51.045 27.1929 51.48 27.0651 51.6734 26.7139L54.8957 21.1891C55.089 20.8378 55.0085 20.4066 54.7024 20.1671L51.3028 17.5165Z" fill="#159C2A"/>
<path d="M39.3318 21.5563C37.8362 21.5563 36.4019 20.9675 35.3444 19.9194C34.2869 18.8713 33.6927 17.4498 33.6927 15.9676C33.6927 14.4854 34.2869 13.0639 35.3444 12.0158C36.4019 10.9678 37.8362 10.379 39.3318 10.379C40.8274 10.379 42.2617 10.9678 43.3193 12.0158C44.3768 13.0639 44.9709 14.4854 44.9709 15.9676C44.9709 17.4498 44.3768 18.8713 43.3193 19.9194C42.2617 20.9675 40.8274 21.5563 39.3318 21.5563ZM51.3028 17.5165C51.3672 17.0055 51.4156 16.4946 51.4156 15.9676C51.4156 15.4407 51.3672 14.9138 51.3028 14.3709L54.7024 11.7681C55.0085 11.5286 55.089 11.0975 54.8957 10.7462L51.6734 5.22142C51.48 4.87013 51.045 4.72642 50.6906 4.87013L46.6787 6.46689C45.8409 5.84416 44.9709 5.30126 43.9559 4.90207L43.3597 0.670644C43.327 0.482572 43.2282 0.312054 43.0807 0.189302C42.9333 0.0665496 42.7467 -0.000510604 42.5542 2.92762e-06H36.1095C35.7067 2.92762e-06 35.3684 0.28742 35.3039 0.670644L34.7078 4.90207C33.6927 5.30126 32.8227 5.84416 31.9849 6.46689L27.9731 4.87013C27.6186 4.72642 27.1836 4.87013 26.9903 5.22142L23.768 10.7462C23.5585 11.0975 23.6552 11.5286 23.9613 11.7681L27.3609 14.3709C27.2964 14.9138 27.2481 15.4407 27.2481 15.9676C27.2481 16.4946 27.2964 17.0055 27.3609 17.5165L23.9613 20.1671C23.6552 20.4066 23.5585 20.8378 23.768 21.1891L26.9903 26.7139C27.1836 27.0651 27.6186 27.1929 27.9731 27.0651L31.9849 25.4524C32.8227 26.0911 33.6927 26.634 34.7078 27.0332L35.3039 31.2646C35.3684 31.6479 35.7067 31.9353 36.1095 31.9353H42.5542C42.957 31.9353 43.2953 31.6479 43.3597 31.2646L43.9559 27.0332C44.9709 26.618 45.8409 26.0911 46.6787 25.4524L50.6906 27.0651C51.045 27.1929 51.48 27.0651 51.6734 26.7139L54.8957 21.1891C55.089 20.8378 55.0085 20.4066 54.7024 20.1671L51.3028 17.5165Z" fill="url(#paint0_linear_1676_1470)"/>
<path d="M31.8291 42.3809C32.5546 42.0544 33.2671 41.7068 33.9618 41.2829C34.6565 40.8591 35.3123 40.3718 35.9763 39.8505L42.1414 42.2172C42.7033 42.4262 43.3365 42.1851 43.6442 41.6488L48.3369 32.9767C48.6446 32.4404 48.4842 31.7541 48.0097 31.4046L42.6785 27.4254C42.8258 25.8252 42.842 24.2469 42.552 22.594L47.6514 18.408C47.873 18.2138 48.0183 17.9469 48.0616 17.6547C48.1049 17.3625 48.0433 17.0638 47.8877 16.8116L42.7054 8.35582C42.3815 7.82734 41.7304 7.61461 41.1734 7.83833L35.1153 10.46C33.7728 9.44936 32.3574 8.74455 30.8627 8.14624L29.7418 1.59807C29.6463 1.0174 29.107 0.562238 28.4884 0.591148L18.6133 0.807538C17.9817 0.815309 17.4911 1.28895 17.4214 1.88327L16.7237 8.43737C15.9561 8.78953 15.2226 9.14999 14.5279 9.57386C13.8331 9.99774 13.1984 10.4722 12.5765 10.9678L6.34823 8.63958C5.78629 8.43061 5.14016 8.65058 4.84545 9.20797L0.152743 17.8801C-0.154923 18.4164 0.0264705 19.0899 0.479915 19.4522L5.83217 23.4186C5.66381 25.0316 5.64768 26.6099 5.93761 28.2628L0.838273 32.4488C0.384855 32.8416 0.277998 33.5167 0.601897 34.0452L5.78428 42.501C6.10818 43.0295 6.75919 43.2422 7.31625 43.0185L13.3743 40.3968C14.7379 41.3946 16.1322 42.1122 17.648 42.6977L18.7478 49.2587C18.8644 49.8266 19.3827 50.2946 20.0013 50.2656L29.8764 50.0493C30.495 50.0204 30.9986 49.5679 31.0682 48.9735L31.8291 42.3809Z" fill="white" fill-opacity="0.22"/>
<path d="M31.8291 42.3809C32.5546 42.0544 33.2671 41.7068 33.9618 41.2829C34.6565 40.8591 35.3123 40.3718 35.9763 39.8505L42.1414 42.2172C42.7033 42.4262 43.3365 42.1851 43.6442 41.6488L48.3369 32.9767C48.6446 32.4404 48.4842 31.7541 48.0097 31.4046L42.6785 27.4254C42.8258 25.8252 42.842 24.2469 42.552 22.594L47.6514 18.408C47.873 18.2138 48.0183 17.9469 48.0616 17.6547C48.1049 17.3625 48.0433 17.0638 47.8877 16.8116L42.7054 8.35582C42.3815 7.82734 41.7304 7.61461 41.1734 7.83833L35.1153 10.46C33.7728 9.44936 32.3574 8.74455 30.8627 8.14624L29.7418 1.59807C29.6463 1.0174 29.107 0.562238 28.4884 0.591148L18.6133 0.807538C17.9817 0.815309 17.4911 1.28895 17.4214 1.88327L16.7237 8.43737C15.9561 8.78953 15.2226 9.14999 14.5279 9.57386C13.8331 9.99774 13.1984 10.4722 12.5765 10.9678L6.34823 8.63958C5.78629 8.43061 5.14016 8.65058 4.84545 9.20797L0.152743 17.8801C-0.154923 18.4164 0.0264705 19.0899 0.479915 19.4522L5.83217 23.4186C5.66381 25.0316 5.64768 26.6099 5.93761 28.2628L0.838273 32.4488C0.384855 32.8416 0.277998 33.5167 0.601897 34.0452L5.78428 42.501C6.10818 43.0295 6.75919 43.2422 7.31625 43.0185L13.3743 40.3968C14.7379 41.3946 16.1322 42.1122 17.648 42.6977L18.7478 49.2587C18.8644 49.8266 19.3827 50.2946 20.0013 50.2656L29.8764 50.0493C30.495 50.0204 30.9986 49.5679 31.0682 48.9735L31.8291 42.3809Z" fill="#159C2A" fill-opacity="0.4"/>
<path d="M31.9349 30.1408C31.9349 31.2498 31.6702 32.2923 31.1407 33.2682C30.6324 34.2442 29.8699 35.0648 28.8533 35.7302C27.8579 36.3956 26.6718 36.7949 25.2951 36.9279V39.6228H23.2301V36.9279C21.2393 36.7283 19.6296 36.074 18.4012 34.965C17.1728 33.856 16.5586 32.3921 16.5586 30.5733H20.4344C20.498 31.4384 20.7627 32.1592 21.2287 32.7359C21.6946 33.2904 22.3618 33.6453 23.2301 33.8005V26.4811C21.8111 26.1041 20.6568 25.727 19.7673 25.3499C18.8777 24.9507 18.1153 24.3296 17.4799 23.4868C16.8657 22.644 16.5586 21.4906 16.5586 20.0267C16.5586 18.1858 17.1728 16.6664 18.4012 15.4687C19.6296 14.2488 21.2393 13.539 23.2301 13.3394V10.6445H25.2951V13.3394C27.1589 13.5169 28.6521 14.1379 29.7746 15.2025C30.9183 16.245 31.5643 17.6867 31.7125 19.5277H27.8367C27.7731 18.8401 27.519 18.2301 27.0742 17.6978C26.6294 17.1433 26.0364 16.7662 25.2951 16.5666V23.753C26.7142 24.1078 27.8684 24.4849 28.758 24.8842C29.6475 25.2612 30.3994 25.8712 31.0136 26.714C31.6278 27.5347 31.9349 28.6769 31.9349 30.1408ZM20.2438 19.8271C20.2438 20.7365 20.498 21.4462 21.0063 21.9564C21.5358 22.4665 22.2771 22.8769 23.2301 23.1874V16.4668C22.3194 16.5777 21.5887 16.9215 21.0381 17.4982C20.5086 18.0749 20.2438 18.8512 20.2438 19.8271ZM25.2951 33.8005C26.227 33.6453 26.9577 33.2571 27.4872 32.6361C28.0167 31.9929 28.2814 31.2277 28.2814 30.3405C28.2814 29.4533 28.0167 28.7657 27.4872 28.2777C26.9789 27.7676 26.2482 27.3572 25.2951 27.0467V33.8005Z" fill="white"/>
<defs>
<linearGradient id="paint0_linear_1676_1470" x1="39.3283" y1="0" x2="39.3283" y2="31.9353" gradientUnits="userSpaceOnUse">
<stop stop-color="#159C2A"/>
<stop offset="1" stop-color="#106C1E"/>
</linearGradient>
</defs>
</svg>
