<svg width="151" height="66" viewBox="0 0 151 66" fill="none" xmlns="http://www.w3.org/2000/svg">
<path d="M86.2196 58.4936L84.0298 54.8984L81.5273 58.4936H77.7734L81.0589 61.7186L80.276 65.5734L84.0298 63.7943L87.7837 65.5734L86.8452 61.7186L89.9734 58.4936H86.2196Z" fill="#FAFAFA"/>
<path d="M99.9461 58.4936L97.7564 54.8984L95.2538 58.4936H91.5L94.7854 61.7186L94.0026 65.5734L97.7564 63.7943L101.51 65.5734L100.572 61.7186L103.7 58.4936H99.9461Z" fill="#FAFAFA"/>
<path d="M113.673 58.4936L111.483 54.8984L108.98 58.4936H105.227L108.512 61.7186L107.729 65.5734L111.483 63.7943L115.237 65.5734L114.298 61.7186L117.427 58.4936H113.673Z" fill="#FAFAFA"/>
<path d="M128.923 58.4936L126.733 54.8984L124.23 58.4936H120.477L123.762 61.7186L122.979 65.5734L126.733 63.7943L130.487 65.5734L129.548 61.7186L132.677 58.4936H128.923Z" fill="#FAFAFA"/>
<path d="M142.645 58.4936L140.456 54.8984L137.953 58.4936H134.199L137.485 61.7186L136.702 65.5734L140.456 63.7943L144.209 65.5734L143.271 61.7186L146.399 58.4936H142.645Z" fill="#FAFAFA"/>
<path d="M146.095 32.303L150.286 35.217C148.934 37.3047 145.674 40.9014 140.043 40.9014C133.059 40.9014 127.844 35.269 127.844 28.0756C127.844 20.4483 133.104 15.25 139.439 15.25C145.818 15.25 148.939 20.5466 149.959 23.4092L150.519 24.8664L134.085 31.9676C135.343 34.5404 137.3 35.8532 140.043 35.8532C142.793 35.8532 144.699 34.4421 146.095 32.303ZM133.198 27.6882L144.184 22.9291C143.579 21.3273 141.762 20.2111 139.622 20.2111C136.879 20.2111 133.059 22.7382 133.198 27.6882Z" fill="#FAFAFA"/>
<path d="M125.742 3.05078V40.638H120.477V3.05078H125.742Z" fill="#FAFAFA"/>
<path d="M116.59 16.0251V39.0517C116.59 48.5239 111.236 52.3923 104.906 52.3923C98.9483 52.3923 95.3624 48.2345 94.0098 44.8344L98.7101 42.7926C99.5468 44.8803 101.598 47.3437 104.901 47.3437C108.953 47.3437 111.464 44.7359 111.464 39.8262V37.9817H111.275C110.067 39.537 107.738 40.8957 104.802 40.8957C98.6548 40.8957 93.0234 35.3096 93.0234 28.1219C93.0234 20.8824 98.6548 15.25 104.802 15.25C107.733 15.25 110.061 16.6089 111.275 18.1181H111.464V16.0306H116.59L116.59 16.0251ZM111.845 28.1223C111.845 23.6063 108.958 20.3045 105.283 20.3045C101.559 20.3045 98.4382 23.6063 98.4382 28.1223C98.4382 32.5926 101.559 35.8481 105.283 35.8481C108.958 35.8481 111.845 32.5926 111.845 28.1223Z" fill="#FAFAFA"/>
<path d="M63.5003 28.0756C63.5003 35.4603 57.9633 40.9014 51.1682 40.9014C44.3731 40.9014 38.8359 35.4605 38.8359 28.0756C38.8359 20.6392 44.3731 15.25 51.1682 15.25C57.9633 15.25 63.5003 20.6394 63.5003 28.0756ZM58.1019 28.0756C58.1019 23.4614 54.8929 20.3041 51.1682 20.3041C47.4435 20.3041 44.2345 23.4614 44.2345 28.0756C44.2345 32.6442 47.4435 35.8477 51.1682 35.8477C54.8929 35.8477 58.1019 32.6385 58.1019 28.0756Z" fill="#FAFAFA"/>
<path d="M90.2386 28.0756C90.2386 35.4603 84.7016 40.9014 77.9065 40.9014C71.1114 40.9014 65.5742 35.4605 65.5742 28.0756C65.5742 20.6392 71.1114 15.25 77.9065 15.25C84.7016 15.25 90.2386 20.6394 90.2386 28.0756ZM84.8402 28.0756C84.8402 23.4614 81.6312 20.3041 77.9065 20.3041C74.1818 20.3041 70.9728 23.4614 70.9728 28.0756C70.9728 32.6442 74.1818 35.8477 77.9065 35.8477C81.6312 35.8477 84.8402 32.6385 84.8402 28.0756Z" fill="#FAFAFA"/>
<path d="M19.3603 23.674V18.2326H36.9357C37.1075 19.1809 37.1965 20.3029 37.1965 21.5172C37.1965 25.5996 36.1266 30.6482 32.679 34.2443C29.3256 37.8877 25.0413 39.8305 19.3658 39.8305C8.84596 39.8305 0 30.8911 0 19.9154C0 8.93995 8.84596 0 19.3658 0C25.1854 0 29.3313 2.38216 32.4462 5.48764L28.7661 9.3274C26.5324 7.1414 23.5063 5.44134 19.3603 5.44134C11.6785 5.44134 5.6701 11.9006 5.6701 19.9154C5.6701 27.9298 11.6785 34.3889 19.3603 34.3889C24.343 34.3889 27.1808 32.3018 28.9988 30.4048C30.473 28.8672 31.4431 26.6692 31.8253 23.6681L19.3603 23.674Z" fill="#FAFAFA"/>
<path d="M19.3603 23.674V18.2326H36.9357C37.1075 19.1809 37.1965 20.3029 37.1965 21.5172C37.1965 25.5996 36.1266 30.6482 32.679 34.2443C29.3256 37.8877 25.0413 39.8305 19.3658 39.8305C8.84596 39.8305 0 30.8911 0 19.9154C0 8.93995 8.84596 0 19.3658 0C25.1854 0 29.3313 2.38216 32.4462 5.48764L28.7661 9.3274C26.5324 7.1414 23.5063 5.44134 19.3603 5.44134C11.6785 5.44134 5.6701 11.9006 5.6701 19.9154C5.6701 27.9298 11.6785 34.3889 19.3603 34.3889C24.343 34.3889 27.1808 32.3018 28.9988 30.4048C30.473 28.8672 31.4431 26.6692 31.8253 23.6681L19.3603 23.674Z" fill="#FAFAFA"/>
<path d="M7.625 65.3133V53.604H11.7617C12.4869 53.604 13.1352 53.7566 13.7065 54.0619C14.2778 54.3671 14.7283 54.7869 15.0579 55.3211C15.3986 55.8553 15.5689 56.4768 15.5689 57.1855C15.5689 57.6543 15.47 58.1013 15.2722 58.5265C15.0854 58.9517 14.8107 59.3333 14.4482 59.6712C14.0966 59.9983 13.6626 60.2545 13.1461 60.4399C12.6407 60.6252 12.0694 60.7179 11.4321 60.7179H8.61386V59.0661H11.7123C12.0859 59.0661 12.421 58.9844 12.7176 58.8208C13.0253 58.6573 13.2725 58.4338 13.4593 58.1503C13.6461 57.856 13.7395 57.5289 13.7395 57.1691C13.7395 56.8529 13.6626 56.5531 13.5087 56.2696C13.3549 55.9753 13.1297 55.7409 12.833 55.5664C12.5473 55.3811 12.1957 55.2884 11.7782 55.2884H9.43791V65.3133H7.625ZM10.3609 59.9656L12.421 59.9329L16.1127 65.2152V65.3133H14.0196L10.3609 59.9656Z" fill="#FAFAFA"/>
<path d="M21.3081 65.575C20.4841 65.575 19.7479 65.3842 19.0997 65.0026C18.4514 64.621 17.9405 64.0977 17.5669 63.4326C17.2043 62.7676 17.0231 62.0098 17.0231 61.1594C17.0231 60.3636 17.1989 59.6276 17.5504 58.9517C17.902 58.2757 18.391 57.736 19.0173 57.3326C19.6545 56.9183 20.3852 56.7112 21.2092 56.7112C22.0772 56.7112 22.8134 56.8965 23.4177 57.2672C24.033 57.6379 24.5 58.1449 24.8186 58.7881C25.1372 59.4314 25.2965 60.1564 25.2965 60.9632C25.2965 61.0831 25.291 61.1922 25.2801 61.2903C25.2801 61.3884 25.2746 61.4647 25.2636 61.5192H18.0284V60.1946H23.5331C23.5221 59.9874 23.4671 59.7694 23.3683 59.5404C23.2694 59.3006 23.1265 59.0825 22.9397 58.8863C22.753 58.69 22.5167 58.5319 22.2311 58.412C21.9454 58.2812 21.6103 58.2157 21.2257 58.2157C20.7423 58.2157 20.3138 58.3411 19.9402 58.5919C19.5666 58.8317 19.2755 59.1697 19.0667 59.6058C18.8579 60.0419 18.7536 60.5489 18.7536 61.1267C18.7536 61.7591 18.8744 62.2879 19.1161 62.7131C19.3579 63.1383 19.6765 63.4599 20.072 63.6779C20.4676 63.896 20.8961 64.005 21.3576 64.005C21.9179 64.005 22.3849 63.8796 22.7585 63.6289C23.143 63.3672 23.4452 63.0456 23.6649 62.664L25.1317 63.3672C24.7691 64.0214 24.2747 64.5556 23.6484 64.9699C23.0222 65.3733 22.2421 65.575 21.3081 65.575Z" fill="#FAFAFA"/>
<path d="M29.228 65.3133L25.7505 56.9729H27.7283L30.0851 63.0401H30.1675L32.5737 56.9729H34.5184L31.008 65.3133H29.228Z" fill="#FAFAFA"/>
<path d="M35.6068 65.3133V56.9729H37.3868V65.3133H35.6068ZM36.4968 55.7463C36.1672 55.7463 35.8815 55.6318 35.6398 55.4029C35.4091 55.163 35.2937 54.8796 35.2937 54.5525C35.2937 54.2145 35.4091 53.9365 35.6398 53.7184C35.8815 53.4895 36.1672 53.375 36.4968 53.375C36.8374 53.375 37.1231 53.4895 37.3538 53.7184C37.5846 53.9365 37.6999 54.2145 37.6999 54.5525C37.6999 54.8796 37.5846 55.163 37.3538 55.4029C37.1231 55.6318 36.8374 55.7463 36.4968 55.7463Z" fill="#FAFAFA"/>
<path d="M43.2936 65.575C42.4695 65.575 41.7334 65.3842 41.0851 65.0026C40.4369 64.621 39.9259 64.0977 39.5524 63.4326C39.1898 62.7676 39.0085 62.0098 39.0085 61.1594C39.0085 60.3636 39.1843 59.6276 39.5359 58.9517C39.8875 58.2757 40.3764 57.736 41.0027 57.3326C41.64 56.9183 42.3706 56.7112 43.1947 56.7112C44.0627 56.7112 44.7988 56.8965 45.4031 57.2672C46.0184 57.6379 46.4854 58.1449 46.804 58.7881C47.1227 59.4314 47.282 60.1564 47.282 60.9632C47.282 61.0831 47.2765 61.1922 47.2655 61.2903C47.2655 61.3884 47.26 61.4647 47.249 61.5192H40.0138V60.1946H45.5185C45.5075 59.9874 45.4526 59.7694 45.3537 59.5404C45.2548 59.3006 45.112 59.0825 44.9252 58.8863C44.7384 58.69 44.5022 58.5319 44.2165 58.412C43.9308 58.2812 43.5957 58.2157 43.2112 58.2157C42.7277 58.2157 42.2992 58.3411 41.9256 58.5919C41.5521 58.8317 41.2609 59.1697 41.0522 59.6058C40.8434 60.0419 40.739 60.5489 40.739 61.1267C40.739 61.7591 40.8599 62.2879 41.1016 62.7131C41.3433 63.1383 41.662 63.4599 42.0575 63.6779C42.453 63.896 42.8815 64.005 43.343 64.005C43.9034 64.005 44.3703 63.8796 44.7439 63.6289C45.1285 63.3672 45.4306 63.0456 45.6504 62.664L47.1172 63.3672C46.7546 64.0214 46.2602 64.5556 45.6339 64.9699C45.0076 65.3733 44.2275 65.575 43.2936 65.575Z" fill="#FAFAFA"/>
<path d="M50.6485 65.3133L47.9621 56.9729H49.8904L51.6209 62.9747H51.6868L53.5821 56.9729H55.4115L57.3068 62.9747H57.3728L59.1033 56.9729H60.9986L58.2957 65.3133H56.4333L54.4886 59.2787H54.4227L52.4944 65.3133H50.6485Z" fill="#FAFAFA"/>
<path d="M65.1804 65.575C64.5102 65.575 63.9278 65.4769 63.4334 65.2806C62.939 65.0735 62.5324 64.8009 62.2138 64.4629C61.8952 64.114 61.6589 63.7379 61.5051 63.3345L63.1038 62.6476C63.3016 63.0947 63.5817 63.4381 63.9443 63.6779C64.3179 63.9069 64.7464 64.0214 65.2298 64.0214C65.6693 64.0214 66.0484 63.9451 66.367 63.7924C66.6857 63.6289 66.845 63.3672 66.845 63.0074C66.845 62.7785 66.7681 62.5931 66.6142 62.4514C66.4714 62.2988 66.2736 62.1734 66.0209 62.0753C65.7792 61.9771 65.499 61.8899 65.1804 61.8136L64.1751 61.5846C63.7795 61.4865 63.4004 61.3339 63.0379 61.1267C62.6863 60.9087 62.4006 60.6361 62.1808 60.309C61.9611 59.982 61.8512 59.5949 61.8512 59.1479C61.8512 58.6464 61.9941 58.2157 62.2797 57.856C62.5764 57.4853 62.9719 57.2018 63.4664 57.0056C63.9608 56.8093 64.4937 56.7112 65.065 56.7112C65.5924 56.7112 66.0704 56.7821 66.4989 56.9238C66.9384 57.0546 67.3174 57.2563 67.6361 57.5289C67.9657 57.7905 68.2239 58.1176 68.4107 58.5101L66.8779 59.197C66.6912 58.8263 66.4384 58.5701 66.1198 58.4283C65.8012 58.2757 65.4551 58.1994 65.0815 58.1994C64.664 58.1994 64.3124 58.2866 64.0267 58.4611C63.752 58.6246 63.6147 58.8426 63.6147 59.1152C63.6147 59.3987 63.7356 59.6222 63.9773 59.7857C64.23 59.9493 64.5376 60.0801 64.9002 60.1782L66.1198 60.4726C66.9548 60.6797 67.5811 60.9959 67.9986 61.4211C68.4162 61.8354 68.6249 62.3424 68.6249 62.942C68.6249 63.4762 68.4711 63.9451 68.1635 64.3484C67.8558 64.7409 67.4383 65.0462 66.9109 65.2643C66.3945 65.4714 65.8177 65.575 65.1804 65.575Z" fill="#FAFAFA"/>
</svg>
