<svg width="41" height="28" viewBox="0 0 41 28" fill="none" xmlns="http://www.w3.org/2000/svg">
<path d="M11.75 14.6158V16.103C11.75 20.5098 15.3217 24.0821 19.7278 24.0821H30.8566C34.3644 27.5639 37.3596 27.7731 37.3596 27.7731C36.3548 26.9096 36.0863 24.4023 36.0156 23.2788C38.6708 21.9833 40.5 19.2569 40.5 16.103V14.6158C40.5 10.209 36.9283 6.63672 32.523 6.63672L19.7278 6.63672C15.3217 6.63672 11.75 10.209 11.75 14.6158Z" fill="url(#paint0_linear_1839_1680)"/>
<path d="M35.1591 10.1521V11.9511C35.1591 17.2819 30.8533 21.6033 25.5416 21.6033H12.1255C7.89669 25.8151 4.28591 26.0681 4.28591 26.0681C5.49714 25.0237 5.82081 21.9907 5.90608 20.6315C2.70516 19.0644 0.5 15.7664 0.5 11.9511V10.1521C0.5 4.82133 4.80579 0.5 10.1165 0.5L25.5416 0.5C30.8533 0.5 35.1591 4.82133 35.1591 10.1521Z" fill="#1FBE38" fill-opacity="0.25"/>
<path d="M35.1591 10.1521V11.9511C35.1591 17.2819 30.8533 21.6033 25.5416 21.6033H12.1255C7.89669 25.8151 4.28591 26.0681 4.28591 26.0681C5.49714 25.0237 5.82081 21.9907 5.90608 20.6315C2.70516 19.0644 0.5 15.7664 0.5 11.9511V10.1521C0.5 4.82133 4.80579 0.5 10.1165 0.5L25.5416 0.5C30.8533 0.5 35.1591 4.82133 35.1591 10.1521Z" fill="white" fill-opacity="0.16"/>
<path d="M35.1591 10.1521V11.9511C35.1591 17.2819 30.8533 21.6033 25.5416 21.6033H12.1255C7.89669 25.8151 4.28591 26.0681 4.28591 26.0681C5.49714 25.0237 5.82081 21.9907 5.90608 20.6315C2.70516 19.0644 0.5 15.7664 0.5 11.9511V10.1521C0.5 4.82133 4.80579 0.5 10.1165 0.5L25.5416 0.5C30.8533 0.5 35.1591 4.82133 35.1591 10.1521Z" stroke="url(#paint1_linear_1839_1680)" stroke-opacity="0.54" stroke-miterlimit="10"/>
<ellipse cx="11.071" cy="11.2937" rx="1.47727" ry="1.47727" fill="white"/>
<ellipse cx="17.8835" cy="11.2937" rx="1.47727" ry="1.47727" fill="white"/>
<ellipse cx="24.647" cy="11.2937" rx="1.42045" ry="1.47727" fill="white"/>
<defs>
<linearGradient id="paint0_linear_1839_1680" x1="26.125" y1="6.63672" x2="26.125" y2="27.7731" gradientUnits="userSpaceOnUse">
<stop stop-color="#159C2A"/>
<stop offset="1" stop-color="#106C1E"/>
</linearGradient>
<linearGradient id="paint1_linear_1839_1680" x1="32.0175" y1="5.69188" x2="13.3756" y2="28.6556" gradientUnits="userSpaceOnUse">
<stop stop-color="white"/>
<stop offset="0.5" stop-color="white" stop-opacity="0"/>
<stop offset="1" stop-color="white" stop-opacity="0.6"/>
</linearGradient>
</defs>
</svg>
