<svg width="32" height="32" viewBox="0 0 32 32" fill="none" xmlns="http://www.w3.org/2000/svg">
<circle cx="16" cy="16" r="16" fill="#D9D9D9"/>
<circle cx="16" cy="16" r="16" fill="url(#paint0_linear_1839_1674)"/>
<path d="M15.9793 30.1815C23.8983 30.1815 30.3179 23.7618 30.3179 15.8427C30.3179 7.92361 23.8983 1.50391 15.9793 1.50391C8.06026 1.50391 1.64062 7.92361 1.64062 15.8427C1.64062 23.7618 8.06026 30.1815 15.9793 30.1815Z" fill="#1FBE38" fill-opacity="0.25"/>
<path d="M15.9793 30.1815C23.8983 30.1815 30.3179 23.7618 30.3179 15.8427C30.3179 7.92361 23.8983 1.50391 15.9793 1.50391C8.06026 1.50391 1.64062 7.92361 1.64062 15.8427C1.64062 23.7618 8.06026 30.1815 15.9793 30.1815Z" fill="white" fill-opacity="0.16"/>
<path d="M15.9793 30.1815C23.8983 30.1815 30.3179 23.7618 30.3179 15.8427C30.3179 7.92361 23.8983 1.50391 15.9793 1.50391C8.06026 1.50391 1.64062 7.92361 1.64062 15.8427C1.64062 23.7618 8.06026 30.1815 15.9793 30.1815Z" stroke="url(#paint1_linear_1839_1674)" stroke-opacity="0.54" stroke-width="0.85" stroke-miterlimit="10"/>
<path d="M21.2961 21.8617C19.9029 21.8617 18.5264 21.5581 17.1667 20.9509C15.8069 20.3437 14.5697 19.4825 13.4551 18.3675C12.3406 17.2525 11.4797 16.0153 10.8724 14.6559C10.2652 13.2966 9.96138 11.9201 9.96094 10.5264C9.96094 10.3258 10.0278 10.1586 10.1616 10.0248C10.2953 9.89109 10.4625 9.82422 10.6631 9.82422H13.3715C13.5276 9.82422 13.6669 9.87727 13.7895 9.98338C13.9121 10.0895 13.9845 10.2148 14.0068 10.3592L14.4415 12.6998C14.4638 12.8782 14.4582 13.0287 14.4248 13.1513C14.3914 13.2739 14.3301 13.3797 14.2409 13.4689L12.6192 15.1074C12.8421 15.5197 13.1067 15.9181 13.413 16.3024C13.7193 16.6867 14.0565 17.0574 14.4248 17.4145C14.7703 17.7601 15.1326 18.0806 15.5115 18.3762C15.8905 18.6718 16.2917 18.942 16.7153 19.1867L18.2868 17.6152C18.3871 17.5149 18.5182 17.4397 18.68 17.3898C18.8419 17.3399 19.0006 17.3258 19.1562 17.3477L21.4633 17.8158C21.6194 17.8604 21.7476 17.9413 21.8479 18.0586C21.9482 18.1758 21.9983 18.3067 21.9983 18.4511V21.1596C21.9983 21.3602 21.9315 21.5274 21.7977 21.6611C21.664 21.7949 21.4968 21.8617 21.2961 21.8617Z" fill="white"/>
<defs>
<linearGradient id="paint0_linear_1839_1674" x1="16" y1="0" x2="16" y2="32" gradientUnits="userSpaceOnUse">
<stop stop-color="#159C2A"/>
<stop offset="1" stop-color="#106C1E"/>
</linearGradient>
<linearGradient id="paint1_linear_1839_1674" x1="27.7186" y1="7.3272" x2="6.45091" y2="26.6536" gradientUnits="userSpaceOnUse">
<stop stop-color="white"/>
<stop offset="0.5" stop-color="white" stop-opacity="0"/>
<stop offset="1" stop-color="white" stop-opacity="0.6"/>
</linearGradient>
</defs>
</svg>
