<svg width="69" height="90" viewBox="0 0 69 90" fill="none" xmlns="http://www.w3.org/2000/svg">
<path d="M54.23 0H7.18913C6.9435 0 6.69787 0.0119819 6.45823 0.0359457C3.38488 0.353466 0.880668 2.61804 0.19171 5.56558C0.12581 5.85914 0.0659003 6.1527 0.0359456 6.45823C0.0119819 6.69787 0 6.9435 0 7.18913V74.4674C0 78.4214 3.23511 81.6565 7.18913 81.6565H54.23C54.4756 81.6565 54.7213 81.6446 54.9609 81.6206C56.6384 81.4469 58.1421 80.698 59.2804 79.5657C59.2864 79.5597 59.2983 79.5537 59.3043 79.5417C60.2389 78.6071 60.9159 77.4149 61.2214 76.085C61.2873 75.7914 61.3472 75.4978 61.3772 75.1923C61.4012 74.9527 61.4131 74.707 61.4131 74.4614V7.18913C61.4131 3.23511 58.178 0 54.224 0H54.23Z" fill="#159C2A"/>
<path d="M54.23 0H7.18913C6.9435 0 6.69787 0.0119819 6.45823 0.0359457C3.38488 0.353466 0.880668 2.61804 0.19171 5.56558C0.12581 5.85914 0.0659003 6.1527 0.0359456 6.45823C0.0119819 6.69787 0 6.9435 0 7.18913V74.4674C0 78.4214 3.23511 81.6565 7.18913 81.6565H54.23C54.4756 81.6565 54.7213 81.6446 54.9609 81.6206C56.6384 81.4469 58.1421 80.698 59.2804 79.5657C59.2864 79.5597 59.2983 79.5537 59.3043 79.5417C60.2389 78.6071 60.9159 77.4149 61.2214 76.085C61.2873 75.7914 61.3472 75.4978 61.3772 75.1923C61.4012 74.9527 61.4131 74.707 61.4131 74.4614V7.18913C61.4131 3.23511 58.178 0 54.224 0H54.23Z" fill="url(#paint0_linear_1676_1661)"/>
<path d="M61.4175 8.34375H14.3766C14.131 8.34375 13.8854 8.35573 13.6457 8.3797C10.5724 8.69722 8.06817 10.9618 7.37921 13.9093C7.31331 14.2029 7.2534 14.4964 7.22345 14.802C7.19948 15.0416 7.1875 15.2873 7.1875 15.5329V82.8112C7.1875 86.7652 10.4226 90.0003 14.3766 90.0003H61.4175C61.6631 90.0003 61.9088 89.9883 62.1484 89.9643C63.8259 89.7906 65.3296 89.0417 66.4679 87.9094C66.4739 87.9035 66.4858 87.8975 66.4918 87.8855C67.4264 86.9509 68.1034 85.7587 68.4089 84.4287C68.4748 84.1352 68.5347 83.8416 68.5647 83.5361C68.5887 83.2964 68.6006 83.0508 68.6006 82.8052V15.5329C68.6006 11.5789 65.3655 8.34375 61.4115 8.34375H61.4175Z" fill="white" fill-opacity="0.22"/>
<path d="M61.4175 8.34375H14.3766C14.131 8.34375 13.8854 8.35573 13.6457 8.3797C10.5724 8.69722 8.06817 10.9618 7.37921 13.9093C7.31331 14.2029 7.2534 14.4964 7.22345 14.802C7.19948 15.0416 7.1875 15.2873 7.1875 15.5329V82.8112C7.1875 86.7652 10.4226 90.0003 14.3766 90.0003H61.4175C61.6631 90.0003 61.9088 89.9883 62.1484 89.9643C63.8259 89.7906 65.3296 89.0417 66.4679 87.9094C66.4739 87.9035 66.4858 87.8975 66.4918 87.8855C67.4264 86.9509 68.1034 85.7587 68.4089 84.4287C68.4748 84.1352 68.5347 83.8416 68.5647 83.5361C68.5887 83.2964 68.6006 83.0508 68.6006 82.8052V15.5329C68.6006 11.5789 65.3655 8.34375 61.4115 8.34375H61.4175Z" fill="#159C2A" fill-opacity="0.32"/>
<path d="M55.6482 60.7266H20.3676C19.375 60.7266 18.5703 61.5312 18.5703 62.5238C18.5703 63.5165 19.375 64.3211 20.3676 64.3211H55.6482C56.6409 64.3211 57.4455 63.5165 57.4455 62.5238C57.4455 61.5312 56.6409 60.7266 55.6482 60.7266Z" fill="white"/>
<path d="M55.6482 71.5078H20.3676C19.375 71.5078 18.5703 72.3125 18.5703 73.3051C18.5703 74.2977 19.375 75.1024 20.3676 75.1024H55.6482C56.6409 75.1024 57.4455 74.2977 57.4455 73.3051C57.4455 72.3125 56.6409 71.5078 55.6482 71.5078Z" fill="white"/>
<path d="M47.1428 40.2931C47.1428 41.6351 46.826 42.8967 46.1925 44.0777C45.5844 45.2588 44.6721 46.2519 43.4558 47.0572C42.2649 47.8624 40.8458 48.3456 39.1988 48.5066V51.7679H36.7281V48.5066C34.3462 48.265 32.4204 47.4732 30.9507 46.1311C29.4809 44.789 28.7461 43.0175 28.7461 40.8165H33.3833C33.4593 41.8633 33.776 42.7357 34.3335 43.4335C34.891 44.1046 35.6892 44.5341 36.7281 44.7219V35.8642C35.0304 35.4079 33.6493 34.9516 32.5851 34.4953C31.5208 34.0121 30.6086 33.2605 29.8484 32.2406C29.1135 31.2206 28.7461 29.8248 28.7461 28.0533C28.7461 25.8254 29.4809 23.9867 30.9507 22.5373C32.4204 21.061 34.3462 20.2021 36.7281 19.9605V16.6992H39.1988V19.9605C41.4287 20.1752 43.2151 20.9268 44.5581 22.2152C45.9265 23.4767 46.6993 25.2215 46.8767 27.4493H42.2395C42.1635 26.6172 41.8594 25.8791 41.3273 25.2349C40.7952 24.5638 40.0856 24.1075 39.1988 23.866V32.5627C40.8965 32.9921 42.2775 33.4484 43.3418 33.9316C44.4061 34.3879 45.3056 35.126 46.0405 36.146C46.7753 37.1392 47.1428 38.5215 47.1428 40.2931ZM33.1552 27.8117C33.1552 28.9122 33.4593 29.7711 34.0674 30.3885C34.7009 31.0058 35.5878 31.5024 36.7281 31.8782V23.7452C35.6385 23.8794 34.7643 24.2954 34.1055 24.9933C33.472 25.6912 33.1552 26.6306 33.1552 27.8117ZM39.1988 44.7219C40.3137 44.5341 41.1879 44.0643 41.8214 43.3128C42.4549 42.5343 42.7717 41.6083 42.7717 40.5346C42.7717 39.461 42.4549 38.6289 41.8214 38.0384C41.2133 37.421 40.339 36.9244 39.1988 36.5486V44.7219Z" fill="white"/>
<defs>
<linearGradient id="paint0_linear_1676_1661" x1="30.7066" y1="0" x2="30.7066" y2="81.6565" gradientUnits="userSpaceOnUse">
<stop stop-color="#159C2A"/>
<stop offset="1" stop-color="#106C1E"/>
</linearGradient>
</defs>
</svg>
