<svg width="89" height="90" viewBox="0 0 89 90" fill="none" xmlns="http://www.w3.org/2000/svg">
<path d="M68.0025 36.1819C56.1384 19.7935 50.2063 16.545 50.2063 16.545H50.2458C50.957 16.545 51.5339 15.9736 51.5339 15.2691C51.5339 14.5646 50.957 13.9932 50.2458 13.9932H50.4803L59.0649 5.64372C59.0649 5.64372 55.4746 2.39786 53.2119 2.78403C50.9491 3.17019 49.2317 4.63917 47.2034 4.40695C45.1751 4.17473 39.8515 0 39.8515 0C39.8515 0 34.528 4.17473 32.4997 4.40695C30.4714 4.63917 28.7539 3.17019 26.4912 2.78403C24.2285 2.39786 20.6382 5.64372 20.6382 5.64372L29.2228 13.9932H29.3203C28.6091 13.9932 28.0322 14.5646 28.0322 15.2691C28.0322 15.9736 28.6091 16.545 29.3203 16.545H29.4968C29.4968 16.545 23.5647 19.7908 11.7005 36.1819C-0.16096 52.5703 2.49161 63.0854 2.49161 63.0854C2.49161 63.0854 2.64703 74.5268 9.82768 82.5684C17.0083 90.6074 23.0958 89.989 23.0958 89.989H56.6046C56.6046 89.989 62.6921 90.6074 69.8728 82.5684C77.0534 74.5294 77.2088 63.0854 77.2088 63.0854C77.2088 63.0854 79.8614 52.5703 67.9999 36.1819H68.0025Z" fill="white"/>
<path d="M68.0025 36.1819C56.1384 19.7935 50.2063 16.545 50.2063 16.545H50.2458C50.957 16.545 51.5339 15.9736 51.5339 15.2691C51.5339 14.5646 50.957 13.9932 50.2458 13.9932H50.4803L59.0649 5.64372C59.0649 5.64372 55.4746 2.39786 53.2119 2.78403C50.9491 3.17019 49.2317 4.63917 47.2034 4.40695C45.1751 4.17473 39.8515 0 39.8515 0C39.8515 0 34.528 4.17473 32.4997 4.40695C30.4714 4.63917 28.7539 3.17019 26.4912 2.78403C24.2285 2.39786 20.6382 5.64372 20.6382 5.64372L29.2228 13.9932H29.3203C28.6091 13.9932 28.0322 14.5646 28.0322 15.2691C28.0322 15.9736 28.6091 16.545 29.3203 16.545H29.4968C29.4968 16.545 23.5647 19.7908 11.7005 36.1819C-0.16096 52.5703 2.49161 63.0854 2.49161 63.0854C2.49161 63.0854 2.64703 74.5268 9.82768 82.5684C17.0083 90.6074 23.0958 89.989 23.0958 89.989H56.6046C56.6046 89.989 62.6921 90.6074 69.8728 82.5684C77.0534 74.5294 77.2088 63.0854 77.2088 63.0854C77.2088 63.0854 79.8614 52.5703 67.9999 36.1819H68.0025Z" fill="url(#paint0_linear_1676_1672)"/>
<path d="M50.1924 13.8789H29.0624C28.3441 13.8789 27.7617 14.4803 27.7617 15.2222C27.7617 15.9641 28.3441 16.5655 29.0624 16.5655H50.1924C50.9107 16.5655 51.4931 15.9641 51.4931 15.2222C51.4931 14.4803 50.9107 13.8789 50.1924 13.8789Z" fill="white"/>
<path d="M29.1534 62.2383H6.1653C5.31462 62.2383 4.625 62.9279 4.625 63.7786V67.1637C4.625 68.0143 5.31462 68.704 6.1653 68.704H29.1534C30.004 68.704 30.6937 68.0143 30.6937 67.1637V63.7786C30.6937 62.9279 30.004 62.2383 29.1534 62.2383Z" fill="white" fill-opacity="0.22"/>
<path d="M29.1534 62.2383H6.1653C5.31462 62.2383 4.625 62.9279 4.625 63.7786V67.1637C4.625 68.0143 5.31462 68.704 6.1653 68.704H29.1534C30.004 68.704 30.6937 68.0143 30.6937 67.1637V63.7786C30.6937 62.9279 30.004 62.2383 29.1534 62.2383Z" fill="#159C2A" fill-opacity="0.4"/>
<path d="M25.0245 69.3047H2.03639C1.18571 69.3047 0.496094 69.9943 0.496094 70.845V74.2301C0.496094 75.0807 1.18571 75.7704 2.03639 75.7704H25.0245C25.8751 75.7704 26.5648 75.0807 26.5648 74.2301V70.845C26.5648 69.9943 25.8751 69.3047 25.0245 69.3047Z" fill="white" fill-opacity="0.22"/>
<path d="M25.0245 69.3047H2.03639C1.18571 69.3047 0.496094 69.9943 0.496094 70.845V74.2301C0.496094 75.0807 1.18571 75.7704 2.03639 75.7704H25.0245C25.8751 75.7704 26.5648 75.0807 26.5648 74.2301V70.845C26.5648 69.9943 25.8751 69.3047 25.0245 69.3047Z" fill="#159C2A" fill-opacity="0.4"/>
<path d="M27.962 76.3711H4.97389C4.12321 76.3711 3.43359 77.0607 3.43359 77.9114V81.2965C3.43359 82.1472 4.12321 82.8368 4.97389 82.8368H27.962C28.8126 82.8368 29.5023 82.1472 29.5023 81.2965V77.9114C29.5023 77.0607 28.8126 76.3711 27.962 76.3711Z" fill="white" fill-opacity="0.22"/>
<path d="M27.962 76.3711H4.97389C4.12321 76.3711 3.43359 77.0607 3.43359 77.9114V81.2965C3.43359 82.1472 4.12321 82.8368 4.97389 82.8368H27.962C28.8126 82.8368 29.5023 82.1472 29.5023 81.2965V77.9114C29.5023 77.0607 28.8126 76.3711 27.962 76.3711Z" fill="#159C2A" fill-opacity="0.4"/>
<path d="M24.5284 83.4297H1.5403C0.689615 83.4297 0 84.1193 0 84.97V88.3551C0 89.2057 0.689615 89.8954 1.5403 89.8954H24.5284C25.379 89.8954 26.0687 89.2057 26.0687 88.3551V84.97C26.0687 84.1193 25.379 83.4297 24.5284 83.4297Z" fill="white" fill-opacity="0.22"/>
<path d="M24.5284 83.4297H1.5403C0.689615 83.4297 0 84.1193 0 84.97V88.3551C0 89.2057 0.689615 89.8954 1.5403 89.8954H24.5284C25.379 89.8954 26.0687 89.2057 26.0687 88.3551V84.97C26.0687 84.1193 25.379 83.4297 24.5284 83.4297Z" fill="#159C2A" fill-opacity="0.4"/>
<circle cx="62.4609" cy="63.582" r="26.4179" fill="white" fill-opacity="0.22"/>
<circle cx="62.4609" cy="63.582" r="26.4179" fill="#159C2A" fill-opacity="0.4"/>
<path d="M69.6272 68.6964C69.6272 69.8787 69.3497 70.9902 68.7946 72.0307C68.2617 73.0711 67.4624 73.9461 66.3967 74.6555C65.3531 75.365 64.1098 75.7906 62.6666 75.9325V78.8057H60.5018V75.9325C58.4147 75.7197 56.7273 75.0221 55.4395 73.8397C54.1517 72.6573 53.5078 71.0966 53.5078 69.1575H57.571C57.6376 70.0797 57.9151 70.8483 58.4036 71.4631C58.892 72.0543 59.5914 72.4327 60.5018 72.5982V64.7945C59.0142 64.3925 57.8041 63.9905 56.8716 63.5885C55.939 63.1628 55.1397 62.5007 54.4736 61.6021C53.8298 60.7035 53.5078 59.4738 53.5078 57.9131C53.5078 55.9503 54.1517 54.3305 55.4395 53.0535C56.7273 51.7529 58.4147 50.9962 60.5018 50.7833V47.9102H62.6666V50.7833C64.6204 50.9725 66.1857 51.6346 67.3625 52.7697C68.5615 53.8812 69.2387 55.4183 69.3941 57.381H65.3309C65.2643 56.6479 64.9979 55.9976 64.5316 55.4301C64.0654 54.8389 63.4437 54.4369 62.6666 54.2241V61.8859C64.1542 62.2642 65.3642 62.6662 66.2968 63.0919C67.2293 63.4939 68.0175 64.1442 68.6614 65.0428C69.3053 65.9178 69.6272 67.1356 69.6272 68.6964ZM57.3711 57.7002C57.3711 58.6698 57.6376 59.4265 58.1704 59.9704C58.7255 60.5143 59.5026 60.9518 60.5018 61.2828V54.1176C59.547 54.2359 58.781 54.6024 58.2038 55.2172C57.6487 55.8321 57.3711 56.6597 57.3711 57.7002ZM62.6666 72.5982C63.6435 72.4327 64.4095 72.0188 64.9646 71.3567C65.5197 70.6709 65.7972 69.8551 65.7972 68.9092C65.7972 67.9633 65.5197 67.2302 64.9646 66.71C64.4317 66.1661 63.6657 65.7286 62.6666 65.3975V72.5982Z" fill="white"/>
<defs>
<linearGradient id="paint0_linear_1676_1672" x1="39.8502" y1="0" x2="39.8502" y2="90" gradientUnits="userSpaceOnUse">
<stop stop-color="#159C2A"/>
<stop offset="1" stop-color="#106C1E"/>
</linearGradient>
</defs>
</svg>
