<svg width="99" height="90" viewBox="0 0 99 90" fill="none" xmlns="http://www.w3.org/2000/svg">
<path d="M70.4168 38.5938C67.7391 38.5938 65.1711 37.5396 63.2778 35.6632C61.3844 33.7867 60.3207 31.2417 60.3207 28.588C60.3207 25.9343 61.3844 23.3893 63.2778 21.5128C65.1711 19.6364 67.7391 18.5822 70.4168 18.5822C73.0944 18.5822 75.6624 19.6364 77.5558 21.5128C79.4492 23.3893 80.5129 25.9343 80.5129 28.588C80.5129 31.2417 79.4492 33.7867 77.5558 35.6632C75.6624 37.5396 73.0944 38.5938 70.4168 38.5938ZM91.8493 31.361C91.9647 30.4462 92.0512 29.5314 92.0512 28.588C92.0512 27.6446 91.9647 26.7012 91.8493 25.7292L97.9358 21.0694C98.4839 20.6405 98.6281 19.8687 98.282 19.2397L92.5128 9.34828C92.1666 8.71934 91.3878 8.46205 90.7532 8.71935L83.5705 11.5781C82.0705 10.4632 80.5129 9.49122 78.6956 8.77652L77.6283 1.2007C77.5697 0.863983 77.3927 0.558692 77.1287 0.33892C76.8647 0.119149 76.5307 -0.000914171 76.186 5.24152e-06H64.6476C63.9264 5.24152e-06 63.3207 0.514589 63.2053 1.2007L62.138 8.77652C60.3207 9.49122 58.763 10.4632 57.263 11.5781L50.0804 8.71935C49.4457 8.46205 48.6669 8.71934 48.3208 9.34828L42.5516 19.2397C42.1766 19.8687 42.3496 20.6405 42.8977 21.0694L48.9842 25.7292C48.8688 26.7012 48.7823 27.6446 48.7823 28.588C48.7823 29.5314 48.8688 30.4462 48.9842 31.361L42.8977 36.1066C42.3496 36.5355 42.1766 37.3073 42.5516 37.9363L48.3208 47.8277C48.6669 48.4567 49.4457 48.6854 50.0804 48.4567L57.263 45.5693C58.763 46.7128 60.3207 47.6848 62.138 48.3995L63.2053 55.9753C63.3207 56.6614 63.9264 57.176 64.6476 57.176H76.186C76.9071 57.176 77.5129 56.6614 77.6283 55.9753L78.6956 48.3995C80.5129 47.6562 82.0705 46.7128 83.5705 45.5693L90.7532 48.4567C91.3878 48.6854 92.1666 48.4567 92.5128 47.8277L98.282 37.9363C98.6281 37.3073 98.4839 36.5355 97.9358 36.1066L91.8493 31.361Z" fill="#159C2A"/>
<path d="M70.4168 38.5938C67.7391 38.5938 65.1711 37.5396 63.2778 35.6632C61.3844 33.7867 60.3207 31.2417 60.3207 28.588C60.3207 25.9343 61.3844 23.3893 63.2778 21.5128C65.1711 19.6364 67.7391 18.5822 70.4168 18.5822C73.0944 18.5822 75.6624 19.6364 77.5558 21.5128C79.4492 23.3893 80.5129 25.9343 80.5129 28.588C80.5129 31.2417 79.4492 33.7867 77.5558 35.6632C75.6624 37.5396 73.0944 38.5938 70.4168 38.5938ZM91.8493 31.361C91.9647 30.4462 92.0512 29.5314 92.0512 28.588C92.0512 27.6446 91.9647 26.7012 91.8493 25.7292L97.9358 21.0694C98.4839 20.6405 98.6281 19.8687 98.282 19.2397L92.5128 9.34828C92.1666 8.71934 91.3878 8.46205 90.7532 8.71935L83.5705 11.5781C82.0705 10.4632 80.5129 9.49122 78.6956 8.77652L77.6283 1.2007C77.5697 0.863983 77.3927 0.558692 77.1287 0.33892C76.8647 0.119149 76.5307 -0.000914171 76.186 5.24152e-06H64.6476C63.9264 5.24152e-06 63.3207 0.514589 63.2053 1.2007L62.138 8.77652C60.3207 9.49122 58.763 10.4632 57.263 11.5781L50.0804 8.71935C49.4457 8.46205 48.6669 8.71934 48.3208 9.34828L42.5516 19.2397C42.1766 19.8687 42.3496 20.6405 42.8977 21.0694L48.9842 25.7292C48.8688 26.7012 48.7823 27.6446 48.7823 28.588C48.7823 29.5314 48.8688 30.4462 48.9842 31.361L42.8977 36.1066C42.3496 36.5355 42.1766 37.3073 42.5516 37.9363L48.3208 47.8277C48.6669 48.4567 49.4457 48.6854 50.0804 48.4567L57.263 45.5693C58.763 46.7128 60.3207 47.6848 62.138 48.3995L63.2053 55.9753C63.3207 56.6614 63.9264 57.176 64.6476 57.176H76.186C76.9071 57.176 77.5129 56.6614 77.6283 55.9753L78.6956 48.3995C80.5129 47.6562 82.0705 46.7128 83.5705 45.5693L90.7532 48.4567C91.3878 48.6854 92.1666 48.4567 92.5128 47.8277L98.282 37.9363C98.6281 37.3073 98.4839 36.5355 97.9358 36.1066L91.8493 31.361Z" fill="url(#paint0_linear_1676_1628)"/>
<path d="M56.9861 75.8801C58.2849 75.2956 59.5606 74.6732 60.8044 73.9144C62.0482 73.1555 63.2224 72.283 64.4111 71.3497L75.449 75.5871C76.4551 75.9612 77.5887 75.5295 78.1396 74.5694L86.5413 59.0431C87.0921 58.083 86.8051 56.8541 85.9555 56.2285L76.4107 49.1041C76.6744 46.2392 76.7033 43.4136 76.1842 40.4543L85.3139 32.9598C85.7108 32.612 85.9709 32.1342 86.0484 31.6111C86.1259 31.0879 86.0156 30.5531 85.7371 30.1015L76.4587 14.9626C75.8788 14.0164 74.7133 13.6355 73.7159 14.0361L62.8697 18.7299C60.466 16.9204 57.932 15.6585 55.2559 14.5874L53.2491 2.86369C53.078 1.82408 52.1125 1.00917 51.0049 1.06093L33.3248 1.44835C32.1941 1.46226 31.3156 2.31026 31.191 3.37431L29.9418 15.1086C28.5675 15.7391 27.2541 16.3844 26.0103 17.1433C24.7666 17.9022 23.63 18.7517 22.5167 19.6389L11.3657 15.4706C10.3596 15.0965 9.20283 15.4903 8.67518 16.4882L0.273468 32.0146C-0.277371 32.9747 0.0473923 34.1806 0.85923 34.8292L10.4418 41.9305C10.1404 44.8185 10.1115 47.6441 10.6306 50.6034L1.50083 58.0979C0.689036 58.8012 0.497722 60.01 1.07762 60.9562L10.356 76.0951C10.9359 77.0413 12.1015 77.4221 13.0989 77.0216L23.9451 72.3278C26.3864 74.1143 28.8828 75.3991 31.5966 76.4473L33.5657 88.194C33.7745 89.2106 34.7023 90.0485 35.8098 89.9967L53.49 89.6093C54.5975 89.5576 55.4992 88.7474 55.6238 87.6834L56.9861 75.8801Z" fill="white" fill-opacity="0.22"/>
<path d="M56.9861 75.8801C58.2849 75.2956 59.5606 74.6732 60.8044 73.9144C62.0482 73.1555 63.2224 72.283 64.4111 71.3497L75.449 75.5871C76.4551 75.9612 77.5887 75.5295 78.1396 74.5694L86.5413 59.0431C87.0921 58.083 86.8051 56.8541 85.9555 56.2285L76.4107 49.1041C76.6744 46.2392 76.7033 43.4136 76.1842 40.4543L85.3139 32.9598C85.7108 32.612 85.9709 32.1342 86.0484 31.6111C86.1259 31.0879 86.0156 30.5531 85.7371 30.1015L76.4587 14.9626C75.8788 14.0164 74.7133 13.6355 73.7159 14.0361L62.8697 18.7299C60.466 16.9204 57.932 15.6585 55.2559 14.5874L53.2491 2.86369C53.078 1.82408 52.1125 1.00917 51.0049 1.06093L33.3248 1.44835C32.1941 1.46226 31.3156 2.31026 31.191 3.37431L29.9418 15.1086C28.5675 15.7391 27.2541 16.3844 26.0103 17.1433C24.7666 17.9022 23.63 18.7517 22.5167 19.6389L11.3657 15.4706C10.3596 15.0965 9.20283 15.4903 8.67518 16.4882L0.273468 32.0146C-0.277371 32.9747 0.0473923 34.1806 0.85923 34.8292L10.4418 41.9305C10.1404 44.8185 10.1115 47.6441 10.6306 50.6034L1.50083 58.0979C0.689036 58.8012 0.497722 60.01 1.07762 60.9562L10.356 76.0951C10.9359 77.0413 12.1015 77.4221 13.0989 77.0216L23.9451 72.3278C26.3864 74.1143 28.8828 75.3991 31.5966 76.4473L33.5657 88.194C33.7745 89.2106 34.7023 90.0485 35.8098 89.9967L53.49 89.6093C54.5975 89.5576 55.4992 88.7474 55.6238 87.6834L56.9861 75.8801Z" fill="#159C2A" fill-opacity="0.4"/>
<path d="M57.1779 53.9642C57.1779 55.9498 56.7039 57.8162 55.7559 59.5634C54.8458 61.3107 53.4807 62.78 51.6606 63.9713C49.8784 65.1626 47.7549 65.8774 45.2902 66.1157V70.9405H41.593V66.1157C38.0286 65.7583 35.1467 64.5868 32.9474 62.6013C30.7481 60.6157 29.6484 57.9949 29.6484 54.7386H36.5877C36.7014 56.2873 37.1754 57.5779 38.0096 58.6104C38.8439 59.6031 40.0383 60.2385 41.593 60.5165V47.412C39.0524 46.7369 36.9858 46.0618 35.3932 45.3867C33.8006 44.6719 32.4355 43.56 31.2979 42.051C30.1983 40.542 29.6484 38.4771 29.6484 35.8562C29.6484 32.5602 30.7481 29.84 32.9474 27.6957C35.1467 25.5116 38.0286 24.2408 41.593 23.8834V19.0586H45.2902V23.8834C48.6271 24.2011 51.3004 25.313 53.3101 27.2191C55.3577 29.0855 56.5143 31.6667 56.7797 34.9627H49.8405C49.7267 33.7317 49.2717 32.6396 48.4754 31.6866C47.6791 30.6938 46.6173 30.0187 45.2902 29.6613V42.5276C47.8307 43.1629 49.8974 43.838 51.49 44.5528C53.0826 45.2279 54.4287 46.3199 55.5284 47.8289C56.628 49.2982 57.1779 51.3433 57.1779 53.9642ZM36.2464 35.4988C36.2464 37.1269 36.7014 38.3977 37.6115 39.311C38.5595 40.2243 39.8867 40.959 41.593 41.5149V29.4826C39.9625 29.6812 38.6543 30.2967 37.6684 31.3292C36.7204 32.3616 36.2464 33.7515 36.2464 35.4988ZM45.2902 60.5165C46.9586 60.2385 48.2668 59.5436 49.2148 58.4317C50.1628 57.2801 50.6368 55.91 50.6368 54.3216C50.6368 52.7332 50.1628 51.5022 49.2148 50.6285C48.3047 49.7152 46.9965 48.9805 45.2902 48.4246V60.5165Z" fill="white"/>
<defs>
<linearGradient id="paint0_linear_1676_1628" x1="70.4104" y1="0" x2="70.4104" y2="57.176" gradientUnits="userSpaceOnUse">
<stop stop-color="#159C2A"/>
<stop offset="1" stop-color="#106C1E"/>
</linearGradient>
</defs>
</svg>
