<svg width="119" height="107" viewBox="0 0 119 107" fill="none" xmlns="http://www.w3.org/2000/svg">
<path d="M117.273 88.9988H111.116L100.408 66.9416C99.5551 65.186 97.2801 64.6856 95.7649 65.9171L88.9874 71.4255L80.2553 62.723C79.686 62.1579 78.9154 61.8387 78.1124 61.8387H64.8735L55.3167 39.2165H58.3948C59.3516 39.2165 60.1265 38.4443 60.1265 37.4911V36.7254C60.1265 35.7721 59.3516 35 58.3948 35H36.0407C34.361 35 33.0037 36.3609 33.0102 38.0324L33.0925 56.0564H19.1437C18.2865 56.0564 17.4682 56.4188 16.8924 57.055L10.6865 63.9178C10.1843 64.4721 9.9072 65.1925 9.9072 65.9387V72.4478L6.00222 75.9569C5.36366 76.5306 5 77.3458 5 78.1999V85.8197C5 87.4869 6.35722 88.8392 8.03047 88.8392H11.8705C13.4247 80.8462 20.4879 74.8116 28.9624 74.8116C37.4369 74.8116 44.5022 80.8462 46.0564 88.8392H53.8642C55.4184 80.8462 62.4816 74.8116 70.9561 74.8116C79.4306 74.8116 86.4959 80.8462 88.0502 88.8392H93.9899L97.4533 92.7688H117.273C118.229 92.7688 119.004 91.9967 119.004 91.0434V90.7242C119.004 89.7709 118.229 88.9988 117.273 88.9988Z" fill="url(#paint0_linear_1676_1636)"/>
<path d="M57.2685 62.5503H44.6184C43.6638 62.5503 42.8867 61.7781 42.8867 60.8249V40.8231C42.8867 39.8698 43.6638 39.0977 44.6184 39.0977H48.7637C49.4585 39.0977 50.0863 39.5118 50.359 40.1502L58.8638 60.1519C59.3487 61.2907 58.5088 62.5503 57.2685 62.5503Z" fill="white" fill-opacity="0.34"/>
<path d="M44.6182 39.5977H48.7637C49.2582 39.5977 49.7042 39.8923 49.8984 40.3457L58.4033 60.3477C58.7462 61.153 58.1543 62.0498 57.2686 62.0498H44.6182C43.9378 62.0497 43.3869 61.5 43.3867 60.8252V40.8232L43.3936 40.6982C43.4565 40.0816 43.9802 39.5978 44.6182 39.5977Z" stroke="white" stroke-opacity="0.54"/>
<path d="M29.0712 106.678C36.7821 106.678 43.033 100.449 43.033 92.7666C43.033 85.0837 36.7821 78.8555 29.0712 78.8555C21.3603 78.8555 15.1094 85.0837 15.1094 92.7666C15.1094 100.449 21.3603 106.678 29.0712 106.678Z" fill="#159C2A"/>
<path d="M29.0712 106.678C36.7821 106.678 43.033 100.449 43.033 92.7666C43.033 85.0837 36.7821 78.8555 29.0712 78.8555C21.3603 78.8555 15.1094 85.0837 15.1094 92.7666C15.1094 100.449 21.3603 106.678 29.0712 106.678Z" fill="url(#paint1_linear_1676_1636)"/>
<path d="M70.9931 106.678C78.704 106.678 84.9549 100.449 84.9549 92.7666C84.9549 85.0837 78.704 78.8555 70.9931 78.8555C63.2822 78.8555 57.0312 85.0837 57.0312 92.7666C57.0312 100.449 63.2822 106.678 70.9931 106.678Z" fill="#159C2A"/>
<path d="M70.9931 106.678C78.704 106.678 84.9549 100.449 84.9549 92.7666C84.9549 85.0837 78.704 78.8555 70.9931 78.8555C63.2822 78.8555 57.0312 85.0837 57.0312 92.7666C57.0312 100.449 63.2822 106.678 70.9931 106.678Z" fill="url(#paint2_linear_1676_1636)"/>
<path d="M29.0694 99.0501C32.5531 99.0501 35.3771 96.2363 35.3771 92.7653C35.3771 89.2943 32.5531 86.4805 29.0694 86.4805C25.5858 86.4805 22.7617 89.2943 22.7617 92.7653C22.7617 96.2363 25.5858 99.0501 29.0694 99.0501Z" fill="white" fill-opacity="0.34"/>
<path d="M71.0421 99.1087C74.5257 99.1087 77.3498 96.2949 77.3498 92.8239C77.3498 89.3529 74.5257 86.5391 71.0421 86.5391C67.5584 86.5391 64.7344 89.3529 64.7344 92.8239C64.7344 96.2949 67.5584 99.1087 71.0421 99.1087Z" fill="white" fill-opacity="0.34"/>
<ellipse cx="29.5478" cy="29.548" rx="29.5478" ry="29.548" fill="white" fill-opacity="0.22"/>
<ellipse cx="29.5478" cy="29.548" rx="29.5478" ry="29.548" fill="#159C2A" fill-opacity="0.4"/>
<path d="M36.5837 34.924C36.5837 36.2702 36.293 37.5357 35.7116 38.7203C35.1534 39.905 34.3161 40.9012 33.1998 41.7089C32.1067 42.5166 30.8044 43.0012 29.2927 43.1628V46.4341H27.0251V43.1628C24.839 42.9205 23.0715 42.1262 21.7226 40.78C20.3737 39.4338 19.6992 37.6568 19.6992 35.4491H23.9552C24.025 36.4991 24.3157 37.3741 24.8274 38.0742C25.339 38.7473 26.0716 39.178 27.0251 39.3665V30.4816C25.4669 30.0239 24.1994 29.5662 23.2226 29.1084C22.2458 28.6238 21.4086 27.8699 20.7109 26.8468C20.0364 25.8237 19.6992 24.4237 19.6992 22.6467C19.6992 20.412 20.3737 18.5677 21.7226 17.1138C23.0715 15.633 24.839 14.7714 27.0251 14.5291V11.2578H29.2927V14.5291C31.3393 14.7445 32.9789 15.4983 34.2115 16.7907C35.4674 18.0561 36.1767 19.8062 36.3395 22.0409H32.0835C32.0137 21.2062 31.7346 20.4658 31.2462 19.8197C30.7579 19.1466 30.1067 18.6888 29.2927 18.4465V27.1699C30.8509 27.6007 32.1184 28.0584 33.0952 28.543C34.072 29.0008 34.8976 29.7412 35.572 30.7643C36.2465 31.7605 36.5837 33.1471 36.5837 34.924ZM23.7459 22.4044C23.7459 23.5082 24.025 24.3698 24.5832 24.9891C25.1646 25.6083 25.9786 26.1064 27.0251 26.4834V18.3254C26.0251 18.46 25.2227 18.8773 24.618 19.5773C24.0366 20.2774 23.7459 21.2197 23.7459 22.4044ZM29.2927 39.3665C30.316 39.178 31.1183 38.7069 31.6998 37.953C32.2812 37.1722 32.5719 36.2433 32.5719 35.1664C32.5719 34.0894 32.2812 33.2548 31.6998 32.6624C31.1416 32.0432 30.3392 31.5451 29.2927 31.1681V39.3665Z" fill="white"/>
<defs>
<linearGradient id="paint0_linear_1676_1636" x1="62.0021" y1="35" x2="62.0021" y2="92.7688" gradientUnits="userSpaceOnUse">
<stop stop-color="#159C2A"/>
<stop offset="1" stop-color="#106C1E"/>
</linearGradient>
<linearGradient id="paint1_linear_1676_1636" x1="29.0712" y1="78.8555" x2="29.0712" y2="106.678" gradientUnits="userSpaceOnUse">
<stop stop-color="#106C1E"/>
<stop offset="1" stop-color="#159C2A"/>
</linearGradient>
<linearGradient id="paint2_linear_1676_1636" x1="70.9931" y1="78.8555" x2="70.9931" y2="106.678" gradientUnits="userSpaceOnUse">
<stop stop-color="#106C1E"/>
<stop offset="1" stop-color="#159C2A"/>
</linearGradient>
</defs>
</svg>
