<svg width="78" height="80" viewBox="0 0 78 80" fill="none" xmlns="http://www.w3.org/2000/svg">
<path d="M69.3575 16.0586H15.5258C10.7524 16.0586 6.88281 20.088 6.88281 25.0586V68.9997C6.88281 73.9703 10.7524 77.9997 15.5258 77.9997H69.3575C74.1309 77.9997 78.0005 73.9703 78.0005 68.9997V25.0586C78.0005 20.088 74.1309 16.0586 69.3575 16.0586Z" fill="white"/>
<path d="M69.3575 16.0586H15.5258C10.7524 16.0586 6.88281 20.088 6.88281 25.0586V68.9997C6.88281 73.9703 10.7524 77.9997 15.5258 77.9997H69.3575C74.1309 77.9997 78.0005 73.9703 78.0005 68.9997V25.0586C78.0005 20.088 74.1309 16.0586 69.3575 16.0586Z" fill="url(#paint0_linear_1676_3422)"/>
<path d="M49.1361 0H9.36389C4.19236 0 0 4.06059 0 9.06958V70.0774C0 75.0864 4.19236 79.147 9.36389 79.147H49.1361C54.3076 79.147 58.5 75.0864 58.5 70.0774V9.06958C58.5 4.06059 54.3076 0 49.1361 0Z" fill="white" fill-opacity="0.2"/>
<path d="M49.1361 0H9.36389C4.19236 0 0 4.06059 0 9.06958V70.0774C0 75.0864 4.19236 79.147 9.36389 79.147H49.1361C54.3076 79.147 58.5 75.0864 58.5 70.0774V9.06958C58.5 4.06059 54.3076 0 49.1361 0Z" fill="#159C2A" fill-opacity="0.4"/>
<rect x="7.38281" y="11.9688" width="10.4706" height="5.88235" rx="1.5" fill="#FAFAFA"/>
<rect x="7.38281" y="11.9688" width="10.4706" height="5.88235" rx="1.5" fill="#159C2A" fill-opacity="0.55"/>
<rect x="7.38281" y="11.9688" width="10.4706" height="5.88235" rx="1.5" stroke="#FAFAFA"/>
<rect x="23.4414" y="11.9688" width="10.4706" height="5.88235" rx="1.5" fill="#FAFAFA"/>
<rect x="23.4414" y="11.9688" width="10.4706" height="5.88235" rx="1.5" fill="#159C2A" fill-opacity="0.55"/>
<rect x="23.4414" y="11.9688" width="10.4706" height="5.88235" rx="1.5" stroke="#FAFAFA"/>
<rect x="39.5" y="11.9688" width="10.4706" height="5.88235" rx="1.5" fill="#FAFAFA"/>
<rect x="39.5" y="11.9688" width="10.4706" height="5.88235" rx="1.5" fill="#159C2A" fill-opacity="0.55"/>
<rect x="39.5" y="11.9688" width="10.4706" height="5.88235" rx="1.5" stroke="#FAFAFA"/>
<rect x="7.38281" y="25.7344" width="10.4706" height="5.88235" rx="1.5" fill="#FAFAFA"/>
<rect x="7.38281" y="25.7344" width="10.4706" height="5.88235" rx="1.5" fill="#159C2A" fill-opacity="0.55"/>
<rect x="7.38281" y="25.7344" width="10.4706" height="5.88235" rx="1.5" stroke="#FAFAFA"/>
<rect x="23.4414" y="25.7344" width="10.4706" height="5.88235" rx="1.5" fill="#FAFAFA"/>
<rect x="23.4414" y="25.7344" width="10.4706" height="5.88235" rx="1.5" fill="#159C2A" fill-opacity="0.55"/>
<rect x="23.4414" y="25.7344" width="10.4706" height="5.88235" rx="1.5" stroke="#FAFAFA"/>
<rect x="39.5" y="25.7344" width="10.4706" height="5.88235" rx="1.5" fill="#FAFAFA"/>
<rect x="39.5" y="25.7344" width="10.4706" height="5.88235" rx="1.5" fill="#159C2A" fill-opacity="0.55"/>
<rect x="39.5" y="25.7344" width="10.4706" height="5.88235" rx="1.5" stroke="#FAFAFA"/>
<rect x="7.38281" y="38.3516" width="10.4706" height="5.88235" rx="1.5" fill="#FAFAFA"/>
<rect x="7.38281" y="38.3516" width="10.4706" height="5.88235" rx="1.5" fill="#159C2A" fill-opacity="0.55"/>
<rect x="7.38281" y="38.3516" width="10.4706" height="5.88235" rx="1.5" stroke="#FAFAFA"/>
<rect x="23.4414" y="38.3516" width="10.4706" height="5.88235" rx="1.5" fill="#FAFAFA"/>
<rect x="23.4414" y="38.3516" width="10.4706" height="5.88235" rx="1.5" fill="#159C2A" fill-opacity="0.55"/>
<rect x="23.4414" y="38.3516" width="10.4706" height="5.88235" rx="1.5" stroke="#FAFAFA"/>
<rect x="39.5" y="38.3516" width="10.4706" height="5.88235" rx="1.5" fill="#FAFAFA"/>
<rect x="39.5" y="38.3516" width="10.4706" height="5.88235" rx="1.5" fill="#159C2A" fill-opacity="0.55"/>
<rect x="39.5" y="38.3516" width="10.4706" height="5.88235" rx="1.5" stroke="#FAFAFA"/>
<rect x="7.38281" y="50.9688" width="10.4706" height="5.88235" rx="1.5" fill="#FAFAFA"/>
<rect x="7.38281" y="50.9688" width="10.4706" height="5.88235" rx="1.5" fill="#159C2A" fill-opacity="0.55"/>
<rect x="7.38281" y="50.9688" width="10.4706" height="5.88235" rx="1.5" stroke="#FAFAFA"/>
<rect x="23.4414" y="50.9688" width="10.4706" height="5.88235" rx="1.5" fill="#FAFAFA"/>
<rect x="23.4414" y="50.9688" width="10.4706" height="5.88235" rx="1.5" fill="#159C2A" fill-opacity="0.55"/>
<rect x="23.4414" y="50.9688" width="10.4706" height="5.88235" rx="1.5" stroke="#FAFAFA"/>
<rect x="39.5" y="50.9688" width="10.4706" height="5.88235" rx="1.5" fill="#FAFAFA"/>
<rect x="39.5" y="50.9688" width="10.4706" height="5.88235" rx="1.5" fill="#159C2A" fill-opacity="0.55"/>
<rect x="39.5" y="50.9688" width="10.4706" height="5.88235" rx="1.5" stroke="#FAFAFA"/>
<path d="M20.3516 65.8828H35.8516C36.68 65.8828 37.3516 66.5544 37.3516 67.3828V78.6475H18.8516V67.3828C18.8516 66.5544 19.5231 65.8828 20.3516 65.8828Z" fill="#FAFAFA"/>
<path d="M20.3516 65.8828H35.8516C36.68 65.8828 37.3516 66.5544 37.3516 67.3828V78.6475H18.8516V67.3828C18.8516 66.5544 19.5231 65.8828 20.3516 65.8828Z" fill="#159C2A" fill-opacity="0.55"/>
<path d="M20.3516 65.8828H35.8516C36.68 65.8828 37.3516 66.5544 37.3516 67.3828V78.6475H18.8516V67.3828C18.8516 66.5544 19.5231 65.8828 20.3516 65.8828Z" stroke="#FAFAFA"/>
<defs>
<linearGradient id="paint0_linear_1676_3422" x1="42.4416" y1="16.0586" x2="42.4416" y2="77.9997" gradientUnits="userSpaceOnUse">
<stop stop-color="#106C1E"/>
<stop offset="1" stop-color="#159C2A"/>
</linearGradient>
</defs>
</svg>
