<svg width="84" height="83" viewBox="0 0 84 83" fill="none" xmlns="http://www.w3.org/2000/svg">
<path d="M48.6309 23.5742H13.0121C7.92052 23.5742 3.79297 27.2323 3.79297 31.7448V74.2025C3.79297 78.715 7.92052 82.3731 13.0121 82.3731H48.6309C53.7225 82.3731 57.85 78.715 57.85 74.2025V31.7448C57.85 27.2323 53.7225 23.5742 48.6309 23.5742Z" fill="url(#paint0_linear_1676_3441)"/>
<path d="M61.854 24.692V65.209C61.854 71.0152 57.141 75.7327 51.3209 75.7327H10.5489C4.7288 75.7327 0 71.0152 0 65.209V10.5237C0 4.70174 4.7288 0 10.5489 0H35.8851L36.2647 0.362886L61.68 24.5342H61.6958L61.854 24.692Z" fill="white" fill-opacity="0.2"/>
<path d="M61.854 24.692V65.209C61.854 71.0152 57.141 75.7327 51.3209 75.7327H10.5489C4.7288 75.7327 0 71.0152 0 65.209V10.5237C0 4.70174 4.7288 0 10.5489 0H35.8851L36.2647 0.362886L61.68 24.5342H61.6958L61.854 24.692Z" fill="#159C2A" fill-opacity="0.4"/>
<path d="M61.8556 24.692H45.5815C40.2201 24.692 35.8867 20.3689 35.8867 15.0203V0L36.2663 0.362886L61.6816 24.5342H61.6974L61.8556 24.692Z" fill="white" fill-opacity="0.2"/>
<path d="M61.8556 24.692H45.5815C40.2201 24.692 35.8867 20.3689 35.8867 15.0203V0L36.2663 0.362886L61.6816 24.5342H61.6974L61.8556 24.692Z" fill="#159C2A" fill-opacity="0.4"/>
<path d="M11.3789 24.5195H33.6944" stroke="#FAFAFA" stroke-width="4" stroke-linecap="round" stroke-linejoin="round"/>
<path d="M11.3789 35.9023H45.983" stroke="#FAFAFA" stroke-width="4" stroke-linecap="round" stroke-linejoin="round"/>
<path d="M11.3789 47.2812H45.983" stroke="#FAFAFA" stroke-width="4" stroke-linecap="round" stroke-linejoin="round"/>
<path d="M13.0085 65.2328C13.0085 65.2328 18.367 59.8527 23.5394 62.652C28.7117 65.4513 29.5335 67.6705 34.8022 64.5559" stroke="#FAFAFA" stroke-width="4" stroke-linecap="round" stroke-linejoin="round"/>
<g filter="url(#filter2_d_1676_3441)">
<path fill-rule="evenodd" clip-rule="evenodd" d="M76.3946 36.9247C76.82 37.3502 77.0575 37.9286 77.055 38.5328C77.0524 39.137 76.8098 39.7175 76.3808 40.1466L53.6071 62.9202C53.1476 63.38 52.5465 63.6711 51.9028 63.7455L46.3631 64.384C46.276 64.394 46.188 64.3843 46.1055 64.3557C46.023 64.327 45.9481 64.2801 45.8865 64.2185C45.8248 64.1568 45.7779 64.082 45.7493 63.9994C45.7206 63.9169 45.7109 63.8289 45.7209 63.7418L46.3599 58.2025C46.434 57.5588 46.7249 56.9575 47.1847 56.4978L69.9551 33.7274C70.168 33.5145 70.4204 33.3452 70.6979 33.2293C70.9754 33.1134 71.2726 33.0531 71.5724 33.0519C71.8722 33.0506 72.1688 33.1084 72.4453 33.222C72.7218 33.3356 72.9727 33.5028 73.1838 33.7139L76.3946 36.9247ZM63.887 39.802L70.3058 46.2208L72.735 43.7916L66.3166 37.3732L63.887 39.802Z" fill="white" fill-opacity="0.2" shape-rendering="crispEdges"/>
<path fill-rule="evenodd" clip-rule="evenodd" d="M76.3946 36.9247C76.82 37.3502 77.0575 37.9286 77.055 38.5328C77.0524 39.137 76.8098 39.7175 76.3808 40.1466L53.6071 62.9202C53.1476 63.38 52.5465 63.6711 51.9028 63.7455L46.3631 64.384C46.276 64.394 46.188 64.3843 46.1055 64.3557C46.023 64.327 45.9481 64.2801 45.8865 64.2185C45.8248 64.1568 45.7779 64.082 45.7493 63.9994C45.7206 63.9169 45.7109 63.8289 45.7209 63.7418L46.3599 58.2025C46.434 57.5588 46.7249 56.9575 47.1847 56.4978L69.9551 33.7274C70.168 33.5145 70.4204 33.3452 70.6979 33.2293C70.9754 33.1134 71.2726 33.0531 71.5724 33.0519C71.8722 33.0506 72.1688 33.1084 72.4453 33.222C72.7218 33.3356 72.9727 33.5028 73.1838 33.7139L76.3946 36.9247ZM63.887 39.802L70.3058 46.2208L72.735 43.7916L66.3166 37.3732L63.887 39.802Z" fill="#159C2A" fill-opacity="0.4" shape-rendering="crispEdges"/>
</g>
<defs>
<filter id="filter2_d_1676_3441" x="39.7188" y="31.0508" width="43.3359" height="43.3359" filterUnits="userSpaceOnUse" color-interpolation-filters="sRGB">
<feFlood flood-opacity="0" result="BackgroundImageFix"/>
<feColorMatrix in="SourceAlpha" type="matrix" values="0 0 0 0 0 0 0 0 0 0 0 0 0 0 0 0 0 0 127 0" result="hardAlpha"/>
<feOffset dy="4"/>
<feGaussianBlur stdDeviation="3"/>
<feComposite in2="hardAlpha" operator="out"/>
<feColorMatrix type="matrix" values="0 0 0 0 0.0862745 0 0 0 0 0.0862745 0 0 0 0 0.0941176 0 0 0 0.3 0"/>
<feBlend mode="normal" in2="BackgroundImageFix" result="effect1_dropShadow_1676_3441"/>
<feBlend mode="normal" in="BackgroundImageFix" in2="effect1_dropShadow_1676_3441" result="BackgroundImageFix"/>
<feBlend mode="normal" in="SourceGraphic" in2="BackgroundImageFix" result="shape"/>
</filter>
<linearGradient id="paint0_linear_1676_3441" x1="30.8215" y1="23.5742" x2="30.8215" y2="82.3731" gradientUnits="userSpaceOnUse">
<stop stop-color="#106C1E"/>
<stop offset="1" stop-color="#159C2A"/>
</linearGradient>
</defs>
</svg>
