<svg width="47" height="39" viewBox="0 0 47 39" fill="none" xmlns="http://www.w3.org/2000/svg">
<path d="M5.4375 14.5019C7.60454 6.71519 14.7416 1 23.2092 1C33.3938 1 41.6511 9.2667 41.6511 19.4629C41.6511 19.6588 41.6511 19.8596 41.6413 20.0555L45.9984 14.6652" stroke="#1E812D" stroke-width="2" stroke-linecap="round" stroke-linejoin="round"/>
<path d="M40.9646 24.4812C38.7828 32.2435 31.6605 37.9293 23.2075 37.9293C13.0229 37.9293 4.76562 29.6626 4.76562 19.4664C4.76562 19.2949 4.76563 19.1235 4.77052 18.957L10.8069 23.8886" stroke="#1E812D" stroke-width="2" stroke-linecap="round" stroke-linejoin="round"/>
<path d="M1 25.4652L4.77366 18.9531" stroke="#1E812D" stroke-width="2" stroke-linecap="round" stroke-linejoin="round"/>
<path d="M36.3984 15.8633L41.6412 20.0537" stroke="#1E812D" stroke-width="2" stroke-linecap="round" stroke-linejoin="round"/>
<path d="M23.1904 27.3203L23.7422 27.2637C24.9537 27.1378 25.9597 26.7411 26.7002 26.0244C27.4363 25.3119 27.8105 24.4279 27.8105 23.4033C27.8105 22.3823 27.4411 21.5538 26.6621 21.0137L26.6592 21.0127L26.3867 20.8398C25.7214 20.4486 24.852 20.1392 23.8008 19.9014L23.1904 19.7627V27.3203ZM22.1855 11.6816C21.0624 11.7702 20.1132 12.1098 19.3867 12.7383L19.2139 12.8877V12.9043C18.5809 13.5342 18.2676 14.3576 18.2676 15.3359C18.2676 16.384 18.6041 17.2382 19.3594 17.7988C20.0325 18.2984 20.9658 18.6666 22.1162 18.9219L22.7246 19.0566V11.6387L22.1855 11.6816ZM22.7246 19.6816L22.3262 19.5986C21.5431 19.4363 20.912 19.2701 20.4414 19.1133C19.9896 18.9627 19.4904 18.7275 18.9414 18.4102C18.0286 17.8407 17.5391 16.8853 17.5391 15.4121C17.5392 14.2241 17.9444 13.275 18.7529 12.5146C19.561 11.7548 20.7117 11.2948 22.2656 11.1885L22.7314 11.1572V9.24707C22.7314 9.23645 22.7353 9.21865 22.7559 9.19922C22.7763 9.1799 22.8092 9.16406 22.8516 9.16406H23.0645C23.112 9.16414 23.1454 9.18159 23.165 9.2002C23.1845 9.21867 23.1904 9.2371 23.1904 9.25293V11.1494L23.6484 11.1885C24.973 11.2997 26.0005 11.6952 26.7744 12.3496C27.219 12.7253 27.5586 13.1543 27.8027 13.6387V13.6396C27.8703 13.7747 27.8623 13.9323 27.7705 14.0703C27.683 14.2016 27.5203 14.2939 27.3164 14.2939C27.1198 14.2938 26.9747 14.1787 26.9277 14.0508L26.9268 14.0469L26.8584 13.8818C26.6883 13.5022 26.4346 13.1499 26.0996 12.8232V12.8223L26.0977 12.8203C25.5018 12.2464 24.7164 11.8918 23.7637 11.75L23.1904 11.6641V19.1836L23.5908 19.2646C24.6474 19.479 25.5085 19.7209 26.1816 19.9863C26.8593 20.2536 27.318 20.534 27.5986 20.8096L27.6025 20.8135C28.2101 21.3997 28.539 22.2235 28.5391 23.3564C28.5348 24.4451 28.1292 25.4065 27.2959 26.2646C26.4832 27.1015 25.2904 27.6113 23.6514 27.7402L23.1904 27.7764V29.5928C23.1904 29.659 23.1244 29.7636 22.9766 29.7637C22.81 29.7637 22.7247 29.6415 22.7246 29.5576V27.7754L22.2637 27.7402C20.8278 27.6282 19.687 27.2225 18.8037 26.541L18.8018 26.54L18.5889 26.3652C18.1172 25.9504 17.816 25.4767 17.6641 24.9443L17.6621 24.9395C17.6357 24.8502 17.6528 24.7473 17.7246 24.6572C17.7902 24.5753 17.9039 24.5156 18.0479 24.5156C18.3621 24.5158 18.6166 24.7015 18.707 24.9404C18.8847 25.4134 19.1653 25.8343 19.5479 26.2012V26.2021C20.1778 26.8087 21.079 27.1339 22.1768 27.2402L22.7246 27.293V19.6816Z" stroke="#1E812D"/>
</svg>
