<svg width="66" height="60" viewBox="0 0 66 60" fill="none" xmlns="http://www.w3.org/2000/svg">
<path d="M65.0401 49.358H61.6259L55.687 37.125C55.214 36.1514 53.9522 35.8739 53.1119 36.5569L49.3531 39.6118L44.5103 34.7854C44.1945 34.472 43.7671 34.295 43.3218 34.295H35.9795L30.6792 21.7486H32.3863C32.917 21.7486 33.3467 21.3204 33.3467 20.7917V20.3671C33.3467 19.8384 32.917 19.4102 32.3863 19.4102H19.9887C19.0571 19.4102 18.3044 20.1649 18.308 21.0919L18.3536 31.0881H10.6175C10.1421 31.0881 9.68836 31.2891 9.36902 31.6419L5.92717 35.448C5.64865 35.7554 5.49499 36.155 5.49499 36.5688V40.1788L3.32927 42.1249C2.97512 42.4431 2.77344 42.8952 2.77344 43.3689V47.5949C2.77344 48.5195 3.52616 49.2695 4.45415 49.2695H6.58385C7.44581 44.8366 11.3631 41.4898 16.063 41.4898C20.763 41.4898 24.6815 44.8366 25.5435 49.2695H29.8737C30.7356 44.8366 34.6529 41.4898 39.3529 41.4898C44.0529 41.4898 47.9713 44.8366 48.8333 49.2695H52.1275L54.0483 51.4488H65.0401C65.5708 51.4488 66.0005 51.0206 66.0005 50.4919V50.3149C66.0005 49.7862 65.5708 49.358 65.0401 49.358Z" fill="url(#paint0_linear_1676_1477)"/>
<path d="M31.7613 34.6905H24.7456C24.2161 34.6905 23.7852 34.2622 23.7852 33.7335V22.6405C23.7852 22.1118 24.2161 21.6836 24.7456 21.6836H27.0445C27.4299 21.6836 27.778 21.9133 27.9293 22.2673L32.6461 33.3603C32.915 33.9919 32.4492 34.6905 31.7613 34.6905Z" fill="white" fill-opacity="0.34"/>
<path d="M24.7451 22.1836H27.0449C27.2298 22.1837 27.3961 22.2939 27.4688 22.4629L32.1855 33.5557L32.1865 33.5566C32.313 33.8546 32.0947 34.1902 31.7617 34.1904H24.7451C24.4899 34.1902 24.2852 33.9837 24.2852 33.7334V22.6406C24.2852 22.3903 24.4899 22.1838 24.7451 22.1836Z" stroke="white" stroke-opacity="0.54"/>
<path d="M16.1222 59.1646C20.3987 59.1646 23.8655 55.7104 23.8655 51.4495C23.8655 47.1886 20.3987 43.7344 16.1222 43.7344C11.8457 43.7344 8.37891 47.1886 8.37891 51.4495C8.37891 55.7104 11.8457 59.1646 16.1222 59.1646Z" fill="#159C2A"/>
<path d="M16.1222 59.1646C20.3987 59.1646 23.8655 55.7104 23.8655 51.4495C23.8655 47.1886 20.3987 43.7344 16.1222 43.7344C11.8457 43.7344 8.37891 47.1886 8.37891 51.4495C8.37891 55.7104 11.8457 59.1646 16.1222 59.1646Z" fill="url(#paint1_linear_1676_1477)"/>
<path d="M39.3722 59.1646C43.6487 59.1646 47.1155 55.7104 47.1155 51.4495C47.1155 47.1886 43.6487 43.7344 39.3722 43.7344C35.0957 43.7344 31.6289 47.1886 31.6289 51.4495C31.6289 55.7104 35.0957 59.1646 39.3722 59.1646Z" fill="#159C2A"/>
<path d="M39.3722 59.1646C43.6487 59.1646 47.1155 55.7104 47.1155 51.4495C47.1155 47.1886 43.6487 43.7344 39.3722 43.7344C35.0957 43.7344 31.6289 47.1886 31.6289 51.4495C31.6289 55.7104 35.0957 59.1646 39.3722 59.1646Z" fill="url(#paint2_linear_1676_1477)"/>
<path d="M16.1233 54.936C18.0553 54.936 19.6216 53.3754 19.6216 51.4504C19.6216 49.5254 18.0553 47.9648 16.1233 47.9648C14.1912 47.9648 12.625 49.5254 12.625 51.4504C12.625 53.3754 14.1912 54.936 16.1233 54.936Z" fill="white" fill-opacity="0.34"/>
<path d="M39.4006 54.9672C41.3327 54.9672 42.8989 53.4067 42.8989 51.4817C42.8989 49.5566 41.3327 47.9961 39.4006 47.9961C37.4686 47.9961 35.9023 49.5566 35.9023 51.4817C35.9023 53.4067 37.4686 54.9672 39.4006 54.9672Z" fill="white" fill-opacity="0.34"/>
<ellipse cx="16.3873" cy="16.3874" rx="16.3873" ry="16.3874" fill="white" fill-opacity="0.22"/>
<ellipse cx="16.3873" cy="16.3874" rx="16.3873" ry="16.3874" fill="#159C2A" fill-opacity="0.4"/>
<path d="M20.29 19.3714C20.29 20.118 20.1287 20.8198 19.8063 21.4769C19.4967 22.1339 19.0324 22.6864 18.4133 23.1343C17.807 23.5823 17.0847 23.8511 16.2463 23.9407V25.7549H14.9888V23.9407C13.7763 23.8063 12.796 23.3658 12.0479 22.6192C11.2998 21.8726 10.9258 20.887 10.9258 19.6626H13.2862C13.3249 20.245 13.4861 20.7302 13.7699 21.1185C14.0536 21.4918 14.4599 21.7307 14.9888 21.8352V16.9076C14.1246 16.6538 13.4216 16.3999 12.8799 16.1461C12.3381 15.8773 11.8738 15.4592 11.4869 14.8918C11.1128 14.3244 10.9258 13.5479 10.9258 12.5624C10.9258 11.323 11.2998 10.3002 12.0479 9.49383C12.796 8.67256 13.7763 8.19474 14.9888 8.06035V6.24609H16.2463V8.06035C17.3814 8.1798 18.2907 8.5979 18.9743 9.31464C19.6708 10.0165 20.0642 10.987 20.1545 12.2264H17.7941C17.7554 11.7635 17.6007 11.3529 17.3298 10.9945C17.0589 10.6212 16.6978 10.3674 16.2463 10.233V15.071C17.1105 15.3099 17.8135 15.5637 18.3552 15.8325C18.8969 16.0864 19.3548 16.497 19.7289 17.0644C20.1029 17.6169 20.29 18.3859 20.29 19.3714ZM13.1701 12.428C13.1701 13.0402 13.3249 13.518 13.6344 13.8615C13.9569 14.2049 14.4083 14.4812 14.9888 14.6902V10.1658C14.4341 10.2404 13.9891 10.4719 13.6538 10.8601C13.3313 11.2484 13.1701 11.771 13.1701 12.428ZM16.2463 21.8352C16.8139 21.7307 17.2589 21.4694 17.5813 21.0513C17.9038 20.6183 18.065 20.1031 18.065 19.5058C18.065 18.9085 17.9038 18.4456 17.5813 18.1171C17.2718 17.7737 16.8268 17.4974 16.2463 17.2884V21.8352Z" fill="white"/>
<defs>
<linearGradient id="paint0_linear_1676_1477" x1="34.387" y1="19.4102" x2="34.387" y2="51.4488" gradientUnits="userSpaceOnUse">
<stop stop-color="#159C2A"/>
<stop offset="1" stop-color="#106C1E"/>
</linearGradient>
<linearGradient id="paint1_linear_1676_1477" x1="16.1222" y1="43.7344" x2="16.1222" y2="59.1646" gradientUnits="userSpaceOnUse">
<stop stop-color="#106C1E"/>
<stop offset="1" stop-color="#159C2A"/>
</linearGradient>
<linearGradient id="paint2_linear_1676_1477" x1="39.3722" y1="43.7344" x2="39.3722" y2="59.1646" gradientUnits="userSpaceOnUse">
<stop stop-color="#106C1E"/>
<stop offset="1" stop-color="#159C2A"/>
</linearGradient>
</defs>
</svg>
