<svg width="55" height="56" viewBox="0 0 55 56" fill="none" xmlns="http://www.w3.org/2000/svg">
<path d="M42.0821 22.3896C34.7405 12.2483 31.0697 10.2382 31.0697 10.2382H31.0942C31.5343 10.2382 31.8912 9.88457 31.8912 9.44863C31.8912 9.01269 31.5343 8.65909 31.0942 8.65909H31.2392L36.5515 3.49238C36.5515 3.49238 34.3298 1.48382 32.9296 1.72278C31.5294 1.96174 30.4666 2.87076 29.2115 2.72706C27.9564 2.58336 24.6621 0 24.6621 0C24.6621 0 21.3678 2.58336 20.1127 2.72706C18.8576 2.87076 17.7948 1.96174 16.3946 1.72278C14.9944 1.48382 12.7727 3.49238 12.7727 3.49238L18.085 8.65909H18.1453C17.7052 8.65909 17.3482 9.01269 17.3482 9.44863C17.3482 9.88457 17.7052 10.2382 18.1453 10.2382H18.2545C18.2545 10.2382 14.5837 12.2467 7.24204 22.3896C-0.0979501 32.5309 1.54348 39.0378 1.54348 39.0378C1.54348 39.0378 1.63965 46.1178 6.0831 51.094C10.5265 56.0686 14.2935 55.6859 14.2935 55.6859H35.029C35.029 55.6859 38.796 56.0686 43.2395 51.094C47.6829 46.1194 47.7791 39.0378 47.7791 39.0378C47.7791 39.0378 49.4205 32.5309 42.0805 22.3896H42.0821Z" fill="white"/>
<path d="M42.0821 22.3896C34.7405 12.2483 31.0697 10.2382 31.0697 10.2382H31.0942C31.5343 10.2382 31.8912 9.88457 31.8912 9.44863C31.8912 9.01269 31.5343 8.65909 31.0942 8.65909H31.2392L36.5515 3.49238C36.5515 3.49238 34.3298 1.48382 32.9296 1.72278C31.5294 1.96174 30.4666 2.87076 29.2115 2.72706C27.9564 2.58336 24.6621 0 24.6621 0C24.6621 0 21.3678 2.58336 20.1127 2.72706C18.8576 2.87076 17.7948 1.96174 16.3946 1.72278C14.9944 1.48382 12.7727 3.49238 12.7727 3.49238L18.085 8.65909H18.1453C17.7052 8.65909 17.3482 9.01269 17.3482 9.44863C17.3482 9.88457 17.7052 10.2382 18.1453 10.2382H18.2545C18.2545 10.2382 14.5837 12.2467 7.24204 22.3896C-0.0979501 32.5309 1.54348 39.0378 1.54348 39.0378C1.54348 39.0378 1.63965 46.1178 6.0831 51.094C10.5265 56.0686 14.2935 55.6859 14.2935 55.6859H35.029C35.029 55.6859 38.796 56.0686 43.2395 51.094C47.6829 46.1194 47.7791 39.0378 47.7791 39.0378C47.7791 39.0378 49.4205 32.5309 42.0805 22.3896H42.0821Z" fill="url(#paint0_linear_1676_1511)"/>
<path d="M31.06 8.58984H17.9846C17.54 8.58984 17.1797 8.962 17.1797 9.42108C17.1797 9.88016 17.54 10.2523 17.9846 10.2523H31.06C31.5045 10.2523 31.8648 9.88016 31.8648 9.42108C31.8648 8.962 31.5045 8.58984 31.06 8.58984Z" fill="white"/>
<path d="M18.0416 38.5156H3.81643C3.29002 38.5156 2.86328 38.9424 2.86328 39.4688V41.5635C2.86328 42.0899 3.29002 42.5166 3.81643 42.5166H18.0416C18.568 42.5166 18.9948 42.0899 18.9948 41.5635V39.4688C18.9948 38.9424 18.568 38.5156 18.0416 38.5156Z" fill="white" fill-opacity="0.22"/>
<path d="M18.0416 38.5156H3.81643C3.29002 38.5156 2.86328 38.9424 2.86328 39.4688V41.5635C2.86328 42.0899 3.29002 42.5166 3.81643 42.5166H18.0416C18.568 42.5166 18.9948 42.0899 18.9948 41.5635V39.4688C18.9948 38.9424 18.568 38.5156 18.0416 38.5156Z" fill="#159C2A" fill-opacity="0.4"/>
<path d="M15.4869 42.8867H1.26174C0.735333 42.8867 0.308594 43.3135 0.308594 43.8399V45.9346C0.308594 46.461 0.735333 46.8877 1.26174 46.8877H15.4869C16.0133 46.8877 16.4401 46.461 16.4401 45.9346V43.8399C16.4401 43.3135 16.0133 42.8867 15.4869 42.8867Z" fill="white" fill-opacity="0.22"/>
<path d="M15.4869 42.8867H1.26174C0.735333 42.8867 0.308594 43.3135 0.308594 43.8399V45.9346C0.308594 46.461 0.735333 46.8877 1.26174 46.8877H15.4869C16.0133 46.8877 16.4401 46.461 16.4401 45.9346V43.8399C16.4401 43.3135 16.0133 42.8867 15.4869 42.8867Z" fill="#159C2A" fill-opacity="0.4"/>
<path d="M17.3033 47.2578H3.07815C2.55174 47.2578 2.125 47.6846 2.125 48.211V50.3057C2.125 50.8321 2.55174 51.2588 3.07815 51.2588H17.3033C17.8297 51.2588 18.2565 50.8321 18.2565 50.3057V48.211C18.2565 47.6846 17.8297 47.2578 17.3033 47.2578Z" fill="white" fill-opacity="0.22"/>
<path d="M17.3033 47.2578H3.07815C2.55174 47.2578 2.125 47.6846 2.125 48.211V50.3057C2.125 50.8321 2.55174 51.2588 3.07815 51.2588H17.3033C17.8297 51.2588 18.2565 50.8321 18.2565 50.3057V48.211C18.2565 47.6846 17.8297 47.2578 17.3033 47.2578Z" fill="#159C2A" fill-opacity="0.4"/>
<path d="M15.1783 51.6289H0.953149C0.426739 51.6289 0 52.0556 0 52.5821V54.6768C0 55.2032 0.426739 55.6299 0.953149 55.6299H15.1783C15.7047 55.6299 16.1315 55.2032 16.1315 54.6768V52.5821C16.1315 52.0556 15.7047 51.6289 15.1783 51.6289Z" fill="white" fill-opacity="0.22"/>
<path d="M15.1783 51.6289H0.953149C0.426739 51.6289 0 52.0556 0 52.5821V54.6768C0 55.2032 0.426739 55.6299 0.953149 55.6299H15.1783C15.7047 55.6299 16.1315 55.2032 16.1315 54.6768V52.5821C16.1315 52.0556 15.7047 51.6289 15.1783 51.6289Z" fill="#159C2A" fill-opacity="0.4"/>
<circle cx="38.6523" cy="39.3437" r="16.3476" fill="white" fill-opacity="0.22"/>
<circle cx="38.6523" cy="39.3437" r="16.3476" fill="#159C2A" fill-opacity="0.4"/>
<path d="M43.0842 42.5111C43.0842 43.2428 42.9124 43.9305 42.569 44.5744C42.2392 45.2183 41.7446 45.7597 41.0851 46.1987C40.4394 46.6377 39.6699 46.9011 38.7769 46.9889V48.7668H37.4373V46.9889C36.1458 46.8572 35.1016 46.4255 34.3047 45.6938C33.5078 44.9622 33.1094 43.9964 33.1094 42.7964H35.6237C35.6649 43.3671 35.8366 43.8427 36.1389 44.2232C36.4412 44.589 36.874 44.8232 37.4373 44.9256V40.0966C36.5167 39.8478 35.768 39.5991 35.1909 39.3503C34.6138 39.0869 34.1192 38.6772 33.707 38.1211C33.3086 37.565 33.1094 36.8041 33.1094 35.8383C33.1094 34.6238 33.5078 33.6214 34.3047 32.8312C35.1016 32.0263 36.1458 31.5581 37.4373 31.4264V29.6484H38.7769V31.4264C39.9859 31.5434 40.9546 31.9532 41.6828 32.6556C42.4247 33.3433 42.8437 34.2945 42.9399 35.5091H40.4256C40.3844 35.0554 40.2195 34.653 39.931 34.3018C39.6425 33.936 39.2578 33.6872 38.7769 33.5555V38.2967C39.6974 38.5308 40.4462 38.7796 41.0233 39.043C41.6003 39.2918 42.0881 39.6942 42.4865 40.2503C42.885 40.7917 43.0842 41.5453 43.0842 42.5111ZM35.5 35.7066C35.5 36.3066 35.6649 36.7748 35.9947 37.1114C36.3381 37.448 36.819 37.7187 37.4373 37.9236V33.4897C36.8465 33.5628 36.3725 33.7897 36.0153 34.1701C35.6718 34.5506 35.5 35.0628 35.5 35.7066ZM38.7769 44.9256C39.3814 44.8232 39.8554 44.5671 40.1989 44.1573C40.5424 43.733 40.7141 43.2281 40.7141 42.6428C40.7141 42.0575 40.5424 41.6038 40.1989 41.2819C39.8692 40.9453 39.3952 40.6746 38.7769 40.4698V44.9256Z" fill="white"/>
<defs>
<linearGradient id="paint0_linear_1676_1511" x1="24.6613" y1="0" x2="24.6613" y2="55.6927" gradientUnits="userSpaceOnUse">
<stop stop-color="#159C2A"/>
<stop offset="1" stop-color="#106C1E"/>
</linearGradient>
</defs>
</svg>
