<svg width="41" height="54" viewBox="0 0 41 54" fill="none" xmlns="http://www.w3.org/2000/svg">
<path d="M32.4117 0H4.29674C4.14993 0 4.00313 0.00716111 3.8599 0.0214833C2.02305 0.211253 0.52635 1.5647 0.11458 3.32634C0.0751929 3.50178 0.0393868 3.67723 0.0214837 3.85984C0.00716123 4.00306 0 4.14986 0 4.29667V44.5063C0 46.8695 1.93353 48.803 4.29674 48.803H32.4117C32.5585 48.803 32.7053 48.7958 32.8486 48.7815C33.8511 48.6777 34.7499 48.2301 35.4302 47.5534C35.4338 47.5498 35.4409 47.5462 35.4445 47.539C36.0031 46.9805 36.4077 46.2679 36.5903 45.4731C36.6297 45.2976 36.6655 45.1222 36.6834 44.9396C36.6977 44.7963 36.7049 44.6495 36.7049 44.5027V4.29667C36.7049 1.9335 34.7713 0 32.4081 0H32.4117Z" fill="#159C2A"/>
<path d="M32.4117 0H4.29674C4.14993 0 4.00313 0.00716111 3.8599 0.0214833C2.02305 0.211253 0.52635 1.5647 0.11458 3.32634C0.0751929 3.50178 0.0393868 3.67723 0.0214837 3.85984C0.00716123 4.00306 0 4.14986 0 4.29667V44.5063C0 46.8695 1.93353 48.803 4.29674 48.803H32.4117C32.5585 48.803 32.7053 48.7958 32.8486 48.7815C33.8511 48.6777 34.7499 48.2301 35.4302 47.5534C35.4338 47.5498 35.4409 47.5462 35.4445 47.539C36.0031 46.9805 36.4077 46.2679 36.5903 45.4731C36.6297 45.2976 36.6655 45.1222 36.6834 44.9396C36.6977 44.7963 36.7049 44.6495 36.7049 44.5027V4.29667C36.7049 1.9335 34.7713 0 32.4081 0H32.4117Z" fill="url(#paint0_linear_1676_1501)"/>
<path d="M36.7047 4.98828H8.58971C8.4429 4.98828 8.2961 4.99544 8.15287 5.00976C6.31602 5.19953 4.81932 6.55298 4.40755 8.31462C4.36816 8.49007 4.33236 8.66551 4.31445 8.84812C4.30013 8.99134 4.29297 9.13815 4.29297 9.28495V49.4946C4.29297 51.8578 6.2265 53.7913 8.58971 53.7913H36.7047C36.8515 53.7913 36.9983 53.7841 37.1415 53.7698C38.1441 53.6659 39.0428 53.2184 39.7231 52.5416C39.7267 52.5381 39.7339 52.5345 39.7375 52.5273C40.296 51.9688 40.7007 51.2562 40.8833 50.4613C40.9227 50.2859 40.9585 50.1105 40.9764 49.9278C40.9907 49.7846 40.9978 49.6378 40.9978 49.491V9.28495C40.9978 6.92178 39.0643 4.98828 36.7011 4.98828H36.7047Z" fill="white" fill-opacity="0.22"/>
<path d="M36.7047 4.98828H8.58971C8.4429 4.98828 8.2961 4.99544 8.15287 5.00976C6.31602 5.19953 4.81932 6.55298 4.40755 8.31462C4.36816 8.49007 4.33236 8.66551 4.31445 8.84812C4.30013 8.99134 4.29297 9.13815 4.29297 9.28495V49.4946C4.29297 51.8578 6.2265 53.7913 8.58971 53.7913H36.7047C36.8515 53.7913 36.9983 53.7841 37.1415 53.7698C38.1441 53.6659 39.0428 53.2184 39.7231 52.5416C39.7267 52.5381 39.7339 52.5345 39.7375 52.5273C40.296 51.9688 40.7007 51.2562 40.8833 50.4613C40.9227 50.2859 40.9585 50.1105 40.9764 49.9278C40.9907 49.7846 40.9978 49.6378 40.9978 49.491V9.28495C40.9978 6.92178 39.0643 4.98828 36.7011 4.98828H36.7047Z" fill="#159C2A" fill-opacity="0.32"/>
<path d="M33.2581 36.293H12.1718C11.5786 36.293 11.0977 36.7739 11.0977 37.3671C11.0977 37.9604 11.5786 38.4413 12.1718 38.4413H33.2581C33.8513 38.4413 34.3323 37.9604 34.3323 37.3671C34.3323 36.7739 33.8513 36.293 33.2581 36.293Z" fill="white"/>
<path d="M33.2581 42.7383H12.1718C11.5786 42.7383 11.0977 43.2192 11.0977 43.8124C11.0977 44.4057 11.5786 44.8866 12.1718 44.8866H33.2581C33.8513 44.8866 34.3323 44.4057 34.3323 43.8124C34.3323 43.2192 33.8513 42.7383 33.2581 42.7383Z" fill="white"/>
<path d="M28.1749 24.0816C28.1749 24.8837 27.9855 25.6377 27.6069 26.3436C27.2434 27.0494 26.6982 27.643 25.9713 28.1243C25.2595 28.6055 24.4114 28.8943 23.4269 28.9905V30.9397H21.9503V28.9905C20.5267 28.8462 19.3757 28.3729 18.4973 27.5708C17.6189 26.7687 17.1797 25.7099 17.1797 24.3944H19.9512C19.9966 25.0201 20.1859 25.5415 20.5191 25.9585C20.8523 26.3596 21.3294 26.6163 21.9503 26.7286V21.4346C20.9356 21.1619 20.1102 20.8892 19.4741 20.6165C18.838 20.3277 18.2928 19.8785 17.8385 19.2689C17.3993 18.6593 17.1797 17.8251 17.1797 16.7663C17.1797 15.4348 17.6189 14.3359 18.4973 13.4697C19.3757 12.5873 20.5267 12.074 21.9503 11.9296V9.98047H23.4269V11.9296C24.7597 12.0579 25.8274 12.5071 26.6301 13.2772C27.4479 14.0311 27.9098 15.0739 28.0158 16.4054H25.2443C25.1989 15.9081 25.0172 15.4669 24.6991 15.0819C24.3811 14.6808 23.957 14.4081 23.4269 14.2638V19.4614C24.4416 19.7181 25.267 19.9908 25.9031 20.2796C26.5392 20.5523 27.0769 20.9935 27.5161 21.6031C27.9553 22.1966 28.1749 23.0228 28.1749 24.0816ZM19.8149 16.622C19.8149 17.2797 19.9966 17.793 20.3601 18.162C20.7387 18.531 21.2688 18.8278 21.9503 19.0524V14.1916C21.2991 14.2718 20.7766 14.5204 20.3828 14.9375C20.0042 15.3546 19.8149 15.9161 19.8149 16.622ZM23.4269 26.7286C24.0933 26.6163 24.6158 26.3355 24.9944 25.8864C25.3731 25.4211 25.5624 24.8677 25.5624 24.226C25.5624 23.5843 25.3731 23.087 24.9944 22.7341C24.631 22.3651 24.1085 22.0683 23.4269 21.8437V26.7286Z" fill="white"/>
<defs>
<linearGradient id="paint0_linear_1676_1501" x1="18.3524" y1="0" x2="18.3524" y2="48.803" gradientUnits="userSpaceOnUse">
<stop stop-color="#159C2A"/>
<stop offset="1" stop-color="#106C1E"/>
</linearGradient>
</defs>
</svg>
