<svg width="55" height="67" viewBox="0 0 55 67" fill="none" xmlns="http://www.w3.org/2000/svg">
<path d="M46.5739 59.725H45.5958V11.9916H45.6256V2.70936C45.6256 1.21108 44.4145 0 42.9163 0H25.216C23.7204 0 22.5066 1.21108 22.5066 2.70936V19.9083H7.61601C4.62217 19.9083 2.19729 22.3332 1.92635 25.3271V59.725H0.948276C0.425369 59.725 0 60.1504 0 60.6733C0 61.1962 0.425369 61.6243 0.948276 61.6243H46.5739C47.0968 61.6243 47.5222 61.1989 47.5222 60.6733C47.5222 60.1477 47.0968 59.725 46.5739 59.725ZM11.7288 44.5337C11.7288 45.631 10.8401 46.5223 9.74286 46.5223H8.11724C7.01995 46.5223 6.13128 45.631 6.13128 44.5337V39.4184C6.13128 38.3211 7.01995 37.4297 8.11724 37.4297H9.74286C10.8401 37.4297 11.7288 38.3211 11.7288 39.4184V44.5337ZM11.7288 33.2763C11.7288 34.3736 10.8401 35.2623 9.74286 35.2623H8.11724C7.01995 35.2623 6.13128 34.3736 6.13128 33.2763V28.1583C6.13128 27.061 7.01995 26.1724 8.11724 26.1724H9.74286C10.8401 26.1724 11.7288 27.061 11.7288 28.1583V33.2763ZM20.2796 44.5337C20.2796 45.631 19.3909 46.5223 18.2936 46.5223H16.668C15.5707 46.5223 14.6793 45.631 14.6793 44.5337V39.4184C14.6793 38.3211 15.5707 37.4297 16.668 37.4297H18.2936C19.3909 37.4297 20.2796 38.3211 20.2796 39.4184V44.5337ZM20.2796 33.2763C20.2796 34.3736 19.3909 35.2623 18.2936 35.2623H16.668C15.5707 35.2623 14.6793 34.3736 14.6793 33.2763V28.1583C14.6793 27.061 15.5707 26.1724 16.668 26.1724H18.2936C19.3909 26.1724 20.2796 27.061 20.2796 28.1583V33.2763ZM27.0828 9.43398C27.0828 8.33669 27.9714 7.44802 29.0687 7.44802H30.6943C31.7916 7.44802 32.683 8.33669 32.683 9.43398V14.5519C32.683 15.6492 31.7916 16.5379 30.6943 16.5379H29.0687C27.9714 16.5379 27.0828 15.6492 27.0828 14.5519V9.43398ZM32.7047 36.1943C32.7047 37.2916 31.8133 38.1829 30.716 38.1829H29.0904C27.9931 38.1829 27.1044 37.2916 27.1044 36.1943V31.0763C27.1044 29.979 27.9931 29.0904 29.0904 29.0904H30.716C31.8133 29.0904 32.7047 29.979 32.7047 31.0763V36.1943ZM32.7047 25.3487C32.7047 26.446 31.8133 27.3374 30.716 27.3374H29.0904C27.9931 27.3374 27.1044 26.446 27.1044 25.3487V20.2308C27.1044 19.1335 27.9931 18.2448 29.0904 18.2448H30.716C31.8133 18.2448 32.7047 19.1335 32.7047 20.2308V25.3487ZM35.6335 9.43398C35.6335 8.33669 36.5222 7.44802 37.6195 7.44802H39.2451C40.3424 7.44802 41.231 8.33669 41.231 9.43398V14.5519C41.231 15.6492 40.3424 16.5379 39.2451 16.5379H37.6195C36.5222 16.5379 35.6335 15.6492 35.6335 14.5519V9.43398ZM41.2527 36.1943C41.2527 37.2916 40.364 38.1829 39.2667 38.1829H37.6411C36.5438 38.1829 35.6552 37.2916 35.6552 36.1943V31.0763C35.6552 29.979 36.5438 29.0904 37.6411 29.0904H39.2667C40.364 29.0904 41.2527 29.979 41.2527 31.0763V36.1943ZM41.2527 25.3487C41.2527 26.446 40.364 27.3374 39.2667 27.3374H37.6411C36.5438 27.3374 35.6552 26.446 35.6552 25.3487V20.2308C35.6552 19.1335 36.5438 18.2448 37.6411 18.2448H39.2667C40.364 18.2448 41.2527 19.1335 41.2527 20.2308V25.3487Z" fill="url(#paint0_linear_1676_1523)"/>
<ellipse cx="36.1699" cy="47.8183" rx="18.83" ry="18.83" fill="white" fill-opacity="0.22"/>
<ellipse cx="36.1699" cy="47.8183" rx="18.83" ry="18.83" fill="#159C2A" fill-opacity="0.4"/>
<path d="M41.1834 50.7806C41.1834 51.4961 41.0154 52.1686 40.6796 52.7982C40.3571 53.4278 39.8735 53.9572 39.2286 54.3865C38.5972 54.8157 37.8448 55.0733 36.9716 55.1591V56.8977H35.6617V55.1591C34.3988 55.0304 33.3777 54.6083 32.5985 53.8928C31.8193 53.1774 31.4297 52.233 31.4297 51.0597H33.8883C33.9286 51.6177 34.0965 52.0827 34.3921 52.4548C34.6876 52.8125 35.1108 53.0414 35.6617 53.1416V48.4197C34.7615 48.1764 34.0293 47.9332 33.4651 47.6899C32.9008 47.4324 32.4171 47.0317 32.0141 46.488C31.6245 45.9442 31.4297 45.2002 31.4297 44.2558C31.4297 43.0681 31.8193 42.088 32.5985 41.3153C33.3777 40.5283 34.3988 40.0704 35.6617 39.9417V38.2031H36.9716V39.9417C38.1538 40.0561 39.101 40.4568 39.813 41.1436C40.5385 41.8161 40.9483 42.7462 41.0423 43.9338H38.5837C38.5434 43.4903 38.3822 43.0968 38.1001 42.7533C37.818 42.3956 37.4418 42.1524 36.9716 42.0236V46.6597C37.8717 46.8886 38.6039 47.1319 39.1682 47.3894C39.7324 47.6327 40.2094 48.0262 40.599 48.5699C40.9886 49.0993 41.1834 49.8362 41.1834 50.7806ZM33.7673 44.127C33.7673 44.7137 33.9286 45.1715 34.251 45.5007C34.5869 45.8298 35.0571 46.0945 35.6617 46.2948V41.9592C35.084 42.0308 34.6205 42.2525 34.2712 42.6246C33.9353 42.9966 33.7673 43.4974 33.7673 44.127ZM36.9716 53.1416C37.5627 53.0414 38.0262 52.791 38.3621 52.3904C38.6979 51.9754 38.8659 51.4818 38.8659 50.9094C38.8659 50.3371 38.6979 49.8935 38.3621 49.5787C38.0396 49.2496 37.5761 48.9849 36.9716 48.7845V53.1416Z" fill="white"/>
<defs>
<linearGradient id="paint0_linear_1676_1523" x1="23.7611" y1="0" x2="23.7611" y2="61.6243" gradientUnits="userSpaceOnUse">
<stop stop-color="#159C2A"/>
<stop offset="1" stop-color="#106C1E"/>
</linearGradient>
</defs>
</svg>
