<svg width="99" height="43" viewBox="0 0 99 43" fill="none" xmlns="http://www.w3.org/2000/svg">
<path d="M56.5385 38.3575L55.1026 36L53.4615 38.3575H51L53.1544 40.4722L52.641 43L55.1026 41.8333L57.5641 43L56.9487 40.4722L59 38.3575H56.5385Z" fill="#696A6C" fill-opacity="0.9"/>
<path d="M65.5385 38.3575L64.1026 36L62.4615 38.3575H60L62.1544 40.4722L61.641 43L64.1026 41.8333L66.5641 43L65.9487 40.4722L68 38.3575H65.5385Z" fill="#696A6C" fill-opacity="0.9"/>
<path d="M74.5385 38.3575L73.1026 36L71.4615 38.3575H69L71.1544 40.4722L70.641 43L73.1026 41.8333L75.5641 43L74.9487 40.4722L77 38.3575H74.5385Z" fill="#696A6C" fill-opacity="0.9"/>
<path d="M84.5385 38.3575L83.1026 36L81.4615 38.3575H79L81.1544 40.4722L80.641 43L83.1026 41.8333L85.5641 43L84.9487 40.4722L87 38.3575H84.5385Z" fill="#696A6C" fill-opacity="0.9"/>
<path d="M93.5385 38.3575L92.1026 36L90.4615 38.3575H88L90.1544 40.4722L89.641 43L92.1026 41.8333L94.5641 43L93.9487 40.4722L96 38.3575H93.5385Z" fill="#696A6C" fill-opacity="0.9"/>
<path d="M95.8004 21.1823L98.5482 23.0931C97.6616 24.4621 95.5242 26.8206 91.8315 26.8206C87.2521 26.8206 83.832 23.1272 83.832 18.4102C83.832 13.4087 87.2812 10 91.4353 10C95.6185 10 97.665 13.4732 98.3338 15.3503L98.7008 16.3058L87.9243 20.9623C88.7496 22.6495 90.0327 23.5103 91.8314 23.5103C93.6345 23.5103 94.8846 22.585 95.8004 21.1823ZM87.343 18.1562L94.5467 15.0355C94.1505 13.9851 92.9585 13.2532 91.5553 13.2532C89.7566 13.2532 87.2521 14.9103 87.343 18.1562Z" fill="#696A6C" fill-opacity="0.9"/>
<path d="M82.4528 2V26.6474H79V2H82.4528Z" fill="#696A6C" fill-opacity="0.9"/>
<path d="M76.4537 10.5083V25.6077C76.4537 31.819 72.9427 34.3556 68.7922 34.3556C64.8852 34.3556 62.5337 31.6292 61.6468 29.3996L64.729 28.0607C65.2776 29.4297 66.6225 31.0451 68.7887 31.0451C71.4456 31.0451 73.0919 29.335 73.0919 26.1155V24.9061H72.9683C72.1761 25.9259 70.6492 26.8169 68.7234 26.8169C64.6927 26.8169 61 23.1539 61 18.4406C61 13.6934 64.6927 10 68.7234 10C70.6457 10 72.1724 10.8911 72.9683 11.8807H73.0919V10.5119H76.4538L76.4537 10.5083ZM73.3423 18.4409C73.3423 15.4796 71.4492 13.3144 69.0391 13.3144C66.5968 13.3144 64.5507 15.4796 64.5507 18.4409C64.5507 21.3722 66.5968 23.507 69.0391 23.507C71.4492 23.507 73.3423 21.3722 73.3423 18.4409Z" fill="#696A6C" fill-opacity="0.9"/>
<path d="M41.6382 18.4102C41.6382 23.2527 38.0074 26.8206 33.5516 26.8206C29.0958 26.8206 25.4648 23.2528 25.4648 18.4102C25.4648 13.5339 29.0958 10 33.5516 10C38.0074 10 41.6382 13.534 41.6382 18.4102ZM38.0983 18.4102C38.0983 15.3845 35.994 13.3142 33.5516 13.3142C31.1091 13.3142 29.0049 15.3845 29.0049 18.4102C29.0049 21.406 31.1091 23.5067 33.5516 23.5067C35.994 23.5067 38.0983 21.4023 38.0983 18.4102Z" fill="#696A6C" fill-opacity="0.9"/>
<path d="M59.1734 18.4102C59.1734 23.2527 55.5426 26.8206 51.0867 26.8206C46.6309 26.8206 43 23.2528 43 18.4102C43 13.5339 46.6309 10 51.0867 10C55.5426 10 59.1734 13.534 59.1734 18.4102ZM55.6334 18.4102C55.6334 15.3845 53.5292 13.3142 51.0867 13.3142C48.6443 13.3142 46.5401 15.3845 46.5401 18.4102C46.5401 21.406 48.6443 23.5067 51.0867 23.5067C53.5292 23.5067 55.6334 21.4023 55.6334 18.4102Z" fill="#696A6C" fill-opacity="0.9"/>
<path d="M12.6953 15.5239V11.9558H24.2201C24.3328 12.5777 24.3912 13.3134 24.3912 14.1097C24.3912 16.7867 23.6896 20.0972 21.4289 22.4553C19.23 24.8444 16.4206 26.1184 12.6989 26.1184C5.80064 26.1184 0 20.2565 0 13.0593C0 5.86227 5.80064 0 12.6989 0C16.515 0 19.2337 1.56207 21.2762 3.59845L18.863 6.11633C17.3983 4.68289 15.414 3.56809 12.6953 3.56809C7.65803 3.56809 3.71811 7.80371 3.71811 13.0593C3.71811 18.3146 7.65803 22.5501 12.6953 22.5501C15.9626 22.5501 17.8235 21.1815 19.0157 19.9376C19.9823 18.9293 20.6184 17.488 20.8691 15.5201L12.6953 15.5239Z" fill="#696A6C" fill-opacity="0.9"/>
<path d="M12.6953 15.5239V11.9558H24.2201C24.3328 12.5777 24.3912 13.3134 24.3912 14.1097C24.3912 16.7867 23.6896 20.0972 21.4289 22.4553C19.23 24.8444 16.4206 26.1184 12.6989 26.1184C5.80064 26.1184 0 20.2565 0 13.0593C0 5.86227 5.80064 0 12.6989 0C16.515 0 19.2337 1.56207 21.2762 3.59845L18.863 6.11633C17.3983 4.68289 15.414 3.56809 12.6953 3.56809C7.65803 3.56809 3.71811 7.80371 3.71811 13.0593C3.71811 18.3146 7.65803 22.5501 12.6953 22.5501C15.9626 22.5501 17.8235 21.1815 19.0157 19.9376C19.9823 18.9293 20.6184 17.488 20.8691 15.5201L12.6953 15.5239Z" fill="#696A6C" fill-opacity="0.9"/>
<path d="M5 42.8284V35.1501H7.71262C8.18814 35.1501 8.61322 35.2502 8.98788 35.4504C9.36253 35.6506 9.65793 35.9258 9.87407 36.2761C10.0974 36.6265 10.2091 37.034 10.2091 37.4987C10.2091 37.8061 10.1443 38.0992 10.0146 38.378C9.89208 38.6568 9.71196 38.9071 9.4742 39.1287C9.24365 39.3432 8.95906 39.5112 8.62043 39.6327C8.28901 39.7542 7.91436 39.815 7.49647 39.815H5.64843V38.7319H7.6802C7.92516 38.7319 8.14491 38.6783 8.33944 38.571C8.54118 38.4638 8.70328 38.3172 8.82577 38.1314C8.94825 37.9383 9.00949 37.7239 9.00949 37.4879C9.00949 37.2806 8.95906 37.084 8.85819 36.8981C8.75732 36.7051 8.60962 36.5514 8.41509 36.437C8.22777 36.3155 7.99721 36.2547 7.72343 36.2547H6.1888V42.8284H5ZM6.794 39.3217L8.14491 39.3003L10.5657 42.7641V42.8284H9.19321L6.794 39.3217Z" fill="#696A6C" fill-opacity="0.9"/>
<path d="M13.9726 43C13.4322 43 12.9495 42.8749 12.5244 42.6247C12.0993 42.3744 11.7643 42.0313 11.5193 41.5952C11.2815 41.1591 11.1627 40.6622 11.1627 40.1046C11.1627 39.5827 11.2779 39.1001 11.5085 38.6568C11.7391 38.2136 12.0597 37.8597 12.4703 37.5952C12.8882 37.3235 13.3673 37.1877 13.9077 37.1877C14.4769 37.1877 14.9596 37.3092 15.3559 37.5523C15.7593 37.7954 16.0656 38.1278 16.2745 38.5496C16.4834 38.9714 16.5879 39.4468 16.5879 39.9759C16.5879 40.0545 16.5843 40.126 16.5771 40.1903C16.5771 40.2547 16.5735 40.3047 16.5663 40.3405H11.8219V39.4718H15.4315C15.4243 39.336 15.3883 39.193 15.3235 39.0429C15.2586 38.8856 15.165 38.7426 15.0425 38.6139C14.92 38.4853 14.7651 38.3816 14.5778 38.3029C14.3904 38.2172 14.1707 38.1743 13.9185 38.1743C13.6015 38.1743 13.3205 38.2565 13.0756 38.4209C12.8306 38.5782 12.6397 38.7998 12.5028 39.0858C12.3659 39.3718 12.2974 39.7042 12.2974 40.0831C12.2974 40.4978 12.3767 40.8445 12.5352 41.1233C12.6937 41.4021 12.9026 41.613 13.162 41.756C13.4214 41.899 13.7024 41.9705 14.005 41.9705C14.3724 41.9705 14.6786 41.8883 14.9236 41.7239C15.1758 41.5523 15.3739 41.3414 15.518 41.0912L16.4798 41.5523C16.2421 41.9812 15.9179 42.3315 15.5072 42.6032C15.0965 42.8677 14.585 43 13.9726 43Z" fill="#696A6C" fill-opacity="0.9"/>
<path d="M19.1659 42.8284L16.8856 37.3592H18.1825L19.7279 41.3378H19.782L21.3598 37.3592H22.6351L20.3331 42.8284H19.1659Z" fill="#696A6C" fill-opacity="0.9"/>
<path d="M23.3488 42.8284V37.3592H24.516V42.8284H23.3488ZM23.9324 36.555C23.7162 36.555 23.5289 36.4799 23.3704 36.3298C23.2191 36.1725 23.1434 35.9866 23.1434 35.7721C23.1434 35.5505 23.2191 35.3682 23.3704 35.2252C23.5289 35.0751 23.7162 35 23.9324 35C24.1557 35 24.343 35.0751 24.4943 35.2252C24.6456 35.3682 24.7213 35.5505 24.7213 35.7721C24.7213 35.9866 24.6456 36.1725 24.4943 36.3298C24.343 36.4799 24.1557 36.555 23.9324 36.555Z" fill="#696A6C" fill-opacity="0.9"/>
<path d="M28.3893 43C27.8489 43 27.3662 42.8749 26.9411 42.6247C26.516 42.3744 26.181 42.0313 25.936 41.5952C25.6982 41.1591 25.5794 40.6622 25.5794 40.1046C25.5794 39.5827 25.6946 39.1001 25.9252 38.6568C26.1558 38.2136 26.4764 37.8597 26.887 37.5952C27.3049 37.3235 27.784 37.1877 28.3244 37.1877C28.8936 37.1877 29.3763 37.3092 29.7726 37.5523C30.1761 37.7954 30.4823 38.1278 30.6912 38.5496C30.9001 38.9714 31.0046 39.4468 31.0046 39.9759C31.0046 40.0545 31.001 40.126 30.9938 40.1903C30.9938 40.2547 30.9902 40.3047 30.983 40.3405H26.2386V39.4718H29.8482C29.841 39.336 29.805 39.193 29.7402 39.0429C29.6753 38.8856 29.5817 38.7426 29.4592 38.6139C29.3367 38.4853 29.1818 38.3816 28.9945 38.3029C28.8071 38.2172 28.5874 38.1743 28.3352 38.1743C28.0182 38.1743 27.7372 38.2565 27.4923 38.4209C27.2473 38.5782 27.0564 38.7998 26.9195 39.0858C26.7826 39.3718 26.7141 39.7042 26.7141 40.0831C26.7141 40.4978 26.7934 40.8445 26.9519 41.1233C27.1104 41.4021 27.3193 41.613 27.5787 41.756C27.8381 41.899 28.1191 41.9705 28.4217 41.9705C28.7891 41.9705 29.0953 41.8883 29.3403 41.7239C29.5925 41.5523 29.7906 41.3414 29.9347 41.0912L30.8965 41.5523C30.6588 41.9812 30.3346 42.3315 29.9239 42.6032C29.5132 42.8677 29.0017 43 28.3893 43Z" fill="#696A6C" fill-opacity="0.9"/>
<path d="M33.2122 42.8284L31.4506 37.3592H32.715L33.8498 41.2949H33.893L35.1359 37.3592H36.3355L37.5783 41.2949H37.6215L38.7563 37.3592H39.9991L38.2267 42.8284H37.0055L35.7302 38.8713H35.687L34.4226 42.8284H33.2122Z" fill="#696A6C" fill-opacity="0.9"/>
<path d="M42.7413 43C42.3018 43 41.9199 42.9357 41.5957 42.807C41.2715 42.6711 41.0049 42.4924 40.796 42.2708C40.587 42.042 40.4321 41.7954 40.3313 41.5308L41.3796 41.0804C41.5093 41.3735 41.693 41.5987 41.9307 41.756C42.1757 41.9062 42.4567 41.9812 42.7737 41.9812C43.0619 41.9812 43.3105 41.9312 43.5194 41.8311C43.7283 41.7239 43.8328 41.5523 43.8328 41.3164C43.8328 41.1662 43.7824 41.0447 43.6815 40.9517C43.5879 40.8517 43.4582 40.7694 43.2925 40.7051C43.1339 40.6408 42.9502 40.5836 42.7413 40.5335L42.082 40.3834C41.8227 40.319 41.5741 40.2189 41.3363 40.0831C41.1058 39.9401 40.9185 39.7614 40.7744 39.5469C40.6303 39.3324 40.5582 39.0786 40.5582 38.7855C40.5582 38.4567 40.6519 38.1743 40.8392 37.9383C41.0337 37.6953 41.2931 37.5094 41.6173 37.3807C41.9415 37.252 42.291 37.1877 42.6656 37.1877C43.0115 37.1877 43.3249 37.2341 43.6059 37.3271C43.8941 37.4129 44.1426 37.5451 44.3516 37.7239C44.5677 37.8954 44.737 38.1099 44.8595 38.3673L43.8544 38.8177C43.7319 38.5746 43.5662 38.4066 43.3573 38.3137C43.1484 38.2136 42.9214 38.1635 42.6764 38.1635C42.4027 38.1635 42.1721 38.2207 41.9848 38.3351C41.8047 38.4424 41.7146 38.5853 41.7146 38.7641C41.7146 38.95 41.7938 39.0965 41.9524 39.2038C42.1181 39.311 42.3198 39.3968 42.5576 39.4611L43.3573 39.6542C43.9049 39.79 44.3155 39.9973 44.5893 40.2761C44.8631 40.5478 45 40.8803 45 41.2735C45 41.6238 44.8991 41.9312 44.6974 42.1957C44.4957 42.4531 44.2219 42.6533 43.876 42.7962C43.5374 42.9321 43.1592 43 42.7413 43Z" fill="#696A6C" fill-opacity="0.9"/>
</svg>
