<svg width="33" height="42" viewBox="0 0 33 42" fill="none" xmlns="http://www.w3.org/2000/svg">
<path d="M22.9592 5.16406H4.81077C2.15386 5.16406 0 7.31792 0 9.97484V31.9532C0 34.6101 2.15386 36.7639 4.81077 36.7639H22.9592C25.6161 36.7639 27.7699 34.6101 27.7699 31.9532V9.97484C27.7699 7.31792 25.6161 5.16406 22.9592 5.16406Z" fill="url(#paint0_linear_1839_1664)"/>
<path d="M22.6088 6.95312H5.15505C3.17525 6.95312 1.57031 8.55807 1.57031 10.5379V31.3876C1.57031 33.3674 3.17525 34.9724 5.15505 34.9724H22.6088C24.5886 34.9724 26.1936 33.3674 26.1936 31.3876V10.5379C26.1936 8.55807 24.5886 6.95312 22.6088 6.95312Z" fill="#1FBE38" fill-opacity="0.25"/>
<path d="M22.6088 6.95312H5.15505C3.17525 6.95312 1.57031 8.55807 1.57031 10.5379V31.3876C1.57031 33.3674 3.17525 34.9724 5.15505 34.9724H22.6088C24.5886 34.9724 26.1936 33.3674 26.1936 31.3876V10.5379C26.1936 8.55807 24.5886 6.95312 22.6088 6.95312Z" fill="white" fill-opacity="0.16"/>
<path d="M21.0626 3.16752H17.7734C17.1701 1.60702 15.6547 0.5 13.8808 0.5C12.1069 0.5 10.5916 1.60702 9.98933 3.16752H6.69905C6.00652 3.16752 5.44531 3.72873 5.44531 4.42126V7.34014C5.44531 8.03267 6.00652 8.59388 6.69905 8.59388H21.0626C21.7552 8.59388 22.3164 8.03267 22.3164 7.34014V4.42126C22.3164 3.72873 21.7552 3.16752 21.0626 3.16752ZM13.8808 4.9917C13.056 4.9917 12.387 4.32276 12.387 3.49788C12.387 2.673 13.056 2.0051 13.8808 2.0051C14.7057 2.0051 15.3747 2.673 15.3747 3.49788C15.3747 4.32276 14.7057 4.9917 13.8808 4.9917Z" fill="#1FBE38" fill-opacity="0.25"/>
<path d="M21.0626 3.16752H17.7734C17.1701 1.60702 15.6547 0.5 13.8808 0.5C12.1069 0.5 10.5916 1.60702 9.98933 3.16752H6.69905C6.00652 3.16752 5.44531 3.72873 5.44531 4.42126V7.34014C5.44531 8.03267 6.00652 8.59388 6.69905 8.59388H21.0626C21.7552 8.59388 22.3164 8.03267 22.3164 7.34014V4.42126C22.3164 3.72873 21.7552 3.16752 21.0626 3.16752ZM13.8808 4.9917C13.056 4.9917 12.387 4.32276 12.387 3.49788C12.387 2.673 13.056 2.0051 13.8808 2.0051C14.7057 2.0051 15.3747 2.673 15.3747 3.49788C15.3747 4.32276 14.7057 4.9917 13.8808 4.9917Z" fill="white" fill-opacity="0.16"/>
<path d="M21.0626 3.16752H17.7734C17.1701 1.60702 15.6547 0.5 13.8808 0.5C12.1069 0.5 10.5916 1.60702 9.98933 3.16752H6.69905C6.00652 3.16752 5.44531 3.72873 5.44531 4.42126V7.34014C5.44531 8.03267 6.00652 8.59388 6.69905 8.59388H21.0626C21.7552 8.59388 22.3164 8.03267 22.3164 7.34014V4.42126C22.3164 3.72873 21.7552 3.16752 21.0626 3.16752ZM13.8808 4.9917C13.056 4.9917 12.387 4.32276 12.387 3.49788C12.387 2.673 13.056 2.0051 13.8808 2.0051C14.7057 2.0051 15.3747 2.673 15.3747 3.49788C15.3747 4.32276 14.7057 4.9917 13.8808 4.9917Z" stroke="url(#paint1_linear_1839_1664)" stroke-opacity="0.54" stroke-miterlimit="10"/>
<path d="M22.6193 14.1602H4.87001C4.5017 14.1602 4.20312 14.4587 4.20312 14.827C4.20312 15.1953 4.5017 15.4939 4.87001 15.4939H22.6193C22.9876 15.4939 23.2862 15.1953 23.2862 14.827C23.2862 14.4587 22.9876 14.1602 22.6193 14.1602Z" fill="white"/>
<path d="M16.4122 19.0703H4.81871C4.47873 19.0703 4.20312 19.3459 4.20312 19.6859C4.20312 20.0259 4.47873 20.3015 4.81871 20.3015H16.4122C16.7521 20.3015 17.0277 20.0259 17.0277 19.6859C17.0277 19.3459 16.7521 19.0703 16.4122 19.0703Z" fill="white"/>
<path d="M23.2859 41.4273C28.0994 41.4273 32.0015 37.5252 32.0015 32.7117C32.0015 27.8982 28.0994 23.9961 23.2859 23.9961C18.4724 23.9961 14.5703 27.8982 14.5703 32.7117C14.5703 37.5252 18.4724 41.4273 23.2859 41.4273Z" fill="#1FBE38" fill-opacity="0.25"/>
<path d="M23.2859 41.4273C28.0994 41.4273 32.0015 37.5252 32.0015 32.7117C32.0015 27.8982 28.0994 23.9961 23.2859 23.9961C18.4724 23.9961 14.5703 27.8982 14.5703 32.7117C14.5703 37.5252 18.4724 41.4273 23.2859 41.4273Z" fill="white" fill-opacity="0.16"/>
<path d="M23.2859 41.4273C28.0994 41.4273 32.0015 37.5252 32.0015 32.7117C32.0015 27.8982 28.0994 23.9961 23.2859 23.9961C18.4724 23.9961 14.5703 27.8982 14.5703 32.7117C14.5703 37.5252 18.4724 41.4273 23.2859 41.4273Z" stroke="url(#paint2_linear_1839_1664)" stroke-opacity="0.54" stroke-width="0.85" stroke-miterlimit="10"/>
<path d="M19.0859 32.0737L21.9427 34.965L27.478 29.6367" stroke="white" stroke-width="2" stroke-linecap="round" stroke-linejoin="round"/>
<defs>
<linearGradient id="paint0_linear_1839_1664" x1="13.885" y1="5.16406" x2="13.885" y2="36.7639" gradientUnits="userSpaceOnUse">
<stop stop-color="#159C2A"/>
<stop offset="1" stop-color="#106C1E"/>
</linearGradient>
<linearGradient id="paint1_linear_1839_1664" x1="20.7871" y1="2.14355" x2="15.808" y2="11.575" gradientUnits="userSpaceOnUse">
<stop stop-color="white"/>
<stop offset="0.5" stop-color="white" stop-opacity="0"/>
<stop offset="1" stop-color="white" stop-opacity="0.6"/>
</linearGradient>
<linearGradient id="paint2_linear_1839_1664" x1="30.4215" y1="27.5357" x2="17.4943" y2="39.283" gradientUnits="userSpaceOnUse">
<stop stop-color="white"/>
<stop offset="0.5" stop-color="white" stop-opacity="0"/>
<stop offset="1" stop-color="white" stop-opacity="0.6"/>
</linearGradient>
</defs>
</svg>
