<svg width="34" height="43" viewBox="0 0 34 43" fill="none" xmlns="http://www.w3.org/2000/svg">
<path d="M30.4069 0H7.99202C7.87497 0 7.75793 0.00570935 7.64375 0.0171281C6.1793 0.168426 4.98604 1.24749 4.65776 2.65199C4.62635 2.79187 4.59781 2.93175 4.58353 3.07734C4.57212 3.19153 4.56641 3.30857 4.56641 3.42561V35.4836C4.56641 37.3677 6.10793 38.9092 7.99202 38.9092H30.4069C30.524 38.9092 30.641 38.9035 30.7552 38.8921C31.5545 38.8093 32.271 38.4525 32.8134 37.9129C32.8163 37.9101 32.822 37.9072 32.8248 37.9015C33.2702 37.4562 33.5927 36.8881 33.7383 36.2544C33.7697 36.1145 33.7983 35.9746 33.8126 35.829C33.824 35.7148 33.8297 35.5978 33.8297 35.4808V3.42561C33.8297 1.54152 32.2882 0 30.4041 0H30.4069Z" fill="#159C2A"/>
<path d="M30.4069 0H7.99202C7.87497 0 7.75793 0.00570935 7.64375 0.0171281C6.1793 0.168426 4.98604 1.24749 4.65776 2.65199C4.62635 2.79187 4.59781 2.93175 4.58353 3.07734C4.57212 3.19153 4.56641 3.30857 4.56641 3.42561V35.4836C4.56641 37.3677 6.10793 38.9092 7.99202 38.9092H30.4069C30.524 38.9092 30.641 38.9035 30.7552 38.8921C31.5545 38.8093 32.271 38.4525 32.8134 37.9129C32.8163 37.9101 32.822 37.9072 32.8248 37.9015C33.2702 37.4562 33.5927 36.8881 33.7383 36.2544C33.7697 36.1145 33.7983 35.9746 33.8126 35.829C33.824 35.7148 33.8297 35.5978 33.8297 35.4808V3.42561C33.8297 1.54152 32.2882 0 30.4041 0H30.4069Z" fill="url(#paint0_linear_1676_1590)"/>
<path d="M25.8405 3.14062H3.42561C3.30857 3.14062 3.19153 3.14633 3.07734 3.15775C1.61289 3.30905 0.419637 4.38812 0.0913496 5.79262C0.0599482 5.9325 0.0314014 6.07238 0.0171281 6.21797C0.00570935 6.33215 0 6.44919 0 6.56624V38.6242C0 40.5083 1.54152 42.0499 3.42561 42.0499H25.8405C25.9576 42.0499 26.0746 42.0441 26.1888 42.0327C26.9881 41.9499 27.7046 41.5931 28.247 41.0536C28.2499 41.0507 28.2556 41.0479 28.2584 41.0422C28.7038 40.5968 29.0263 40.0287 29.1719 39.395C29.2033 39.2551 29.2319 39.1152 29.2461 38.9697C29.2576 38.8555 29.2633 38.7384 29.2633 38.6214V6.56624C29.2633 4.68215 27.7218 3.14062 25.8377 3.14062H25.8405Z" fill="white" fill-opacity="0.22"/>
<path d="M25.8405 3.14062H3.42561C3.30857 3.14062 3.19153 3.14633 3.07734 3.15775C1.61289 3.30905 0.419637 4.38812 0.0913496 5.79262C0.0599482 5.9325 0.0314014 6.07238 0.0171281 6.21797C0.00570935 6.33215 0 6.44919 0 6.56624V38.6242C0 40.5083 1.54152 42.0499 3.42561 42.0499H25.8405C25.9576 42.0499 26.0746 42.0441 26.1888 42.0327C26.9881 41.9499 27.7046 41.5931 28.247 41.0536C28.2499 41.0507 28.2556 41.0479 28.2584 41.0422C28.7038 40.5968 29.0263 40.0287 29.1719 39.395C29.2033 39.2551 29.2319 39.1152 29.2461 38.9697C29.2576 38.8555 29.2633 38.7384 29.2633 38.6214V6.56624C29.2633 4.68215 27.7218 3.14062 25.8377 3.14062H25.8405Z" fill="#1FBE38" fill-opacity="0.1"/>
<path d="M23.1248 13.9883H6.28218C5.80921 13.9883 5.42578 14.3717 5.42578 14.8447C5.42578 15.3177 5.80921 15.7011 6.28219 15.7011H23.1248C23.5977 15.7011 23.9812 15.3177 23.9812 14.8447C23.9812 14.3717 23.5977 13.9883 23.1248 13.9883Z" fill="white"/>
<path d="M23.0934 19.125H6.28218C5.80921 19.125 5.42578 19.5084 5.42578 19.9814C5.42578 20.4544 5.80921 20.8378 6.28218 20.8378H23.0934C23.5663 20.8378 23.9498 20.4544 23.9498 19.9814C23.9498 19.5084 23.5663 19.125 23.0934 19.125Z" fill="white"/>
<path d="M23.0934 24.2656H6.28218C5.80921 24.2656 5.42578 24.649 5.42578 25.122C5.42578 25.595 5.80921 25.9784 6.28218 25.9784H23.0934C23.5663 25.9784 23.9498 25.595 23.9498 25.122C23.9498 24.649 23.5663 24.2656 23.0934 24.2656Z" fill="white"/>
<path d="M23.0934 29.4023H6.28218C5.80921 29.4023 5.42578 29.7858 5.42578 30.2587C5.42578 30.7317 5.80921 31.1151 6.28218 31.1151H23.0934C23.5663 31.1151 23.9498 30.7317 23.9498 30.2587C23.9498 29.7858 23.5663 29.4023 23.0934 29.4023Z" fill="white"/>
<defs>
<linearGradient id="paint0_linear_1676_1590" x1="19.198" y1="0" x2="19.198" y2="38.9092" gradientUnits="userSpaceOnUse">
<stop stop-color="#159C2A"/>
<stop offset="1" stop-color="#106C1E"/>
</linearGradient>
</defs>
</svg>
