<svg width="74" height="90" viewBox="0 0 74 90" fill="none" xmlns="http://www.w3.org/2000/svg">
<path d="M55.3935 24.8789H8.68508C3.88844 24.8789 0 28.7563 0 33.5393V67.9253C0 72.7083 3.88844 76.5857 8.68508 76.5857H55.3935C60.1901 76.5857 64.0785 72.7083 64.0785 67.9253V33.5393C64.0785 28.7563 60.1901 24.8789 55.3935 24.8789Z" fill="url(#paint0_linear_1676_1649)"/>
<path d="M61.764 40.8189C66.5581 40.8189 70.449 44.6944 70.449 49.4793V81.3408C70.449 86.1213 66.5581 90.0012 61.764 90.0012H8.68508C3.89092 90.0012 0 86.1213 0 81.3408V34.9168C0 34.8562 0.047768 34.8086 0.108564 34.8086C0.160674 34.8086 0.204099 34.8432 0.217127 34.8952C0.217127 34.9125 0.225812 34.9298 0.230155 34.9472C0.269238 35.0987 0.312663 35.2503 0.360431 35.4018C1.34619 38.5412 4.29043 40.8232 7.77315 40.8232H61.764V40.8189Z" fill="white" fill-opacity="0.22"/>
<path d="M61.764 40.8189C66.5581 40.8189 70.449 44.6944 70.449 49.4793V81.3408C70.449 86.1213 66.5581 90.0012 61.764 90.0012H8.68508C3.89092 90.0012 0 86.1213 0 81.3408V34.9168C0 34.8562 0.047768 34.8086 0.108564 34.8086C0.160674 34.8086 0.204099 34.8432 0.217127 34.8952C0.217127 34.9125 0.225812 34.9298 0.230155 34.9472C0.269238 35.0987 0.312663 35.2503 0.360431 35.4018C1.34619 38.5412 4.29043 40.8232 7.77315 40.8232H61.764V40.8189Z" fill="#159C2A" fill-opacity="0.4"/>
<path d="M0.5 37.0029C1.89713 39.5745 4.62893 41.3232 7.77344 41.3232H61.9326C66.3743 41.4128 69.9492 45.0285 69.9492 49.4795V81.3408C69.9492 85.8439 66.283 89.501 61.7637 89.501H8.68555C4.16619 89.501 0.50001 85.8439 0.5 81.3408V37.0029Z" stroke="white" stroke-opacity="0.54"/>
<path d="M48.0574 57.0508H69.1926C71.5897 57.0508 73.5351 58.9907 73.5351 61.381V70.5566C73.5351 72.9469 71.5897 74.8868 69.1926 74.8868H48.1226C43.3284 74.8868 39.4375 71.007 39.4375 66.2264V65.6505C39.4375 60.9046 43.3024 57.0551 48.0574 57.0551V57.0508Z" fill="white" fill-opacity="0.34"/>
<g filter="url(#filter2_i_1676_1649)">
<path d="M49.8278 70.3455C52.2525 70.3455 54.2181 68.3855 54.2181 65.9677C54.2181 63.5499 52.2525 61.5898 49.8278 61.5898C47.4031 61.5898 45.4375 63.5499 45.4375 65.9677C45.4375 68.3855 47.4031 70.3455 49.8278 70.3455Z" fill="url(#paint1_linear_1676_1649)" fill-opacity="0.44"/>
</g>
<path d="M58.4509 31.0742H6.91797V35.1143H58.4509V31.0742Z" fill="url(#paint2_linear_1676_1649)"/>
<path d="M32.7432 0.5C44.0844 0.5 53.2803 9.70522 53.2803 21.0605C53.2802 26.2585 51.3545 31.0024 48.1758 34.6221H17.3115C14.1328 31.0024 12.2071 26.2585 12.207 21.0605C12.207 9.70537 21.4021 0.500246 32.7432 0.5Z" fill="white" fill-opacity="0.22"/>
<path d="M32.7432 0.5C44.0844 0.5 53.2803 9.70522 53.2803 21.0605C53.2802 26.2585 51.3545 31.0024 48.1758 34.6221H17.3115C14.1328 31.0024 12.2071 26.2585 12.207 21.0605C12.207 9.70537 21.4021 0.500246 32.7432 0.5Z" fill="#159C2A" fill-opacity="0.4"/>
<path d="M32.7432 0.5C44.0844 0.5 53.2803 9.70522 53.2803 21.0605C53.2802 26.2585 51.3545 31.0024 48.1758 34.6221H17.3115C14.1328 31.0024 12.2071 26.2585 12.207 21.0605C12.207 9.70537 21.4021 0.500246 32.7432 0.5Z" stroke="url(#paint3_linear_1676_1649)"/>
<path d="M38.0473 24.5144C38.0473 25.2844 37.8646 26.0083 37.4992 26.6859C37.1485 27.3636 36.6224 27.9335 35.9209 28.3955C35.2341 28.8575 34.4157 29.1348 33.4658 29.2272V31.0984H32.0409V29.2272C30.6672 29.0886 29.5565 28.6342 28.7089 27.8642C27.8613 27.0941 27.4375 26.0776 27.4375 24.8147H30.1119C30.1557 25.4153 30.3384 25.9159 30.6599 26.3163C30.9814 26.7013 31.4417 26.9478 32.0409 27.0556V21.9731C31.0618 21.7113 30.2653 21.4495 29.6515 21.1877C29.0377 20.9104 28.5116 20.4792 28.0732 19.8939C27.6494 19.3087 27.4375 18.5078 27.4375 17.4913C27.4375 16.213 27.8613 15.158 28.7089 14.3264C29.5565 13.4793 30.6672 12.9864 32.0409 12.8478V10.9766H33.4658V12.8478C34.7518 12.971 35.7821 13.4023 36.5566 14.1415C37.3458 14.8654 37.7915 15.8665 37.8938 17.1448H35.2195C35.1756 16.6674 35.0002 16.2438 34.6933 15.8742C34.3865 15.4892 33.9773 15.2273 33.4658 15.0887V20.0788C34.4449 20.3252 35.2414 20.587 35.8552 20.8642C36.4689 21.1261 36.9877 21.5496 37.4116 22.1348C37.8354 22.7047 38.0473 23.4979 38.0473 24.5144ZM29.9803 17.3527C29.9803 17.9842 30.1557 18.477 30.5064 18.8313C30.8718 19.1855 31.3833 19.4704 32.0409 19.686V15.0194C31.4125 15.0964 30.9083 15.3351 30.5284 15.7356C30.163 16.136 29.9803 16.6751 29.9803 17.3527ZM33.4658 27.0556C34.1088 26.9478 34.613 26.6782 34.9783 26.247C35.3437 25.8004 35.5263 25.269 35.5263 24.653C35.5263 24.0369 35.3437 23.5595 34.9783 23.2206C34.6276 22.8664 34.1234 22.5815 33.4658 22.3659V27.0556Z" fill="white"/>
<defs>
<filter id="filter2_i_1676_1649" x="44.4375" y="61.5898" width="9.78125" height="12.7539" filterUnits="userSpaceOnUse" color-interpolation-filters="sRGB">
<feFlood flood-opacity="0" result="BackgroundImageFix"/>
<feBlend mode="normal" in="SourceGraphic" in2="BackgroundImageFix" result="shape"/>
<feColorMatrix in="SourceAlpha" type="matrix" values="0 0 0 0 0 0 0 0 0 0 0 0 0 0 0 0 0 0 127 0" result="hardAlpha"/>
<feOffset dx="-1" dy="4"/>
<feGaussianBlur stdDeviation="2.5"/>
<feComposite in2="hardAlpha" operator="arithmetic" k2="-1" k3="1"/>
<feColorMatrix type="matrix" values="0 0 0 0 0.116494 0 0 0 0 0.504808 0 0 0 0 0.176898 0 0 0 0.5 0"/>
<feBlend mode="normal" in2="shape" result="effect1_innerShadow_1676_1649"/>
</filter>
<linearGradient id="paint0_linear_1676_1649" x1="32.0393" y1="24.8789" x2="32.0393" y2="76.5857" gradientUnits="userSpaceOnUse">
<stop stop-color="#159C2A"/>
<stop offset="1" stop-color="#106C1E"/>
</linearGradient>
<linearGradient id="paint1_linear_1676_1649" x1="54.1478" y1="61.4637" x2="47.9258" y2="70.3455" gradientUnits="userSpaceOnUse">
<stop stop-color="#106C1E" stop-opacity="0.5"/>
<stop offset="1" stop-color="#106C1E" stop-opacity="0.5"/>
</linearGradient>
<linearGradient id="paint2_linear_1676_1649" x1="32.6844" y1="35.1143" x2="32.6844" y2="31.0742" gradientUnits="userSpaceOnUse">
<stop stop-color="#0C4E16" stop-opacity="0.6"/>
<stop offset="1" stop-color="#159C2A" stop-opacity="0"/>
</linearGradient>
<linearGradient id="paint3_linear_1676_1649" x1="32.7436" y1="0" x2="32.7436" y2="35.1218" gradientUnits="userSpaceOnUse">
<stop stop-color="white"/>
<stop offset="1" stop-color="white" stop-opacity="0"/>
</linearGradient>
</defs>
</svg>
