<svg width="75" height="90" viewBox="0 0 75 90" fill="none" xmlns="http://www.w3.org/2000/svg">
<path d="M62.8902 80.6488H61.5695V16.1927H61.6098V3.65854C61.6098 1.63537 59.9744 0 57.9512 0H34.05C32.0305 0 30.3915 1.63537 30.3915 3.65854V26.8829H10.2841C6.24146 26.8829 2.96707 30.1573 2.60122 34.2V80.6488H1.28049C0.57439 80.6488 0 81.2232 0 81.9293C0 82.6354 0.57439 83.2134 1.28049 83.2134H62.8902C63.5963 83.2134 64.1707 82.639 64.1707 81.9293C64.1707 81.2195 63.5963 80.6488 62.8902 80.6488ZM15.8378 60.1354C15.8378 61.6171 14.6378 62.8207 13.1561 62.8207H10.961C9.47927 62.8207 8.27927 61.6171 8.27927 60.1354V53.2281C8.27927 51.7463 9.47927 50.5427 10.961 50.5427H13.1561C14.6378 50.5427 15.8378 51.7463 15.8378 53.2281V60.1354ZM15.8378 44.9341C15.8378 46.4159 14.6378 47.6159 13.1561 47.6159H10.961C9.47927 47.6159 8.27927 46.4159 8.27927 44.9341V38.0232C8.27927 36.5415 9.47927 35.3415 10.961 35.3415H13.1561C14.6378 35.3415 15.8378 36.5415 15.8378 38.0232V44.9341ZM27.3841 60.1354C27.3841 61.6171 26.1841 62.8207 24.7024 62.8207H22.5073C21.0256 62.8207 19.822 61.6171 19.822 60.1354V53.2281C19.822 51.7463 21.0256 50.5427 22.5073 50.5427H24.7024C26.1841 50.5427 27.3841 51.7463 27.3841 53.2281V60.1354ZM27.3841 44.9341C27.3841 46.4159 26.1841 47.6159 24.7024 47.6159H22.5073C21.0256 47.6159 19.822 46.4159 19.822 44.9341V38.0232C19.822 36.5415 21.0256 35.3415 22.5073 35.3415H24.7024C26.1841 35.3415 27.3841 36.5415 27.3841 38.0232V44.9341ZM36.5707 12.739C36.5707 11.2573 37.7707 10.0573 39.2524 10.0573H41.4476C42.9293 10.0573 44.1329 11.2573 44.1329 12.739V19.65C44.1329 21.1317 42.9293 22.3317 41.4476 22.3317H39.2524C37.7707 22.3317 36.5707 21.1317 36.5707 19.65V12.739ZM44.1622 48.8744C44.1622 50.3561 42.9585 51.5598 41.4768 51.5598H39.2817C37.8 51.5598 36.6 50.3561 36.6 48.8744V41.9634C36.6 40.4817 37.8 39.2817 39.2817 39.2817H41.4768C42.9585 39.2817 44.1622 40.4817 44.1622 41.9634V48.8744ZM44.1622 34.2293C44.1622 35.711 42.9585 36.9146 41.4768 36.9146H39.2817C37.8 36.9146 36.6 35.711 36.6 34.2293V27.3183C36.6 25.8366 37.8 24.6366 39.2817 24.6366H41.4768C42.9585 24.6366 44.1622 25.8366 44.1622 27.3183V34.2293ZM48.1171 12.739C48.1171 11.2573 49.3171 10.0573 50.7988 10.0573H52.9939C54.4756 10.0573 55.6756 11.2573 55.6756 12.739V19.65C55.6756 21.1317 54.4756 22.3317 52.9939 22.3317H50.7988C49.3171 22.3317 48.1171 21.1317 48.1171 19.65V12.739ZM55.7049 48.8744C55.7049 50.3561 54.5049 51.5598 53.0232 51.5598H50.828C49.3463 51.5598 48.1463 50.3561 48.1463 48.8744V41.9634C48.1463 40.4817 49.3463 39.2817 50.828 39.2817H53.0232C54.5049 39.2817 55.7049 40.4817 55.7049 41.9634V48.8744ZM55.7049 34.2293C55.7049 35.711 54.5049 36.9146 53.0232 36.9146H50.828C49.3463 36.9146 48.1463 35.711 48.1463 34.2293V27.3183C48.1463 25.8366 49.3463 24.6366 50.828 24.6366H53.0232C54.5049 24.6366 55.7049 25.8366 55.7049 27.3183V34.2293Z" fill="url(#paint0_linear_1676_1685)"/>
<circle cx="48.8409" cy="64.5714" r="25.4268" fill="white" fill-opacity="0.22"/>
<circle cx="48.8409" cy="64.5714" r="25.4268" fill="#159C2A" fill-opacity="0.4"/>
<path d="M55.6082 68.5698C55.6082 69.5359 55.3815 70.444 54.9279 71.2942C54.4925 72.1443 53.8394 72.8592 52.9686 73.4389C52.116 74.0185 51.1001 74.3663 49.9209 74.4822V76.8298H48.1521V74.4822C46.4468 74.3083 45.068 73.7384 44.0158 72.7723C42.9636 71.8062 42.4375 70.5309 42.4375 68.9466H45.7574C45.8118 69.7001 46.0386 70.3281 46.4377 70.8304C46.8368 71.3135 47.4083 71.6226 48.1521 71.7579V65.3817C46.9366 65.0532 45.9479 64.7247 45.1859 64.3963C44.424 64.0485 43.7709 63.5075 43.2267 62.7732C42.7006 62.039 42.4375 61.0343 42.4375 59.759C42.4375 58.1553 42.9636 56.8318 44.0158 55.7884C45.068 54.7257 46.4468 54.1074 48.1521 53.9335V51.5859H49.9209V53.9335C51.5173 54.0881 52.7963 54.6291 53.7578 55.5566C54.7374 56.4647 55.2908 57.7206 55.4177 59.3243H52.0979C52.0434 58.7253 51.8257 58.194 51.4448 57.7303C51.0638 57.2472 50.5558 56.9187 49.9209 56.7449V63.0051C51.1364 63.3143 52.1251 63.6427 52.887 63.9905C53.649 64.319 54.293 64.8503 54.8191 65.5846C55.3452 66.2995 55.6082 67.2945 55.6082 68.5698ZM45.5941 59.5852C45.5941 60.3773 45.8118 60.9956 46.2472 61.44C46.7008 61.8844 47.3357 62.2419 48.1521 62.5124V56.6579C47.372 56.7545 46.7461 57.054 46.2744 57.5564C45.8209 58.0587 45.5941 58.735 45.5941 59.5852ZM49.9209 71.7579C50.7191 71.6226 51.345 71.2845 51.7985 70.7435C52.2521 70.1831 52.4788 69.5165 52.4788 68.7437C52.4788 67.9708 52.2521 67.3718 51.7985 66.9468C51.3631 66.5024 50.7372 66.1449 49.9209 65.8744V71.7579Z" fill="white"/>
<defs>
<linearGradient id="paint0_linear_1676_1685" x1="32.0854" y1="0" x2="32.0854" y2="83.2134" gradientUnits="userSpaceOnUse">
<stop stop-color="#159C2A"/>
<stop offset="1" stop-color="#106C1E"/>
</linearGradient>
</defs>
</svg>
