<svg width="270" height="73" viewBox="0 0 270 73" fill="none" xmlns="http://www.w3.org/2000/svg">
<rect width="11.5234" height="34.0124" fill="#159C2A"/>
<rect width="35.8505" height="11.3375" fill="#159C2A"/>
<rect x="38.4102" width="15.3645" height="55.4276" fill="#159C2A"/>
<rect y="36.5312" width="35.8505" height="18.8958" fill="#161618"/>
<path d="M78.0953 31.9045V27.3284H71.0232V15.4723C71.0232 13.947 71.0232 12.3523 71.6472 11.3123C72.4099 10.0643 73.7273 9.78696 74.8366 9.78696C75.8766 9.78696 77.0553 9.99497 78.0953 10.411V5.5576C77.5406 5.3496 76.362 4.93359 74.5593 4.93359C72.2713 4.93359 70.1912 5.62693 68.8045 6.80561C66.2392 8.95496 66.0312 12.283 66.0312 14.9177V27.3284H63.2578V31.9045H66.0312V56.102H71.0232V31.9045H78.0953Z" fill="#161618"/>
<path d="M84.7676 27.3284H79.7756V44.6619C79.7756 48.1979 80.1223 50.8326 82.4103 53.3286C84.9756 56.0327 88.373 56.934 91.2157 56.934C94.0584 56.934 97.4558 56.0327 100.021 53.3286C102.309 50.8326 102.656 48.1979 102.656 44.6619V27.3284H97.6638V44.1072C97.6638 46.1179 97.6638 48.4753 96.2771 50.278C95.5144 51.2486 93.9891 52.4966 91.2157 52.4966C88.4424 52.4966 86.917 51.2486 86.1543 50.278C84.7676 48.4753 84.7676 46.1179 84.7676 44.1072V27.3284Z" fill="#161618"/>
<path d="M105.139 56.102H110.131V41.0565C110.131 38.9765 110.27 35.5792 112.212 33.2912C113.668 31.5578 115.54 31.0725 117.273 31.0725C119.492 31.0725 121.017 31.9045 121.988 33.1525C123.166 34.6778 123.305 36.6885 123.305 38.4219V56.102H128.297V38.2832C128.297 35.0938 128.089 32.7365 126.633 30.5871C124.9 28.0218 121.78 26.6351 118.382 26.6351C113.598 26.6351 111.033 29.4778 110.131 30.6565V27.3284H105.139V56.102Z" fill="#161618"/>
<path d="M154.902 31.4191C153.585 29.6858 150.604 26.6351 145.057 26.6351C137.708 26.6351 131.051 31.7658 131.051 41.6806C131.051 51.8033 137.777 56.934 145.057 56.934C150.118 56.934 153.238 54.23 154.902 52.0806V56.102H159.894V5.5576H154.902V31.4191ZM145.612 31.0725C150.049 31.0725 155.18 34.3312 155.18 41.7499C155.18 47.4353 151.713 52.4966 145.612 52.4966C139.649 52.4966 136.182 47.8513 136.182 41.6806C136.182 34.6778 140.689 31.0725 145.612 31.0725Z" fill="#161618"/>
<path d="M179.749 31.8351C177.461 26.9124 173.371 26.6351 171.845 26.6351C166.992 26.6351 163.456 29.6165 163.456 34.6778C163.456 36.1338 163.664 37.5205 164.773 38.9072C166.091 40.5019 168.309 41.6112 171.776 43.1366C174.48 44.3152 176.421 45.2166 176.421 47.9206C176.421 50.07 174.965 52.4966 171.707 52.4966C168.101 52.4966 166.437 49.3073 165.883 47.7819L161.584 49.5846C164.011 56.7953 170.459 56.934 171.637 56.934C177.184 56.934 181.552 53.5367 181.552 47.5046C181.552 45.9099 181.275 44.3846 180.027 42.8592C178.917 41.4725 176.976 40.1552 172.816 38.4219C169.557 37.0352 168.171 36.4112 168.171 34.3312C168.171 32.1125 169.835 31.0725 171.637 31.0725C173.509 31.0725 174.965 32.3205 175.659 33.9845L179.749 31.8351Z" fill="#161618"/>
<path d="M183.324 56.102H188.317V41.0565C188.317 38.9765 188.455 35.5792 190.397 33.2912C191.853 31.5578 193.725 31.0725 195.458 31.0725C197.677 31.0725 199.202 31.9045 200.173 33.1525C201.351 34.6778 201.49 36.6885 201.49 38.4219V56.102H206.482V38.2832C206.482 35.0938 206.274 32.7365 204.818 30.5871C203.085 28.0218 199.965 26.6351 196.567 26.6351C191.783 26.6351 189.218 29.4778 188.317 30.6565V5.5576H183.324V56.102Z" fill="#161618"/>
<path d="M223.797 56.934C232.533 56.934 239.05 50.5553 239.05 41.8192C239.05 33.0832 232.602 26.6351 223.797 26.6351C214.991 26.6351 208.543 33.0832 208.543 41.8192C208.543 50.5553 215.061 56.934 223.797 56.934ZM223.797 31.0725C229.066 31.0725 233.919 34.7472 233.919 41.8192C233.919 48.8219 228.997 52.4966 223.797 52.4966C218.666 52.4966 213.674 48.8913 213.674 41.8192C213.674 34.8165 218.527 31.0725 223.797 31.0725Z" fill="#161618"/>
<path d="M246.151 52.0806C248.3 54.854 251.559 56.934 256.204 56.934C264.941 56.934 270.002 49.7926 270.002 41.8886C270.002 34.1232 265.01 26.6351 255.996 26.6351C253.916 26.6351 249.548 27.1204 246.151 31.3498V27.3284H241.159V72.3261H246.151V52.0806ZM255.511 52.4966C249.618 52.4966 245.874 47.7126 245.874 41.8192C245.874 34.8858 250.796 31.0725 255.442 31.0725C260.087 31.0725 264.871 34.8165 264.871 41.8886C264.871 47.6433 261.335 52.4966 255.511 52.4966Z" fill="#161618"/>
<path d="M4.26901 66.3449C4.1244 66.0653 3.90268 65.805 3.6424 65.6315C3.32428 65.4194 3.00616 65.3423 2.61092 65.3423C1.56979 65.3423 0.80823 66.0075 0.80823 67.0004C0.80823 67.4824 0.972111 67.7812 1.25167 68.0512C1.54087 68.3307 1.85899 68.4657 2.10964 68.5814L2.68804 68.8513C3.02544 69.0055 3.27608 69.1212 3.45924 69.2947C3.6906 69.5068 3.77736 69.7574 3.77736 70.0466C3.77736 70.6925 3.36284 71.3191 2.4856 71.3191C2.15784 71.3191 1.83971 71.242 1.56015 70.9624C1.37699 70.7696 1.22275 70.4804 1.17455 70.143L0.480469 70.3358C0.567229 70.7214 0.76003 71.1649 1.07815 71.4734C1.52159 71.9072 2.0518 71.9939 2.47596 71.9939C3.63276 71.9939 4.51001 71.2034 4.51001 70.0177C4.51001 69.555 4.37505 69.179 4.04728 68.8513C3.77736 68.5814 3.43032 68.4078 3.05436 68.244L2.4374 67.974C2.1964 67.868 1.9554 67.762 1.76259 67.5692C1.58907 67.4053 1.52159 67.2607 1.52159 67.01C1.52159 66.4124 1.96504 66.0171 2.60128 66.0171C2.9676 66.0171 3.19896 66.1424 3.32428 66.2388C3.46888 66.3545 3.61348 66.5473 3.70024 66.7208L4.26901 66.3449Z" fill="#161618"/>
<path d="M8.64152 71.8782L9.27776 67.4053L11.4371 72.1482L13.6254 67.4053L14.2327 71.8782H14.9654L13.9628 65.082L11.4468 70.519L8.97892 65.0917L7.90887 71.8782H8.64152Z" fill="#161618"/>
<path d="M23.0657 71.8782H23.8562L20.9738 65.1399L18.0143 71.8782H18.8048L19.576 70.0659H22.3138L23.0657 71.8782ZM19.8556 69.3911L20.9546 66.8172L22.0342 69.3911H19.8556Z" fill="#161618"/>
<path d="M27.0767 65.4484V71.8782H29.5638V71.2034H27.79V65.4484H27.0767Z" fill="#161618"/>
<path d="M32.8452 65.4484V71.8782H35.3324V71.2034H33.5586V65.4484H32.8452Z" fill="#161618"/>
<path d="M43.1774 65.4484V71.8782H44.7777C45.2211 71.8782 45.8092 71.859 46.3201 71.4541C46.6671 71.1842 46.9756 70.6829 46.9756 70.0659C46.9756 69.449 46.6478 68.6681 45.7513 68.4464C46.3201 68.0608 46.3876 67.5017 46.3876 67.1836C46.3876 66.4027 46.0116 66.0075 45.8092 65.8532C45.3368 65.4773 44.6909 65.4484 44.3342 65.4484H43.1774ZM43.8908 66.1232H44.4499C44.6523 66.1232 45.6935 66.1424 45.6935 67.2028C45.6935 68.1958 44.8066 68.2729 44.4306 68.2729H43.8908V66.1232ZM43.8908 68.9091H44.6234C45.1343 68.9091 45.4718 68.967 45.7128 69.1019C45.9634 69.2369 46.2622 69.5357 46.2622 70.0466C46.2622 70.4322 46.0887 70.7504 45.8381 70.9335C45.5296 71.1745 45.1247 71.2034 44.7102 71.2034H43.8908V68.9091Z" fill="#161618"/>
<path d="M51.3162 65.4484H50.6029V69.5839C50.6029 70.1238 50.6607 70.6443 51.0078 71.1263C51.3934 71.6565 52.0682 71.9939 52.8876 71.9939C53.707 71.9939 54.3818 71.6565 54.7674 71.1263C55.1144 70.6443 55.1723 70.1238 55.1723 69.5839V65.4484H54.4589V69.3911C54.4589 69.931 54.4589 70.519 53.948 70.9528C53.6877 71.1745 53.2443 71.3191 52.8876 71.3191C52.5309 71.3191 52.0875 71.1745 51.8272 70.9528C51.3162 70.519 51.3162 69.931 51.3162 69.3911V65.4484Z" fill="#161618"/>
<path d="M62.5901 66.3449C62.4455 66.0653 62.2238 65.805 61.9635 65.6315C61.6454 65.4194 61.3273 65.3423 60.932 65.3423C59.8909 65.3423 59.1294 66.0075 59.1294 67.0004C59.1294 67.4824 59.2932 67.7812 59.5728 68.0512C59.862 68.3307 60.1801 68.4657 60.4308 68.5814L61.0092 68.8513C61.3466 69.0055 61.5972 69.1212 61.7804 69.2947C62.0117 69.5068 62.0985 69.7574 62.0985 70.0466C62.0985 70.6925 61.684 71.3191 60.8067 71.3191C60.479 71.3191 60.1608 71.242 59.8813 70.9624C59.6981 70.7696 59.5439 70.4804 59.4957 70.143L58.8016 70.3358C58.8884 70.7214 59.0812 71.1649 59.3993 71.4734C59.8427 71.9072 60.3729 71.9939 60.7971 71.9939C61.9539 71.9939 62.8311 71.2034 62.8311 70.0177C62.8311 69.555 62.6962 69.179 62.3684 68.8513C62.0985 68.5814 61.7514 68.4078 61.3755 68.244L60.7585 67.974C60.5175 67.868 60.2765 67.762 60.0837 67.5692C59.9102 67.4053 59.8427 67.2607 59.8427 67.01C59.8427 66.4124 60.2862 66.0171 60.9224 66.0171C61.2887 66.0171 61.5201 66.1424 61.6454 66.2388C61.79 66.3545 61.9346 66.5473 62.0214 66.7208L62.5901 66.3449Z" fill="#161618"/>
<path d="M66.4517 65.4484V71.8782H67.1651V65.4484H66.4517Z" fill="#161618"/>
<path d="M71.851 71.8782V66.9136L76.8639 72.1674V65.4484H76.1505V70.4322L71.1377 65.1784V71.8782H71.851Z" fill="#161618"/>
<path d="M84.1674 65.4484H80.832V71.8782H84.1674V71.2034H81.5453V68.7067H84.0903V68.0319H81.5453V66.1232H84.1674V65.4484Z" fill="#161618"/>
<path d="M91.2376 66.3449C91.093 66.0653 90.8713 65.805 90.611 65.6315C90.2929 65.4194 89.9748 65.3423 89.5795 65.3423C88.5384 65.3423 87.7768 66.0075 87.7768 67.0004C87.7768 67.4824 87.9407 67.7812 88.2203 68.0512C88.5095 68.3307 88.8276 68.4657 89.0783 68.5814L89.6567 68.8513C89.9941 69.0055 90.2447 69.1212 90.4279 69.2947C90.6592 69.5068 90.746 69.7574 90.746 70.0466C90.746 70.6925 90.3315 71.3191 89.4542 71.3191C89.1265 71.3191 88.8083 71.242 88.5288 70.9624C88.3456 70.7696 88.1914 70.4804 88.1432 70.143L87.4491 70.3358C87.5359 70.7214 87.7286 71.1649 88.0468 71.4734C88.4902 71.9072 89.0204 71.9939 89.4446 71.9939C90.6014 71.9939 91.4786 71.2034 91.4786 70.0177C91.4786 69.555 91.3437 69.179 91.0159 68.8513C90.746 68.5814 90.3989 68.4078 90.023 68.244L89.406 67.974C89.165 67.868 88.924 67.762 88.7312 67.5692C88.5577 67.4053 88.4902 67.2607 88.4902 67.01C88.4902 66.4124 88.9337 66.0171 89.5699 66.0171C89.9362 66.0171 90.1676 66.1424 90.2929 66.2388C90.4375 66.3545 90.5821 66.5473 90.6689 66.7208L91.2376 66.3449Z" fill="#161618"/>
<path d="M98.5407 66.3449C98.3961 66.0653 98.1744 65.805 97.9141 65.6315C97.596 65.4194 97.2779 65.3423 96.8826 65.3423C95.8415 65.3423 95.0799 66.0075 95.0799 67.0004C95.0799 67.4824 95.2438 67.7812 95.5234 68.0512C95.8126 68.3307 96.1307 68.4657 96.3813 68.5814L96.9597 68.8513C97.2971 69.0055 97.5478 69.1212 97.7309 69.2947C97.9623 69.5068 98.0491 69.7574 98.0491 70.0466C98.0491 70.6925 97.6345 71.3191 96.7573 71.3191C96.4295 71.3191 96.1114 71.242 95.8318 70.9624C95.6487 70.7696 95.4945 70.4804 95.4463 70.143L94.7522 70.3358C94.8389 70.7214 95.0317 71.1649 95.3499 71.4734C95.7933 71.9072 96.3235 71.9939 96.7477 71.9939C97.9045 71.9939 98.7817 71.2034 98.7817 70.0177C98.7817 69.555 98.6467 69.179 98.319 68.8513C98.0491 68.5814 97.702 68.4078 97.3261 68.244L96.7091 67.974C96.4681 67.868 96.2271 67.762 96.0343 67.5692C95.8608 67.4053 95.7933 67.2607 95.7933 67.01C95.7933 66.4124 96.2367 66.0171 96.873 66.0171C97.2393 66.0171 97.4707 66.1424 97.596 66.2388C97.7406 66.3545 97.8852 66.5473 97.9719 66.7208L98.5407 66.3449Z" fill="#161618"/>
<path d="M106.966 65.4484V71.8782H109.453V71.2034H107.679V65.4484H106.966Z" fill="#161618"/>
<path d="M115.403 71.9939C117.264 71.9939 118.748 70.5768 118.748 68.6681C118.748 66.7498 117.254 65.3423 115.403 65.3423C113.552 65.3423 112.058 66.7498 112.058 68.6681C112.058 70.5768 113.542 71.9939 115.403 71.9939ZM115.403 66.0171C116.849 66.0171 118.015 67.1932 118.015 68.6681C118.015 70.143 116.849 71.3191 115.403 71.3191C113.957 71.3191 112.791 70.143 112.791 68.6681C112.791 67.1932 113.957 66.0171 115.403 66.0171Z" fill="#161618"/>
<path d="M126.286 71.8782H127.076L124.194 65.1399L121.234 71.8782H122.025L122.796 70.0659H125.534L126.286 71.8782ZM123.076 69.3911L124.175 66.8172L125.254 69.3911H123.076Z" fill="#161618"/>
<path d="M131.01 71.8782V66.9136L136.023 72.1674V65.4484H135.309V70.4322L130.297 65.1784V71.8782H131.01Z" fill="#161618"/>
<path d="M143.432 66.3449C143.288 66.0653 143.066 65.805 142.806 65.6315C142.488 65.4194 142.17 65.3423 141.774 65.3423C140.733 65.3423 139.972 66.0075 139.972 67.0004C139.972 67.4824 140.136 67.7812 140.415 68.0512C140.704 68.3307 141.022 68.4657 141.273 68.5814L141.851 68.8513C142.189 69.0055 142.439 69.1212 142.623 69.2947C142.854 69.5068 142.941 69.7574 142.941 70.0466C142.941 70.6925 142.526 71.3191 141.649 71.3191C141.321 71.3191 141.003 71.242 140.724 70.9624C140.54 70.7696 140.386 70.4804 140.338 70.143L139.644 70.3358C139.731 70.7214 139.923 71.1649 140.242 71.4734C140.685 71.9072 141.215 71.9939 141.639 71.9939C142.796 71.9939 143.673 71.2034 143.673 70.0177C143.673 69.555 143.538 69.179 143.211 68.8513C142.941 68.5814 142.594 68.4078 142.218 68.244L141.601 67.974C141.36 67.868 141.119 67.762 140.926 67.5692C140.752 67.4053 140.685 67.2607 140.685 67.01C140.685 66.4124 141.128 66.0171 141.765 66.0171C142.131 66.0171 142.362 66.1424 142.488 66.2388C142.632 66.3545 142.777 66.5473 142.864 66.7208L143.432 66.3449Z" fill="#161618"/>
<path d="M152.571 65.4484H151.858V71.8782H152.571V68.7356H155.868V71.8782H156.581V65.4484H155.868V68.0608H152.571V65.4484Z" fill="#161618"/>
<path d="M164.853 71.8782H165.644L162.762 65.1399L159.802 71.8782H160.593L161.364 70.0659H164.102L164.853 71.8782ZM161.643 69.3911L162.742 66.8172L163.822 69.3911H161.643Z" fill="#161618"/>
<path d="M172.306 66.3449C172.161 66.0653 171.94 65.805 171.679 65.6315C171.361 65.4194 171.043 65.3423 170.648 65.3423C169.607 65.3423 168.845 66.0075 168.845 67.0004C168.845 67.4824 169.009 67.7812 169.289 68.0512C169.578 68.3307 169.896 68.4657 170.146 68.5814L170.725 68.8513C171.062 69.0055 171.313 69.1212 171.496 69.2947C171.727 69.5068 171.814 69.7574 171.814 70.0466C171.814 70.6925 171.4 71.3191 170.522 71.3191C170.195 71.3191 169.877 71.242 169.597 70.9624C169.414 70.7696 169.26 70.4804 169.211 70.143L168.517 70.3358C168.604 70.7214 168.797 71.1649 169.115 71.4734C169.558 71.9072 170.089 71.9939 170.513 71.9939C171.67 71.9939 172.547 71.2034 172.547 70.0177C172.547 69.555 172.412 69.179 172.084 68.8513C171.814 68.5814 171.467 68.4078 171.091 68.244L170.474 67.974C170.233 67.868 169.992 67.762 169.799 67.5692C169.626 67.4053 169.558 67.2607 169.558 67.01C169.558 66.4124 170.002 66.0171 170.638 66.0171C171.004 66.0171 171.236 66.1424 171.361 66.2388C171.506 66.3545 171.65 66.5473 171.737 66.7208L172.306 66.3449Z" fill="#161618"/>
<path d="M179.609 66.3449C179.464 66.0653 179.243 65.805 178.982 65.6315C178.664 65.4194 178.346 65.3423 177.951 65.3423C176.91 65.3423 176.148 66.0075 176.148 67.0004C176.148 67.4824 176.312 67.7812 176.592 68.0512C176.881 68.3307 177.199 68.4657 177.45 68.5814L178.028 68.8513C178.365 69.0055 178.616 69.1212 178.799 69.2947C179.031 69.5068 179.117 69.7574 179.117 70.0466C179.117 70.6925 178.703 71.3191 177.826 71.3191C177.498 71.3191 177.18 71.242 176.9 70.9624C176.717 70.7696 176.563 70.4804 176.514 70.143L175.82 70.3358C175.907 70.7214 176.1 71.1649 176.418 71.4734C176.862 71.9072 177.392 71.9939 177.816 71.9939C178.973 71.9939 179.85 71.2034 179.85 70.0177C179.85 69.555 179.715 69.179 179.387 68.8513C179.117 68.5814 178.77 68.4078 178.394 68.244L177.777 67.974C177.536 67.868 177.295 67.762 177.103 67.5692C176.929 67.4053 176.862 67.2607 176.862 67.01C176.862 66.4124 177.305 66.0171 177.941 66.0171C178.308 66.0171 178.539 66.1424 178.664 66.2388C178.809 66.3545 178.953 66.5473 179.04 66.7208L179.609 66.3449Z" fill="#161618"/>
<path d="M183.471 65.4484V71.8782H185.958V71.2034H184.184V65.4484H183.471Z" fill="#161618"/>
<path d="M192.575 65.4484H189.239V71.8782H192.575V71.2034H189.952V68.7067H192.497V68.0319H189.952V66.1232H192.575V65.4484Z" fill="#161618"/>
<path d="M203.697 65.4484H200.767V71.8782H201.48V68.697H203.62V68.0222H201.48V66.1232H203.697V65.4484Z" fill="#161618"/>
<path d="M207.26 65.4484V71.8782H207.974V69.0634H208.157L210.114 71.8782H210.981L208.938 69.0055C209.911 68.938 210.557 68.215 210.557 67.2318C210.557 66.5473 210.229 66.0557 209.854 65.805C209.372 65.4773 208.726 65.4484 208.292 65.4484H207.26ZM207.974 66.1232H208.408C208.716 66.1232 209.044 66.1424 209.333 66.3063C209.738 66.5377 209.844 66.8944 209.844 67.251C209.844 68.003 209.314 68.4271 208.427 68.4271H207.974V66.1232Z" fill="#161618"/>
<path d="M217.748 65.4484H214.413V71.8782H217.748V71.2034H215.126V68.7067H217.671V68.0319H215.126V66.1232H217.748V65.4484Z" fill="#161618"/>
<path d="M224.712 65.4484H221.377V71.8782H224.712V71.2034H222.09V68.7067H224.635V68.0319H222.09V66.1232H224.712V65.4484Z" fill="#161618"/>
<path d="M230.45 59.9631V59.3402H228.059V59.9631H228.893V63.0497H229.616V59.9631H230.45Z" fill="#161618"/>
<path d="M230.719 63.0497H231.453L231.831 60.7639L232.805 63.0998H233.005L234.023 60.7639L234.356 63.0497H235.091L234.468 59.2734H233.967L232.916 61.6983L231.909 59.2734H231.409L230.719 63.0497Z" fill="#161618"/>
</svg>
