<svg width="134" height="37" viewBox="0 0 134 37" fill="none" xmlns="http://www.w3.org/2000/svg">
<path d="M49.3843 16.5524L45.2219 6.1613H42.9024L38.74 16.5524H40.853L41.6315 14.5583H46.4929L47.2714 16.5524H49.3843ZM45.9686 12.9537H42.1557L44.0622 7.99961L45.9686 12.9537Z" fill="#108823"/>
<path d="M49.3843 16.5524L45.2219 6.1613H42.9024L38.74 16.5524H40.853L41.6315 14.5583H46.4929L47.2714 16.5524H49.3843ZM45.9686 12.9537H42.1557L44.0622 7.99961L45.9686 12.9537Z" fill="#696A6C" fill-opacity="0.9"/>
<path d="M55.067 16.7394C57.2118 16.7394 58.5145 15.6488 59.3247 14.4025L57.736 13.608C57.2276 14.4804 56.2109 15.1192 55.067 15.1192C52.9699 15.1192 51.413 13.5457 51.413 11.3646C51.413 9.1836 52.9699 7.61014 55.067 7.61014C56.2109 7.61014 57.2276 8.26445 57.736 9.12129L59.3247 8.32677C58.5304 7.08046 57.2118 5.98993 55.067 5.98993C51.9373 5.98993 49.5066 8.17098 49.5066 11.3646C49.5066 14.5583 51.9373 16.7394 55.067 16.7394Z" fill="#108823"/>
<path d="M55.067 16.7394C57.2118 16.7394 58.5145 15.6488 59.3247 14.4025L57.736 13.608C57.2276 14.4804 56.2109 15.1192 55.067 15.1192C52.9699 15.1192 51.413 13.5457 51.413 11.3646C51.413 9.1836 52.9699 7.61014 55.067 7.61014C56.2109 7.61014 57.2276 8.26445 57.736 9.12129L59.3247 8.32677C58.5304 7.08046 57.2118 5.98993 55.067 5.98993C51.9373 5.98993 49.5066 8.17098 49.5066 11.3646C49.5066 14.5583 51.9373 16.7394 55.067 16.7394Z" fill="#696A6C" fill-opacity="0.9"/>
<path d="M65.8962 16.7394C68.041 16.7394 69.3437 15.6488 70.1539 14.4025L68.5652 13.608C68.0569 14.4804 67.0401 15.1192 65.8962 15.1192C63.7991 15.1192 62.2422 13.5457 62.2422 11.3646C62.2422 9.1836 63.7991 7.61014 65.8962 7.61014C67.0401 7.61014 68.0569 8.26445 68.5652 9.12129L70.1539 8.32677C69.3596 7.08046 68.041 5.98993 65.8962 5.98993C62.7665 5.98993 60.3358 8.17098 60.3358 11.3646C60.3358 14.5583 62.7665 16.7394 65.8962 16.7394Z" fill="#108823"/>
<path d="M65.8962 16.7394C68.041 16.7394 69.3437 15.6488 70.1539 14.4025L68.5652 13.608C68.0569 14.4804 67.0401 15.1192 65.8962 15.1192C63.7991 15.1192 62.2422 13.5457 62.2422 11.3646C62.2422 9.1836 63.7991 7.61014 65.8962 7.61014C67.0401 7.61014 68.0569 8.26445 68.5652 9.12129L70.1539 8.32677C69.3596 7.08046 68.041 5.98993 65.8962 5.98993C62.7665 5.98993 60.3358 8.17098 60.3358 11.3646C60.3358 14.5583 62.7665 16.7394 65.8962 16.7394Z" fill="#696A6C" fill-opacity="0.9"/>
<path d="M79.8393 16.5524L77.2497 12.4707C78.5207 12.2682 79.7599 11.2712 79.7599 9.41729C79.7599 7.50109 78.3936 6.1613 76.2965 6.1613H71.6416V16.5524H73.5004V12.6733H75.3433L77.6945 16.5524H79.8393ZM76.0423 11.0686H73.5004V7.76593H76.0423C77.0908 7.76593 77.8534 8.42024 77.8534 9.41729C77.8534 10.4143 77.0908 11.0686 76.0423 11.0686Z" fill="#108823"/>
<path d="M79.8393 16.5524L77.2497 12.4707C78.5207 12.2682 79.7599 11.2712 79.7599 9.41729C79.7599 7.50109 78.3936 6.1613 76.2965 6.1613H71.6416V16.5524H73.5004V12.6733H75.3433L77.6945 16.5524H79.8393ZM76.0423 11.0686H73.5004V7.76593H76.0423C77.0908 7.76593 77.8534 8.42024 77.8534 9.41729C77.8534 10.4143 77.0908 11.0686 76.0423 11.0686Z" fill="#696A6C" fill-opacity="0.9"/>
<path d="M88.8779 16.5524V14.9478H83.4763V12.0657H88.7667V10.4611H83.4763V7.76593H88.8779V6.1613H81.6175V16.5524H88.8779Z" fill="#108823"/>
<path d="M88.8779 16.5524V14.9478H83.4763V12.0657H88.7667V10.4611H83.4763V7.76593H88.8779V6.1613H81.6175V16.5524H88.8779Z" fill="#696A6C" fill-opacity="0.9"/>
<path d="M94.7266 16.5524C98.0311 16.5524 100.271 14.4181 100.271 11.3646C100.271 8.31119 98.0311 6.1613 94.7266 6.1613H90.7867V16.5524H94.7266ZM94.7266 14.9478H92.6454V7.76593H94.7266C97.0938 7.76593 98.3648 9.35497 98.3648 11.3646C98.3648 13.3276 97.0303 14.9478 94.7266 14.9478Z" fill="#108823"/>
<path d="M94.7266 16.5524C98.0311 16.5524 100.271 14.4181 100.271 11.3646C100.271 8.31119 98.0311 6.1613 94.7266 6.1613H90.7867V16.5524H94.7266ZM94.7266 14.9478H92.6454V7.76593H94.7266C97.0938 7.76593 98.3648 9.35497 98.3648 11.3646C98.3648 13.3276 97.0303 14.9478 94.7266 14.9478Z" fill="#696A6C" fill-opacity="0.9"/>
<path d="M103.925 16.5524V6.1613H102.066V16.5524H103.925Z" fill="#108823"/>
<path d="M103.925 16.5524V6.1613H102.066V16.5524H103.925Z" fill="#696A6C" fill-opacity="0.9"/>
<path d="M110.562 16.5524V7.76593H113.771V6.1613H105.494V7.76593H108.703V16.5524H110.562Z" fill="#108823"/>
<path d="M110.562 16.5524V7.76593H113.771V6.1613H105.494V7.76593H108.703V16.5524H110.562Z" fill="#696A6C" fill-opacity="0.9"/>
<path d="M122.607 16.5524V14.9478H117.205V12.0657H122.495V10.4611H117.205V7.76593H122.607V6.1613H115.346V16.5524H122.607Z" fill="#108823"/>
<path d="M122.607 16.5524V14.9478H117.205V12.0657H122.495V10.4611H117.205V7.76593H122.607V6.1613H115.346V16.5524H122.607Z" fill="#696A6C" fill-opacity="0.9"/>
<path d="M128.455 16.5524C131.76 16.5524 134 14.4181 134 11.3646C134 8.31119 131.76 6.1613 128.455 6.1613H124.515V16.5524H128.455ZM128.455 14.9478H126.374V7.76593H128.455C130.823 7.76593 132.094 9.35497 132.094 11.3646C132.094 13.3276 130.759 14.9478 128.455 14.9478Z" fill="#108823"/>
<path d="M128.455 16.5524C131.76 16.5524 134 14.4181 134 11.3646C134 8.31119 131.76 6.1613 128.455 6.1613H124.515V16.5524H128.455ZM128.455 14.9478H126.374V7.76593H128.455C130.823 7.76593 132.094 9.35497 132.094 11.3646C132.094 13.3276 130.759 14.9478 128.455 14.9478Z" fill="#696A6C" fill-opacity="0.9"/>
<path d="M45.206 35.0523C47.1919 35.0523 48.2881 33.8527 48.2881 32.2481C48.2881 30.9707 47.3667 29.8646 46.2387 29.6932C47.2237 29.4907 48.0816 28.6182 48.0816 27.3096C48.0816 25.8452 47.0013 24.6612 45.0631 24.6612H39.8521V35.0523H45.206ZM44.6818 28.961H41.7109V26.2658H44.6818C45.635 26.2658 46.1751 26.8423 46.1751 27.6212C46.1751 28.4001 45.635 28.961 44.6818 28.961ZM44.7612 33.4477H41.7109V30.5656H44.7612C45.8256 30.5656 46.3817 31.2199 46.3817 31.9989C46.3817 32.9024 45.778 33.4477 44.7612 33.4477Z" fill="#108823"/>
<path d="M45.206 35.0523C47.1919 35.0523 48.2881 33.8527 48.2881 32.2481C48.2881 30.9707 47.3667 29.8646 46.2387 29.6932C47.2237 29.4907 48.0816 28.6182 48.0816 27.3096C48.0816 25.8452 47.0013 24.6612 45.0631 24.6612H39.8521V35.0523H45.206ZM44.6818 28.961H41.7109V26.2658H44.6818C45.635 26.2658 46.1751 26.8423 46.1751 27.6212C46.1751 28.4001 45.635 28.961 44.6818 28.961ZM44.7612 33.4477H41.7109V30.5656H44.7612C45.8256 30.5656 46.3817 31.2199 46.3817 31.9989C46.3817 32.9024 45.778 33.4477 44.7612 33.4477Z" fill="#696A6C" fill-opacity="0.9"/>
<path d="M54.7452 35.2393C57.8114 35.2393 59.3206 33.5256 59.3206 30.9395V24.6612H57.446V30.8928C57.446 32.5441 56.5086 33.6191 54.7452 33.6191C52.9658 33.6191 52.0285 32.5441 52.0285 30.8928V24.6612H50.1538V30.9551C50.1538 33.51 51.6631 35.2393 54.7452 35.2393Z" fill="#108823"/>
<path d="M54.7452 35.2393C57.8114 35.2393 59.3206 33.5256 59.3206 30.9395V24.6612H57.446V30.8928C57.446 32.5441 56.5086 33.6191 54.7452 33.6191C52.9658 33.6191 52.0285 32.5441 52.0285 30.8928V24.6612H50.1538V30.9551C50.1538 33.51 51.6631 35.2393 54.7452 35.2393Z" fill="#696A6C" fill-opacity="0.9"/>
<path d="M65.1948 35.2393C68.0545 35.2393 69.2937 33.7593 69.2937 32.03C69.2937 28.1509 63.1295 29.3505 63.1295 27.4187C63.1295 26.6397 63.8286 26.1256 64.9248 26.1256C66.0369 26.1256 67.1648 26.4995 67.991 27.3096L69.0554 25.9543C68.0704 25.0195 66.7359 24.5054 65.0836 24.5054C62.7641 24.5054 61.2231 25.8296 61.2231 27.5433C61.2231 31.3757 67.4031 30.0203 67.4031 32.2014C67.4031 32.8869 66.7994 33.6191 65.2743 33.6191C63.7968 33.6191 62.6529 32.9492 61.9221 32.1858L60.8895 33.5879C61.8268 34.5694 63.2407 35.2393 65.1948 35.2393Z" fill="#108823"/>
<path d="M65.1948 35.2393C68.0545 35.2393 69.2937 33.7593 69.2937 32.03C69.2937 28.1509 63.1295 29.3505 63.1295 27.4187C63.1295 26.6397 63.8286 26.1256 64.9248 26.1256C66.0369 26.1256 67.1648 26.4995 67.991 27.3096L69.0554 25.9543C68.0704 25.0195 66.7359 24.5054 65.0836 24.5054C62.7641 24.5054 61.2231 25.8296 61.2231 27.5433C61.2231 31.3757 67.4031 30.0203 67.4031 32.2014C67.4031 32.8869 66.7994 33.6191 65.2743 33.6191C63.7968 33.6191 62.6529 32.9492 61.9221 32.1858L60.8895 33.5879C61.8268 34.5694 63.2407 35.2393 65.1948 35.2393Z" fill="#696A6C" fill-opacity="0.9"/>
<path d="M72.8643 35.0523V24.6612H71.0055V35.0523H72.8643Z" fill="#108823"/>
<path d="M72.8643 35.0523V24.6612H71.0055V35.0523H72.8643Z" fill="#696A6C" fill-opacity="0.9"/>
<path d="M84.2996 35.0523V24.6612H82.4408V31.8742L77.0233 24.6612H75.1169V35.0523H76.9757V27.6368L82.5043 35.0523H84.2996Z" fill="#108823"/>
<path d="M84.2996 35.0523V24.6612H82.4408V31.8742L77.0233 24.6612H75.1169V35.0523H76.9757V27.6368L82.5043 35.0523H84.2996Z" fill="#696A6C" fill-opacity="0.9"/>
<path d="M93.8115 35.0523V33.4477H88.41V30.5656H93.7003V28.961H88.41V26.2658H93.8115V24.6612H86.5512V35.0523H93.8115Z" fill="#108823"/>
<path d="M93.8115 35.0523V33.4477H88.41V30.5656H93.7003V28.961H88.41V26.2658H93.8115V24.6612H86.5512V35.0523H93.8115Z" fill="#696A6C" fill-opacity="0.9"/>
<path d="M99.3426 35.2393C102.202 35.2393 103.441 33.7593 103.441 32.03C103.441 28.1509 97.2772 29.3505 97.2772 27.4187C97.2772 26.6397 97.9763 26.1256 99.0725 26.1256C100.185 26.1256 101.313 26.4995 102.139 27.3096L103.203 25.9543C102.218 25.0195 100.884 24.5054 99.2313 24.5054C96.9118 24.5054 95.3708 25.8296 95.3708 27.5433C95.3708 31.3757 101.551 30.0203 101.551 32.2014C101.551 32.8869 100.947 33.6191 99.422 33.6191C97.9445 33.6191 96.8006 32.9492 96.0698 32.1858L95.0372 33.5879C95.9745 34.5694 97.3885 35.2393 99.3426 35.2393Z" fill="#108823"/>
<path d="M99.3426 35.2393C102.202 35.2393 103.441 33.7593 103.441 32.03C103.441 28.1509 97.2772 29.3505 97.2772 27.4187C97.2772 26.6397 97.9763 26.1256 99.0725 26.1256C100.185 26.1256 101.313 26.4995 102.139 27.3096L103.203 25.9543C102.218 25.0195 100.884 24.5054 99.2313 24.5054C96.9118 24.5054 95.3708 25.8296 95.3708 27.5433C95.3708 31.3757 101.551 30.0203 101.551 32.2014C101.551 32.8869 100.947 33.6191 99.422 33.6191C97.9445 33.6191 96.8006 32.9492 96.0698 32.1858L95.0372 33.5879C95.9745 34.5694 97.3885 35.2393 99.3426 35.2393Z" fill="#696A6C" fill-opacity="0.9"/>
<path d="M108.775 35.2393C111.635 35.2393 112.874 33.7593 112.874 32.03C112.874 28.1509 106.71 29.3505 106.71 27.4187C106.71 26.6397 107.409 26.1256 108.505 26.1256C109.617 26.1256 110.745 26.4995 111.572 27.3096L112.636 25.9543C111.651 25.0195 110.316 24.5054 108.664 24.5054C106.345 24.5054 104.804 25.8296 104.804 27.5433C104.804 31.3757 110.984 30.0203 110.984 32.2014C110.984 32.8869 110.38 33.6191 108.855 33.6191C107.377 33.6191 106.234 32.9492 105.503 32.1858L104.47 33.5879C105.407 34.5694 106.821 35.2393 108.775 35.2393Z" fill="#108823"/>
<path d="M108.775 35.2393C111.635 35.2393 112.874 33.7593 112.874 32.03C112.874 28.1509 106.71 29.3505 106.71 27.4187C106.71 26.6397 107.409 26.1256 108.505 26.1256C109.617 26.1256 110.745 26.4995 111.572 27.3096L112.636 25.9543C111.651 25.0195 110.316 24.5054 108.664 24.5054C106.345 24.5054 104.804 25.8296 104.804 27.5433C104.804 31.3757 110.984 30.0203 110.984 32.2014C110.984 32.8869 110.38 33.6191 108.855 33.6191C107.377 33.6191 106.234 32.9492 105.503 32.1858L104.47 33.5879C105.407 34.5694 106.821 35.2393 108.775 35.2393Z" fill="#696A6C" fill-opacity="0.9"/>
<path fill-rule="evenodd" clip-rule="evenodd" d="M8.24941 11.4436L6.42578 13.8955C5.52843 15.1215 5.78895 17.3169 7.03366 18.2007L10.4204 20.5957C10.9993 20.9948 11.0572 21.4225 10.7678 21.8502L11.2599 22.2208L12.9677 19.8829C13.2368 19.5513 13.4351 19.1695 13.5505 18.7605C13.6659 18.3514 13.6961 17.9236 13.6394 17.5028C13.5826 17.082 13.4399 16.6768 13.22 16.3117C13.0002 15.9465 12.7076 15.629 12.3598 15.3781L8.97308 12.9547C8.79234 12.8242 8.66815 12.6314 8.62523 12.4148C8.58231 12.1982 8.62383 11.9736 8.7415 11.7857L8.24941 11.4436Z" fill="#108823"/>
<path fill-rule="evenodd" clip-rule="evenodd" d="M8.24941 11.4436L6.42578 13.8955C5.52843 15.1215 5.78895 17.3169 7.03366 18.2007L10.4204 20.5957C10.9993 20.9948 11.0572 21.4225 10.7678 21.8502L11.2599 22.2208L12.9677 19.8829C13.2368 19.5513 13.4351 19.1695 13.5505 18.7605C13.6659 18.3514 13.6961 17.9236 13.6394 17.5028C13.5826 17.082 13.4399 16.6768 13.22 16.3117C13.0002 15.9465 12.7076 15.629 12.3598 15.3781L8.97308 12.9547C8.79234 12.8242 8.66815 12.6314 8.62523 12.4148C8.58231 12.1982 8.62383 11.9736 8.7415 11.7857L8.24941 11.4436Z" fill="#696A6C" fill-opacity="0.9"/>
<path fill-rule="evenodd" clip-rule="evenodd" d="M11.1443 0L8.30754 3.84901C6.97598 5.64521 7.46808 8.72442 9.26278 10.0359L13.9232 13.4003C14.8784 14.0845 14.9942 15.8237 14.2995 16.7076L14.7048 16.9927L17.9179 12.5449C19.3652 10.5491 19.2783 7.61249 17.0205 5.98735L12.0417 2.45197C11.8608 2.34857 11.704 2.20901 11.5812 2.04228C11.4584 1.87556 11.3725 1.68535 11.3288 1.48392C11.2852 1.28248 11.2849 1.07428 11.3279 0.872722C11.3709 0.671159 11.4563 0.4807 11.5785 0.313608L11.1443 0Z" fill="#108823"/>
<path fill-rule="evenodd" clip-rule="evenodd" d="M11.1443 0L8.30754 3.84901C6.97598 5.64521 7.46808 8.72442 9.26278 10.0359L13.9232 13.4003C14.8784 14.0845 14.9942 15.8237 14.2995 16.7076L14.7048 16.9927L17.9179 12.5449C19.3652 10.5491 19.2783 7.61249 17.0205 5.98735L12.0417 2.45197C11.8608 2.34857 11.704 2.20901 11.5812 2.04228C11.4584 1.87556 11.3725 1.68535 11.3288 1.48392C11.2852 1.28248 11.2849 1.07428 11.3279 0.872722C11.3709 0.671159 11.4563 0.4807 11.5785 0.313608L11.1443 0Z" fill="#696A6C" fill-opacity="0.9"/>
<path fill-rule="evenodd" clip-rule="evenodd" d="M3.70509 25.253H7.4392L8.10499 27.4769H14.2127L14.8785 25.253H18.6126L18.1205 23.5994H4.16824L3.70509 25.253Z" fill="#108823"/>
<path fill-rule="evenodd" clip-rule="evenodd" d="M3.70509 25.253H7.4392L8.10499 27.4769H14.2127L14.8785 25.253H18.6126L18.1205 23.5994H4.16824L3.70509 25.253Z" fill="#696A6C" fill-opacity="0.9"/>
<path fill-rule="evenodd" clip-rule="evenodd" d="M6.91823 34.434C6.74456 33.3791 6.31035 33.1225 5.44196 32.7518C5.76516 32.594 6.0369 32.35 6.22625 32.0476C6.41559 31.7451 6.51494 31.3964 6.51298 31.0411C6.51298 29.5015 5.23933 28.9028 3.8499 28.9028H0V37H3.84992C5.47091 37 7.2077 36.2872 6.91823 34.434ZM1.73679 30.4424H3.76303C3.88191 30.4316 4.00178 30.4446 4.11543 30.4806C4.22908 30.5166 4.33415 30.5749 4.42431 30.652C4.51448 30.7291 4.58788 30.8234 4.64008 30.9291C4.69229 31.0349 4.72222 31.1499 4.72809 31.2674C4.73395 31.3848 4.71562 31.5022 4.6742 31.6125C4.63279 31.7228 4.56913 31.8237 4.48708 31.9091C4.40503 31.9945 4.30628 32.0627 4.19677 32.1095C4.08726 32.1564 3.96926 32.1809 3.84987 32.1816H1.73679V30.4424ZM3.99463 35.4604H1.73679V33.6072H3.99463C5.64458 33.6072 5.5288 35.4604 3.99463 35.4604Z" fill="#108823"/>
<path fill-rule="evenodd" clip-rule="evenodd" d="M6.91823 34.434C6.74456 33.3791 6.31035 33.1225 5.44196 32.7518C5.76516 32.594 6.0369 32.35 6.22625 32.0476C6.41559 31.7451 6.51494 31.3964 6.51298 31.0411C6.51298 29.5015 5.23933 28.9028 3.8499 28.9028H0V37H3.84992C5.47091 37 7.2077 36.2872 6.91823 34.434ZM1.73679 30.4424H3.76303C3.88191 30.4316 4.00178 30.4446 4.11543 30.4806C4.22908 30.5166 4.33415 30.5749 4.42431 30.652C4.51448 30.7291 4.58788 30.8234 4.64008 30.9291C4.69229 31.0349 4.72222 31.1499 4.72809 31.2674C4.73395 31.3848 4.71562 31.5022 4.6742 31.6125C4.63279 31.7228 4.56913 31.8237 4.48708 31.9091C4.40503 31.9945 4.30628 32.0627 4.19677 32.1095C4.08726 32.1564 3.96926 32.1809 3.84987 32.1816H1.73679V30.4424ZM3.99463 35.4604H1.73679V33.6072H3.99463C5.64458 33.6072 5.5288 35.4604 3.99463 35.4604Z" fill="#696A6C" fill-opacity="0.9"/>
<path fill-rule="evenodd" clip-rule="evenodd" d="M14.6182 34.434C14.4445 33.3791 14.0103 33.1225 13.1419 32.7518C13.4651 32.594 13.7369 32.35 13.9262 32.0476C14.1156 31.7451 14.2149 31.3964 14.2129 31.0411C14.2129 29.5015 12.9393 28.9028 11.5499 28.9028H7.67102V37H11.5209C13.1709 37 14.9077 36.2872 14.6182 34.434ZM9.43676 30.4424H11.463C11.5819 30.4316 11.7018 30.4446 11.8154 30.4806C11.9291 30.5166 12.0341 30.5749 12.1243 30.652C12.2145 30.7291 12.2879 30.8234 12.3401 30.9291C12.3923 31.0349 12.4222 31.1499 12.4281 31.2674C12.4339 31.3848 12.4156 31.5022 12.3742 31.6125C12.3328 31.7228 12.2691 31.8237 12.1871 31.9091C12.105 31.9945 12.0063 32.0627 11.8968 32.1095C11.7872 32.1564 11.6692 32.1809 11.5499 32.1816H9.46568V30.4424H9.43676ZM11.6946 35.4604H9.43676V33.6072H11.6946C13.3446 33.6072 13.2288 35.4604 11.6946 35.4604Z" fill="#108823"/>
<path fill-rule="evenodd" clip-rule="evenodd" d="M14.6182 34.434C14.4445 33.3791 14.0103 33.1225 13.1419 32.7518C13.4651 32.594 13.7369 32.35 13.9262 32.0476C14.1156 31.7451 14.2149 31.3964 14.2129 31.0411C14.2129 29.5015 12.9393 28.9028 11.5499 28.9028H7.67102V37H11.5209C13.1709 37 14.9077 36.2872 14.6182 34.434ZM9.43676 30.4424H11.463C11.5819 30.4316 11.7018 30.4446 11.8154 30.4806C11.9291 30.5166 12.0341 30.5749 12.1243 30.652C12.2145 30.7291 12.2879 30.8234 12.3401 30.9291C12.3923 31.0349 12.4222 31.1499 12.4281 31.2674C12.4339 31.3848 12.4156 31.5022 12.3742 31.6125C12.3328 31.7228 12.2691 31.8237 12.1871 31.9091C12.105 31.9945 12.0063 32.0627 11.8968 32.1095C11.7872 32.1564 11.6692 32.1809 11.5499 32.1816H9.46568V30.4424H9.43676ZM11.6946 35.4604H9.43676V33.6072H11.6946C13.3446 33.6072 13.2288 35.4604 11.6946 35.4604Z" fill="#696A6C" fill-opacity="0.9"/>
<path fill-rule="evenodd" clip-rule="evenodd" d="M22.3173 34.434C22.1437 33.3791 21.7094 33.1225 20.8411 32.7518C21.1643 32.594 21.436 32.35 21.6253 32.0476C21.8147 31.7451 21.914 31.3964 21.9121 31.0411C21.9121 29.5015 20.6384 28.9028 19.249 28.9028H15.3702V37H19.22C20.8411 37 22.5779 36.2872 22.3173 34.434ZM17.1359 30.4424H19.1622C19.281 30.4316 19.4009 30.4446 19.5146 30.4806C19.6282 30.5166 19.7333 30.5749 19.8234 30.652C19.9136 30.7291 19.987 30.8234 20.0392 30.9291C20.0914 31.0349 20.1213 31.1499 20.1272 31.2674C20.1331 31.3848 20.1147 31.5022 20.0733 31.6125C20.0319 31.7228 19.9683 31.8237 19.8862 31.9091C19.8042 31.9945 19.7054 32.0627 19.5959 32.1095C19.4864 32.1564 19.3684 32.1809 19.249 32.1816H17.1649V30.4424H17.1359ZM19.3648 35.4604H17.1069V33.6072H19.3648C21.0147 33.6072 20.9279 35.4604 19.3648 35.4604Z" fill="#108823"/>
<path fill-rule="evenodd" clip-rule="evenodd" d="M22.3173 34.434C22.1437 33.3791 21.7094 33.1225 20.8411 32.7518C21.1643 32.594 21.436 32.35 21.6253 32.0476C21.8147 31.7451 21.914 31.3964 21.9121 31.0411C21.9121 29.5015 20.6384 28.9028 19.249 28.9028H15.3702V37H19.22C20.8411 37 22.5779 36.2872 22.3173 34.434ZM17.1359 30.4424H19.1622C19.281 30.4316 19.4009 30.4446 19.5146 30.4806C19.6282 30.5166 19.7333 30.5749 19.8234 30.652C19.9136 30.7291 19.987 30.8234 20.0392 30.9291C20.0914 31.0349 20.1213 31.1499 20.1272 31.2674C20.1331 31.3848 20.1147 31.5022 20.0733 31.6125C20.0319 31.7228 19.9683 31.8237 19.8862 31.9091C19.8042 31.9945 19.7054 32.0627 19.5959 32.1095C19.4864 32.1564 19.3684 32.1809 19.249 32.1816H17.1649V30.4424H17.1359ZM19.3648 35.4604H17.1069V33.6072H19.3648C21.0147 33.6072 20.9279 35.4604 19.3648 35.4604Z" fill="#696A6C" fill-opacity="0.9"/>
<path d="M21.3401 15.0121C23.6282 11.951 25.687 8.72985 27.5002 5.37427L27.5226 5.35001C27.5226 5.35001 29.0126 6.41057 29.4571 6.84404C29.7243 7.08506 29.7462 7.15731 29.7462 7.37407C29.7462 8.38611 24.4981 22.8431 24.4981 22.8431C24.1646 22.6134 23.8521 22.3554 23.5643 22.0721C23.299 21.8088 23.0537 21.5268 22.8302 21.2283L24.4089 15.8311C23.5643 15.8796 22.274 15.9761 21.6959 15.9761C18.6271 19.9515 15.3137 22.8431 15.1358 22.8431C14.5171 22.4514 13.9748 21.9536 13.5346 21.3733C13.6563 20.055 13.8493 18.744 14.1126 17.4459C14.1551 17.3548 14.2156 17.2729 14.2905 17.2049C14.5352 17.2049 16.2919 18.8192 16.2919 18.9395C16.2919 19.084 15.5802 21.108 15.5802 21.108C17.4227 19.5463 19.1061 17.8113 20.6066 15.9276C19.8463 15.8511 19.0782 15.9083 18.3381 16.0964C17.604 16.4576 17.5373 16.8194 17.4261 16.8194C17.2925 16.8194 17.2707 15.7109 17.4261 15.5178C17.9823 14.7231 20.3619 15.1808 21.2065 15.1808L21.3401 15.0121ZM22.3189 15.1566L24.6536 15.0121L26.5219 8.72365C25.302 10.9776 23.8962 13.1291 22.3189 15.1566Z" fill="#108823"/>
<path d="M21.3401 15.0121C23.6282 11.951 25.687 8.72985 27.5002 5.37427L27.5226 5.35001C27.5226 5.35001 29.0126 6.41057 29.4571 6.84404C29.7243 7.08506 29.7462 7.15731 29.7462 7.37407C29.7462 8.38611 24.4981 22.8431 24.4981 22.8431C24.1646 22.6134 23.8521 22.3554 23.5643 22.0721C23.299 21.8088 23.0537 21.5268 22.8302 21.2283L24.4089 15.8311C23.5643 15.8796 22.274 15.9761 21.6959 15.9761C18.6271 19.9515 15.3137 22.8431 15.1358 22.8431C14.5171 22.4514 13.9748 21.9536 13.5346 21.3733C13.6563 20.055 13.8493 18.744 14.1126 17.4459C14.1551 17.3548 14.2156 17.2729 14.2905 17.2049C14.5352 17.2049 16.2919 18.8192 16.2919 18.9395C16.2919 19.084 15.5802 21.108 15.5802 21.108C17.4227 19.5463 19.1061 17.8113 20.6066 15.9276C19.8463 15.8511 19.0782 15.9083 18.3381 16.0964C17.604 16.4576 17.5373 16.8194 17.4261 16.8194C17.2925 16.8194 17.2707 15.7109 17.4261 15.5178C17.9823 14.7231 20.3619 15.1808 21.2065 15.1808L21.3401 15.0121ZM22.3189 15.1566L24.6536 15.0121L26.5219 8.72365C25.302 10.9776 23.8962 13.1291 22.3189 15.1566Z" fill="#696A6C" fill-opacity="0.9"/>
</svg>
