<svg width="32" height="32" viewBox="0 0 32 32" fill="none" xmlns="http://www.w3.org/2000/svg">
<path d="M29.6338 0.000223726H2.3662C2.05968 -0.00400761 1.75533 0.051819 1.47053 0.164515C1.18572 0.277212 0.926041 0.444571 0.706314 0.657034C0.486586 0.869497 0.311117 1.1229 0.189927 1.40278C0.0687362 1.68266 0.00419862 1.98352 0 2.28819V29.7118C0.00419862 30.0165 0.0687362 30.3173 0.189927 30.5972C0.311117 30.8771 0.486586 31.1305 0.706314 31.343C0.926041 31.5554 1.18572 31.7228 1.47053 31.8355C1.75533 31.9482 2.05968 32.004 2.3662 31.9998H29.6338C29.9403 32.004 30.2447 31.9482 30.5295 31.8355C30.8143 31.7228 31.074 31.5554 31.2937 31.343C31.5134 31.1305 31.6889 30.8771 31.8101 30.5972C31.9313 30.3173 31.9958 30.0165 32 29.7118V2.28819C31.9958 1.98352 31.9313 1.68266 31.8101 1.40278C31.6889 1.1229 31.5134 0.869497 31.2937 0.657034C31.074 0.444571 30.8143 0.277212 30.5295 0.164515C30.2447 0.051819 29.9403 -0.00400761 29.6338 0.000223726ZM9.70624 26.7838H4.87726V12.3841H9.70624V26.7838ZM7.29175 10.3681C6.62577 10.3681 5.98707 10.1051 5.51616 9.63703C5.04524 9.16894 4.78068 8.53408 4.78068 7.87211C4.78068 7.21014 5.04524 6.57528 5.51616 6.1072C5.98707 5.63912 6.62577 5.37615 7.29175 5.37615C7.64539 5.33628 8.0035 5.37112 8.34266 5.47836C8.68181 5.58561 8.99435 5.76285 9.25981 5.99848C9.52527 6.23411 9.73767 6.52282 9.88309 6.8457C10.0285 7.16858 10.1037 7.51835 10.1037 7.87211C10.1037 8.22587 10.0285 8.57565 9.88309 8.89853C9.73767 9.22141 9.52527 9.51012 9.25981 9.74575C8.99435 9.98138 8.68181 10.1586 8.34266 10.2659C8.0035 10.3731 7.64539 10.4079 7.29175 10.3681ZM27.1227 26.7838H22.2938V19.056C22.2938 17.12 21.6016 15.856 19.8471 15.856C19.3041 15.86 18.7754 16.0292 18.3321 16.3411C17.8889 16.6529 17.5525 17.0923 17.3682 17.6C17.2422 17.976 17.1877 18.3721 17.2072 18.768V26.7678H12.3783V12.368H17.2072V14.4C17.6459 13.6434 18.284 13.0201 19.0526 12.5972C19.8213 12.1743 20.6915 11.9678 21.5694 12.0001C24.7887 12.0001 27.1227 14.064 27.1227 18.496V26.7838Z" fill="#161618"/>
</svg>
